STARTFONT 2.1
COMMENT GENERATED BY "bin2bdf 1.0"
COMMENT AUTHOR mleisher@nmsu.edu (Mark Leisher)
COMMENT DATE Fri Jan 20 11:00:30 1995
COMMENT
FONT -watanabe-fixed-medium-r-normal--32-300-75-75-c-320-jisx0208.1983-0
SIZE 32 100 100
FONTBOUNDINGBOX 32 32 0 -2
STARTPROPERTIES 4
COPYRIGHT "Public Domain"
DEFAULT_CHAR 41377
FONT_ASCENT 30
FONT_DESCENT 2
ENDPROPERTIES
CHARS 7807
STARTCHAR 2121
ENCODING 8481
SWIDTH 225 0
DWIDTH 32 0
BBX 32 32 0 -2
BITMAP
00000000
00000000
00000000
00000000
00000000
00000000
00000000
00000000
00000000
00000000
00000000
00000000
00000000
00000000
00000000
00000000
00000000
00000000
00000000
00000000
00000000
00000000
00000000
00000000
00000000
00000000
00000000
00000000
00000000
00000000
00000000
00000000
ENDCHAR
STARTCHAR 2122
ENCODING 8482
SWIDTH 225 0
DWIDTH 32 0
BBX 32 32 0 -2
BITMAP
00000000
00000000
00000000
00000000
00000000
00000000
00000000
00000000
00000000
00000000
00000000
00000000
00000000
00000000
00000000
00000000
00000000
00000000
00000000
00000000
00000000
00000000
00000000
70000000
3c000000
1e000000
0f000000
07000000
07000000
02000000
00000000
00000000
ENDCHAR
STARTCHAR 2123
ENCODING 8483
SWIDTH 225 0
DWIDTH 32 0
BBX 32 32 0 -2
BITMAP
00000000
00000000
00000000
00000000
00000000
00000000
00000000
00000000
00000000
00000000
00000000
00000000
00000000
00000000
00000000
00000000
00000000
00000000
00000000
00000000
00000000
00000000
00000000
1f000000
31800000
20800000
20800000
20800000
31800000
1f000000
00000000
00000000
ENDCHAR
STARTCHAR 2124
ENCODING 8484
SWIDTH 225 0
DWIDTH 32 0
BBX 32 32 0 -2
BITMAP
00000000
00000000
00000000
00000000
00000000
00000000
00000000
00000000
00000000
00000000
00000000
00000000
00000000
00000000
00000000
00000000
00000000
00000000
00000000
00000000
00000000
00000000
1c000000
3e000000
3e000000
1e000000
0e000000
0c000000
0c000000
18000000
30000000
00000000
ENDCHAR
STARTCHAR 2125
ENCODING 8485
SWIDTH 225 0
DWIDTH 32 0
BBX 32 32 0 -2
BITMAP
00000000
00000000
00000000
00000000
00000000
00000000
00000000
00000000
00000000
00000000
00000000
00000000
00000000
00000000
00000000
00000000
00000000
00000000
00000000
00000000
00000000
00000000
00000000
00000000
1c000000
3e000000
3e000000
3e000000
1c000000
00000000
00000000
00000000
ENDCHAR
STARTCHAR 2126
ENCODING 8486
SWIDTH 225 0
DWIDTH 32 0
BBX 32 32 0 -2
BITMAP
00000000
00000000
00000000
00000000
00000000
00000000
00000000
00000000
00000000
00000000
00000000
00000000
00000000
00038000
0007c000
0007c000
0007c000
00038000
00000000
00000000
00000000
00000000
00000000
00000000
00000000
00000000
00000000
00000000
00000000
00000000
00000000
00000000
ENDCHAR
STARTCHAR 2127
ENCODING 8487
SWIDTH 225 0
DWIDTH 32 0
BBX 32 32 0 -2
BITMAP
00000000
00000000
00000000
00000000
00000000
00000000
00000000
00000000
00000000
00000000
00000000
00038000
0007c000
0007c000
0007c000
00038000
00000000
00000000
00000000
00000000
00000000
00000000
00038000
0007c000
0007c000
0007c000
00038000
00000000
00000000
00000000
00000000
00000000
ENDCHAR
STARTCHAR 2128
ENCODING 8488
SWIDTH 225 0
DWIDTH 32 0
BBX 32 32 0 -2
BITMAP
00000000
00000000
00000000
00000000
00000000
00000000
00000000
00000000
00000000
00000000
00000000
00038000
0007c000
0007c000
0007c000
00038000
00000000
00000000
00000000
00000000
00000000
00000000
00038000
0007c000
0007c000
0003c000
00018000
00018000
00030000
00060000
00000000
00000000
ENDCHAR
STARTCHAR 2129
ENCODING 8489
SWIDTH 225 0
DWIDTH 32 0
BBX 32 32 0 -2
BITMAP
00000000
00000000
00000000
0007f000
001ffc00
00381e00
00200600
00600700
00700300
00780300
00780700
00300600
00000e00
00001c00
00003800
00003000
00006000
00004000
0000c000
00008000
00008000
00008000
00000000
00000000
00000000
00018000
0003c000
0003c000
00018000
00000000
00000000
00000000
ENDCHAR
STARTCHAR 212a
ENCODING 8490
SWIDTH 225 0
DWIDTH 32 0
BBX 32 32 0 -2
BITMAP
00000000
00000000
00000000
00018000
0003c000
0003c000
0003c000
0003c000
0003c000
0003c000
0003c000
0003c000
0003c000
0003c000
0003c000
00018000
00018000
00018000
00018000
00018000
00018000
00000000
00000000
00000000
00000000
00018000
0003c000
0003c000
00018000
00000000
00000000
00000000
ENDCHAR
STARTCHAR 212b
ENCODING 8491
SWIDTH 225 0
DWIDTH 32 0
BBX 32 32 0 -2
BITMAP
00000000
00000000
0c000000
07000000
03800000
61c00000
38c00000
1c000000
0e000000
06000000
00000000
00000000
00000000
00000000
00000000
00000000
00000000
00000000
00000000
00000000
00000000
00000000
00000000
00000000
00000000
00000000
00000000
00000000
00000000
00000000
00000000
00000000
ENDCHAR
STARTCHAR 212c
ENCODING 8492
SWIDTH 225 0
DWIDTH 32 0
BBX 32 32 0 -2
BITMAP
00000000
00000000
3c000000
66000000
42000000
42000000
66000000
3c000000
00000000
00000000
00000000
00000000
00000000
00000000
00000000
00000000
00000000
00000000
00000000
00000000
00000000
00000000
00000000
00000000
00000000
00000000
00000000
00000000
00000000
00000000
00000000
00000000
ENDCHAR
STARTCHAR 212d
ENCODING 8493
SWIDTH 225 0
DWIDTH 32 0
BBX 32 32 0 -2
BITMAP
00000000
00008000
0001c000
0001c000
00038000
00030000
00060000
00040000
00000000
00000000
00000000
00000000
00000000
00000000
00000000
00000000
00000000
00000000
00000000
00000000
00000000
00000000
00000000
00000000
00000000
00000000
00000000
00000000
00000000
00000000
00000000
00000000
ENDCHAR
STARTCHAR 212e
ENCODING 8494
SWIDTH 225 0
DWIDTH 32 0
BBX 32 32 0 -2
BITMAP
00000000
00020000
00070000
00070000
00038000
00018000
0000c000
00004000
00000000
00000000
00000000
00000000
00000000
00000000
00000000
00000000
00000000
00000000
00000000
00000000
00000000
00000000
00000000
00000000
00000000
00000000
00000000
00000000
00000000
00000000
00000000
00000000
ENDCHAR
STARTCHAR 212f
ENCODING 8495
SWIDTH 225 0
DWIDTH 32 0
BBX 32 32 0 -2
BITMAP
00000000
00000000
000c3000
001e7800
001e7800
000c3000
00000000
00000000
00000000
00000000
00000000
00000000
00000000
00000000
00000000
00000000
00000000
00000000
00000000
00000000
00000000
00000000
00000000
00000000
00000000
00000000
00000000
00000000
00000000
00000000
00000000
00000000
ENDCHAR
STARTCHAR 2130
ENCODING 8496
SWIDTH 225 0
DWIDTH 32 0
BBX 32 32 0 -2
BITMAP
00000000
00018000
0003c000
0007e000
00066000
000c3000
00081000
00000000
00000000
00000000
00000000
00000000
00000000
00000000
00000000
00000000
00000000
00000000
00000000
00000000
00000000
00000000
00000000
00000000
00000000
00000000
00000000
00000000
00000000
00000000
00000000
00000000
ENDCHAR
STARTCHAR 2131
ENCODING 8497
SWIDTH 225 0
DWIDTH 32 0
BBX 32 32 0 -2
BITMAP
ffffffff
ffffffff
00000000
00000000
00000000
00000000
00000000
00000000
00000000
00000000
00000000
00000000
00000000
00000000
00000000
00000000
00000000
00000000
00000000
00000000
00000000
00000000
00000000
00000000
00000000
00000000
00000000
00000000
00000000
00000000
00000000
00000000
ENDCHAR
STARTCHAR 2132
ENCODING 8498
SWIDTH 225 0
DWIDTH 32 0
BBX 32 32 0 -2
BITMAP
00000000
00000000
00000000
00000000
00000000
00000000
00000000
00000000
00000000
00000000
00000000
00000000
00000000
00000000
00000000
00000000
00000000
00000000
00000000
00000000
00000000
00000000
00000000
00000000
00000000
00000000
00000000
00000000
00000000
00000000
ffffffff
ffffffff
ENDCHAR
STARTCHAR 2133
ENCODING 8499
SWIDTH 225 0
DWIDTH 32 0
BBX 32 32 0 -2
BITMAP
00000000
00000000
00000000
00000000
00000000
00000000
00000000
00000000
00000000
00000000
00700000
001c0000
000f0000
00078000
0003c000
0001e000
0000f000
00007000
00007800
00003800
00003800
00001000
00000000
00000000
00000000
00000000
00000000
00000000
00000000
00000000
00000000
00000000
ENDCHAR
STARTCHAR 2134
ENCODING 8500
SWIDTH 225 0
DWIDTH 32 0
BBX 32 32 0 -2
BITMAP
00000000
00000000
00000000
00000000
00000c00
00000700
00000380
000061c0
000038c0
00001c00
00700e00
001c0600
000f0000
00078000
0003c000
0001e000
0000f000
00007000
00007800
00003800
00003800
00001000
00000000
00000000
00000000
00000000
00000000
00000000
00000000
00000000
00000000
00000000
ENDCHAR
STARTCHAR 2135
ENCODING 8501
SWIDTH 225 0
DWIDTH 32 0
BBX 32 32 0 -2
BITMAP
00000000
00000000
00000000
00000000
00000000
00000000
00000000
00000000
00000000
00700000
001c0000
000f0000
00078000
0003c000
0001e000
0000f000
00007800
00003800
00007c00
0001fc00
00079c00
000c0000
00000000
00000000
00000000
00000000
00000000
00000000
00000000
00000000
00000000
00000000
ENDCHAR
STARTCHAR 2136
ENCODING 8502
SWIDTH 225 0
DWIDTH 32 0
BBX 32 32 0 -2
BITMAP
00000000
00000000
00000000
00000000
00000000
00000300
000001c0
000030e0
00001c70
00700e30
001c0700
000f0300
00078000
0003c000
0001e000
0000f000
00007800
00003800
00007c00
0001fc00
00079c00
000c0000
00000000
00000000
00000000
00000000
00000000
00000000
00000000
00000000
00000000
00000000
ENDCHAR
STARTCHAR 2137
ENCODING 8503
SWIDTH 225 0
DWIDTH 32 0
BBX 32 32 0 -2
BITMAP
00000000
00000000
00000000
00000000
00000000
00000000
00000000
00000000
00000000
00071c00
00071c00
00071c00
00061800
00061800
000e3800
000c3000
000c3000
00082000
00186000
00104000
0030c000
00208000
00000000
00000000
00000000
00000000
00000000
00000000
00000000
00000000
00000000
00000000
ENDCHAR
STARTCHAR 2138
ENCODING 8504
SWIDTH 225 0
DWIDTH 32 0
BBX 32 32 0 -2
BITMAP
00000000
00000000
00010000
0001e000
0003c000
00036000
00063000
000e1800
001c0c00
00380600
00700380
00e001e0
01c000f8
0380007e
0e00001c
38000108
00000380
01ffffc0
00018000
00018000
00018000
00018000
00018000
00018000
00018000
00018010
00018038
1ffffffc
00000000
00000000
00000000
00000000
ENDCHAR
STARTCHAR 2139
ENCODING 8505
SWIDTH 225 0
DWIDTH 32 0
BBX 32 32 0 -2
BITMAP
00000000
00000000
00000000
00000000
00000000
00020000
00038000
0003c000
00070000
00070000
000e0300
000fff80
001c07c0
00380600
00300e00
00600c00
00c00c00
01801800
03001800
06063000
0003a000
0001e000
0000f000
00007000
00003800
00001c00
00000c00
00000000
00000000
00000000
00000000
00000000
ENDCHAR
STARTCHAR 213a
ENCODING 8506
SWIDTH 225 0
DWIDTH 32 0
BBX 32 32 0 -2
BITMAP
00000000
00000000
00000000
00000000
00000000
00000000
00000600
00000300
00000380
00000780
00000e00
003c1c00
006f3800
00436000
00c1c000
0081e000
00837000
01867000
010c3800
01183800
01381000
01700000
03e00000
01c00000
01c00000
00800000
00000000
00000000
00000000
00000000
00000000
00000000
ENDCHAR
STARTCHAR 213b
ENCODING 8507
SWIDTH 225 0
DWIDTH 32 0
BBX 32 32 0 -2
BITMAP
00000000
00000000
000ff000
00781e00
01c00380
030000c0
06000060
0c000030
08000010
18000018
10000008
10000008
3000000c
20000004
20000004
20000004
20000004
20000004
20000004
3000000c
10000008
10000008
18000018
08000010
0c000030
06000060
030000c0
01c00380
00781e00
000ff000
00000000
00000000
ENDCHAR
STARTCHAR 213c
ENCODING 8508
SWIDTH 225 0
DWIDTH 32 0
BBX 32 32 0 -2
BITMAP
00000000
00000000
00000000
00000000
00000000
00000000
00000000
00000000
00000000
00000000
00000000
00000000
00000000
00000000
080000c0
0fffffe0
07fffff0
03000000
00000000
00000000
00000000
00000000
00000000
00000000
00000000
00000000
00000000
00000000
00000000
00000000
00000000
00000000
ENDCHAR
STARTCHAR 213d
ENCODING 8509
SWIDTH 225 0
DWIDTH 32 0
BBX 32 32 0 -2
BITMAP
00000000
00000000
00000000
00000000
00000000
00000000
00000000
00000000
00000000
00000000
00000000
00000000
00000000
00000000
00000000
1ffffff8
1ffffff8
00000000
00000000
00000000
00000000
00000000
00000000
00000000
00000000
00000000
00000000
00000000
00000000
00000000
00000000
00000000
ENDCHAR
STARTCHAR 213e
ENCODING 8510
SWIDTH 225 0
DWIDTH 32 0
BBX 32 32 0 -2
BITMAP
00000000
00000000
00000000
00000000
00000000
00000000
00000000
00000000
00000000
00000000
00000000
00000000
00000000
00000000
00000000
003ffc00
003ffc00
00000000
00000000
00000000
00000000
00000000
00000000
00000000
00000000
00000000
00000000
00000000
00000000
00000000
00000000
00000000
ENDCHAR
STARTCHAR 213f
ENCODING 8511
SWIDTH 225 0
DWIDTH 32 0
BBX 32 32 0 -2
BITMAP
00000000
00000000
0000000c
0000001c
00000038
00000070
000000e0
000001c0
00000380
00000700
00000e00
00001c00
00003800
00007000
0000e000
0001c000
00038000
00070000
000e0000
001c0000
00380000
00700000
00e00000
01c00000
03800000
07000000
0e000000
1c000000
38000000
30000000
00000000
00000000
ENDCHAR
STARTCHAR 2140
ENCODING 8512
SWIDTH 225 0
DWIDTH 32 0
BBX 32 32 0 -2
BITMAP
00000000
00000000
30000000
38000000
1c000000
0e000000
07000000
03800000
01c00000
00e00000
00700000
00380000
001c0000
000e0000
00070000
00038000
0001c000
0000e000
00007000
00003800
00001c00
00000e00
00000700
00000380
000001c0
000000e0
00000070
00000038
0000001c
0000000c
00000000
00000000
ENDCHAR
STARTCHAR 2141
ENCODING 8513
SWIDTH 225 0
DWIDTH 32 0
BBX 32 32 0 -2
BITMAP
00000000
00000000
00000000
00000000
00000000
00000000
00000000
00000000
00000000
00000000
00000000
00000000
01f00004
07fe000c
0e1f8008
1807e018
1001f870
30007fe0
20000f80
00000000
00000000
00000000
00000000
00000000
00000000
00000000
00000000
00000000
00000000
00000000
00000000
00000000
ENDCHAR
STARTCHAR 2142
ENCODING 8514
SWIDTH 225 0
DWIDTH 32 0
BBX 32 32 0 -2
BITMAP
000c3000
000c3000
000c3000
000c3000
000c3000
000c3000
000c3000
000c3000
000c3000
000c3000
000c3000
000c3000
000c3000
000c3000
000c3000
000c3000
000c3000
000c3000
000c3000
000c3000
000c3000
000c3000
000c3000
000c3000
000c3000
000c3000
000c3000
000c3000
000c3000
000c3000
000c3000
000c3000
ENDCHAR
STARTCHAR 2143
ENCODING 8515
SWIDTH 225 0
DWIDTH 32 0
BBX 32 32 0 -2
BITMAP
00018000
00018000
00018000
00018000
00018000
00018000
00018000
00018000
00018000
00018000
00018000
00018000
00018000
00018000
00018000
00018000
00018000
00018000
00018000
00018000
00018000
00018000
00018000
00018000
00018000
00018000
00018000
00018000
00018000
00018000
00018000
00018000
ENDCHAR
STARTCHAR 2144
ENCODING 8516
SWIDTH 225 0
DWIDTH 32 0
BBX 32 32 0 -2
BITMAP
00000000
00000000
00000000
00000000
00000000
00000000
00000000
00000000
00000000
00000000
00000000
00000000
00000000
00000000
06018060
0f03c0f0
0f03c0f0
06018060
00000000
00000000
00000000
00000000
00000000
00000000
00000000
00000000
00000000
00000000
00000000
00000000
00000000
00000000
ENDCHAR
STARTCHAR 2145
ENCODING 8517
SWIDTH 225 0
DWIDTH 32 0
BBX 32 32 0 -2
BITMAP
00000000
00000000
00000000
00000000
00000000
00000000
00000000
00000000
00000000
00000000
00000000
00000000
00000000
00000000
01800180
03c003c0
03c003c0
01800180
00000000
00000000
00000000
00000000
00000000
00000000
00000000
00000000
00000000
00000000
00000000
00000000
00000000
00000000
ENDCHAR
STARTCHAR 2146
ENCODING 8518
SWIDTH 225 0
DWIDTH 32 0
BBX 32 32 0 -2
BITMAP
00000000
0000000c
00000018
00000010
00000030
00000038
0000003c
0000003c
00000018
00000000
00000000
00000000
00000000
00000000
00000000
00000000
00000000
00000000
00000000
00000000
00000000
00000000
00000000
00000000
00000000
00000000
00000000
00000000
00000000
00000000
00000000
00000000
ENDCHAR
STARTCHAR 2147
ENCODING 8519
SWIDTH 225 0
DWIDTH 32 0
BBX 32 32 0 -2
BITMAP
00000000
18000000
3c000000
3c000000
1c000000
0c000000
08000000
18000000
30000000
00000000
00000000
00000000
00000000
00000000
00000000
00000000
00000000
00000000
00000000
00000000
00000000
00000000
00000000
00000000
00000000
00000000
00000000
00000000
00000000
00000000
00000000
00000000
ENDCHAR
STARTCHAR 2148
ENCODING 8520
SWIDTH 225 0
DWIDTH 32 0
BBX 32 32 0 -2
BITMAP
00000000
00000618
00000c30
00000820
00001860
00001c70
00001e78
00001e78
00000c30
00000000
00000000
00000000
00000000
00000000
00000000
00000000
00000000
00000000
00000000
00000000
00000000
00000000
00000000
00000000
00000000
00000000
00000000
00000000
00000000
00000000
00000000
00000000
ENDCHAR
STARTCHAR 2149
ENCODING 8521
SWIDTH 225 0
DWIDTH 32 0
BBX 32 32 0 -2
BITMAP
00000000
0c300000
1e780000
1e780000
0e380000
06180000
04100000
0c300000
18600000
00000000
00000000
00000000
00000000
00000000
00000000
00000000
00000000
00000000
00000000
00000000
00000000
00000000
00000000
00000000
00000000
00000000
00000000
00000000
00000000
00000000
00000000
00000000
ENDCHAR
STARTCHAR 214a
ENCODING 8522
SWIDTH 225 0
DWIDTH 32 0
BBX 32 32 0 -2
BITMAP
00000000
0000000c
00000018
00000030
00000060
000000c0
000000c0
00000180
00000180
00000300
00000300
00000300
00000600
00000600
00000600
00000600
00000600
00000600
00000600
00000600
00000300
00000300
00000300
00000180
00000180
000000c0
000000c0
00000060
00000030
00000018
0000000c
00000000
ENDCHAR
STARTCHAR 214b
ENCODING 8523
SWIDTH 225 0
DWIDTH 32 0
BBX 32 32 0 -2
BITMAP
00000000
30000000
18000000
0c000000
06000000
03000000
03000000
01800000
01800000
00c00000
00c00000
00c00000
00600000
00600000
00600000
00600000
00600000
00600000
00600000
00600000
00c00000
00c00000
00c00000
01800000
01800000
03000000
03000000
06000000
0c000000
18000000
30000000
00000000
ENDCHAR
STARTCHAR 214c
ENCODING 8524
SWIDTH 225 0
DWIDTH 32 0
BBX 32 32 0 -2
BITMAP
00000000
0000000c
0000003c
000000f0
000003c0
00000300
00000300
00000300
00000300
00000300
00000300
00000300
00000300
00000300
00000300
00000300
00000300
00000300
00000300
00000300
00000300
00000300
00000300
00000300
00000300
00000300
00000300
000003c0
000000f0
0000003c
0000000c
00000000
ENDCHAR
STARTCHAR 214d
ENCODING 8525
SWIDTH 225 0
DWIDTH 32 0
BBX 32 32 0 -2
BITMAP
00000000
30000000
3c000000
0f000000
03c00000
00c00000
00c00000
00c00000
00c00000
00c00000
00c00000
00c00000
00c00000
00c00000
00c00000
00c00000
00c00000
00c00000
00c00000
00c00000
00c00000
00c00000
00c00000
00c00000
00c00000
00c00000
00c00000
03c00000
0f000000
3c000000
30000000
00000000
ENDCHAR
STARTCHAR 214e
ENCODING 8526
SWIDTH 225 0
DWIDTH 32 0
BBX 32 32 0 -2
BITMAP
00000000
00000ffc
00000ffc
00000c00
00000c00
00000c00
00000c00
00000c00
00000c00
00000c00
00000c00
00000c00
00000c00
00000c00
00000c00
00000c00
00000c00
00000c00
00000c00
00000c00
00000c00
00000c00
00000c00
00000c00
00000c00
00000c00
00000c00
00000c00
00000c00
00000ffc
00000ffc
00000000
ENDCHAR
STARTCHAR 214f
ENCODING 8527
SWIDTH 225 0
DWIDTH 32 0
BBX 32 32 0 -2
BITMAP
00000000
3fe00000
3fe00000
00600000
00600000
00600000
00600000
00600000
00600000
00600000
00600000
00600000
00600000
00600000
00600000
00600000
00600000
00600000
00600000
00600000
00600000
00600000
00600000
00600000
00600000
00600000
00600000
00600000
00600000
3fe00000
3fe00000
00000000
ENDCHAR
STARTCHAR 2150
ENCODING 8528
SWIDTH 225 0
DWIDTH 32 0
BBX 32 32 0 -2
BITMAP
00000000
00000038
00000060
000000c0
000000c0
00000180
00000180
00000180
00000180
00000180
00000180
00000180
00000180
00000100
00000300
00000600
00000600
00000300
00000100
00000180
00000180
00000180
00000180
00000180
00000180
00000180
00000180
000000c0
000000c0
00000060
00000038
00000000
ENDCHAR
STARTCHAR 2151
ENCODING 8529
SWIDTH 225 0
DWIDTH 32 0
BBX 32 32 0 -2
BITMAP
00000000
38000000
0c000000
06000000
06000000
03000000
03000000
03000000
03000000
03000000
03000000
03000000
03000000
01000000
01800000
00c00000
00c00000
01800000
01000000
03000000
03000000
03000000
03000000
03000000
03000000
03000000
03000000
06000000
06000000
0c000000
38000000
00000000
ENDCHAR
STARTCHAR 2152
ENCODING 8530
SWIDTH 225 0
DWIDTH 32 0
BBX 32 32 0 -2
BITMAP
00000000
00000004
0000000c
00000018
00000030
00000060
000000c0
00000180
00000300
00000600
00000c00
00001800
00003000
00006000
0000c000
00018000
00018000
0000c000
00006000
00003000
00001800
00000c00
00000600
00000300
00000180
000000c0
00000060
00000030
00000018
0000000c
00000004
00000000
ENDCHAR
STARTCHAR 2153
ENCODING 8531
SWIDTH 225 0
DWIDTH 32 0
BBX 32 32 0 -2
BITMAP
00000000
20000000
30000000
18000000
0c000000
06000000
03000000
01800000
00c00000
00600000
00300000
00180000
000c0000
00060000
00030000
00018000
00018000
00030000
00060000
000c0000
00180000
00300000
00600000
00c00000
01800000
03000000
06000000
0c000000
18000000
30000000
20000000
00000000
ENDCHAR
STARTCHAR 2154
ENCODING 8532
SWIDTH 225 0
DWIDTH 32 0
BBX 32 32 0 -2
BITMAP
00000000
00000084
0000018c
00000318
00000630
00000c60
000018c0
00003180
00006300
0000c600
00018c00
00031800
00063000
000c6000
0018c000
00318000
00318000
0018c000
000c6000
00063000
00031800
00018c00
0000c600
00006300
00003180
000018c0
00000c60
00000630
00000318
0000018c
00000084
00000000
ENDCHAR
STARTCHAR 2155
ENCODING 8533
SWIDTH 225 0
DWIDTH 32 0
BBX 32 32 0 -2
BITMAP
00000000
21000000
31800000
18c00000
0c600000
06300000
03180000
018c0000
00c60000
00630000
00318000
0018c000
000c6000
00063000
00031800
00018c00
00018c00
00031800
00063000
000c6000
0018c000
00318000
00630000
00c60000
018c0000
03180000
06300000
0c600000
18c00000
31800000
21000000
00000000
ENDCHAR
STARTCHAR 2156
ENCODING 8534
SWIDTH 225 0
DWIDTH 32 0
BBX 32 32 0 -2
BITMAP
00000000
000003fc
000003fc
00000300
00000300
00000300
00000300
00000300
00000300
00000300
00000300
00000300
00000300
00000300
00000300
00000300
00000300
00000300
00000300
00000300
00000300
00000300
00000000
00000000
00000000
00000000
00000000
00000000
00000000
00000000
00000000
00000000
ENDCHAR
STARTCHAR 2157
ENCODING 8535
SWIDTH 225 0
DWIDTH 32 0
BBX 32 32 0 -2
BITMAP
00000000
00000000
00000000
00000000
00000000
00000000
00000000
00000000
00000000
00c00000
00c00000
00c00000
00c00000
00c00000
00c00000
00c00000
00c00000
00c00000
00c00000
00c00000
00c00000
00c00000
00c00000
00c00000
00c00000
00c00000
00c00000
00c00000
00c00000
3fc00000
3fc00000
00000000
ENDCHAR
STARTCHAR 2158
ENCODING 8536
SWIDTH 225 0
DWIDTH 32 0
BBX 32 32 0 -2
BITMAP
00000000
00003ffc
00002004
00002004
00002004
000023fc
00002200
00002200
00002200
00002200
00002200
00002200
00002200
00002200
00002200
00002200
00002200
00002200
00002200
00002200
00002200
00002200
00002200
00003e00
00000000
00000000
00000000
00000000
00000000
00000000
00000000
00000000
ENDCHAR
STARTCHAR 2159
ENCODING 8537
SWIDTH 225 0
DWIDTH 32 0
BBX 32 32 0 -2
BITMAP
00000000
00000000
00000000
00000000
00000000
00000000
00000000
00000000
007c0000
00440000
00440000
00440000
00440000
00440000
00440000
00440000
00440000
00440000
00440000
00440000
00440000
00440000
00440000
00440000
00440000
00440000
3fc40000
20040000
20040000
20040000
3ffc0000
00000000
ENDCHAR
STARTCHAR 215a
ENCODING 8538
SWIDTH 225 0
DWIDTH 32 0
BBX 32 32 0 -2
BITMAP
00000000
000003fc
000003f8
000003f0
000003e0
000003e0
000003c0
000003c0
00000380
00000380
00000380
00000300
00000300
00000300
00000300
00000300
00000300
00000300
00000300
00000300
00000300
00000380
00000380
00000380
000003c0
000003c0
000003e0
000003e0
000003f0
000003f8
000003fc
00000000
ENDCHAR
STARTCHAR 215b
ENCODING 8539
SWIDTH 225 0
DWIDTH 32 0
BBX 32 32 0 -2
BITMAP
00000000
3fc00000
1fc00000
0fc00000
07c00000
07c00000
03c00000
03c00000
01c00000
01c00000
01c00000
00c00000
00c00000
00c00000
00c00000
00c00000
00c00000
00c00000
00c00000
00c00000
00c00000
01c00000
01c00000
01c00000
03c00000
03c00000
07c00000
07c00000
0fc00000
1fc00000
3fc00000
00000000
ENDCHAR
STARTCHAR 215c
ENCODING 8540
SWIDTH 225 0
DWIDTH 32 0
BBX 32 32 0 -2
BITMAP
00000000
00000000
00000000
00000000
00000000
00018000
00018000
00018000
00018000
00018000
00018000
00018000
00018000
00018000
07ffffe0
07ffffe0
00018000
00018000
00018000
00018000
00018000
00018000
00018000
00018000
00018000
00018000
00018000
00000000
00000000
00000000
00000000
00000000
ENDCHAR
STARTCHAR 215d
ENCODING 8541
SWIDTH 225 0
DWIDTH 32 0
BBX 32 32 0 -2
BITMAP
00000000
00000000
00000000
00000000
00000000
00000000
00000000
00000000
00000000
00000000
00000000
00000000
00000000
00000000
07ffffe0
07ffffe0
00000000
00000000
00000000
00000000
00000000
00000000
00000000
00000000
00000000
00000000
00000000
00000000
00000000
00000000
00000000
00000000
ENDCHAR
STARTCHAR 215e
ENCODING 8542
SWIDTH 225 0
DWIDTH 32 0
BBX 32 32 0 -2
BITMAP
00000000
00000000
00000000
00018000
00018000
00018000
00018000
00018000
00018000
00018000
00018000
00018000
07ffffe0
07ffffe0
00018000
00018000
00018000
00018000
00018000
00018000
00018000
00018000
00018000
00000000
00000000
07ffffe0
07ffffe0
00000000
00000000
00000000
00000000
00000000
ENDCHAR
STARTCHAR 215f
ENCODING 8543
SWIDTH 225 0
DWIDTH 32 0
BBX 32 32 0 -2
BITMAP
00000000
00000000
00000000
00000000
00000000
00000000
030000c0
038001c0
01c00380
00e00700
00700e00
00381c00
001c3800
000e7000
0007e000
0003c000
0003c000
0007e000
000e7000
001c3800
00381c00
00700e00
00e00700
01c00380
038001c0
030000c0
00000000
00000000
00000000
00000000
00000000
00000000
ENDCHAR
STARTCHAR 2160
ENCODING 8544
SWIDTH 225 0
DWIDTH 32 0
BBX 32 32 0 -2
BITMAP
00000000
00000000
00000000
00000000
00000000
00000000
00018000
0003c000
0003c000
00018000
00000000
00000000
00000000
00000000
07ffffe0
07ffffe0
00000000
00000000
00000000
00000000
00018000
0003c000
0003c000
00018000
00000000
00000000
00000000
00000000
00000000
00000000
00000000
00000000
ENDCHAR
STARTCHAR 2161
ENCODING 8545
SWIDTH 225 0
DWIDTH 32 0
BBX 32 32 0 -2
BITMAP
00000000
00000000
00000000
00000000
00000000
00000000
00000000
00000000
00000000
00000000
00000000
00000000
07ffffe0
07ffffe0
00000000
00000000
00000000
00000000
07ffffe0
07ffffe0
00000000
00000000
00000000
00000000
00000000
00000000
00000000
00000000
00000000
00000000
00000000
00000000
ENDCHAR
STARTCHAR 2162
ENCODING 8546
SWIDTH 225 0
DWIDTH 32 0
BBX 32 32 0 -2
BITMAP
00000000
00000000
00000000
00000000
00000000
00000000
00001800
00001800
00003000
00003000
00006000
00006000
07ffffe0
07ffffe0
0000c000
00018000
00018000
00030000
07ffffe0
07ffffe0
00060000
00060000
000c0000
000c0000
00180000
00180000
00000000
00000000
00000000
00000000
00000000
00000000
ENDCHAR
STARTCHAR 2163
ENCODING 8547
SWIDTH 225 0
DWIDTH 32 0
BBX 32 32 0 -2
BITMAP
00000000
00000000
00000018
00000078
000001e0
00000780
00001e00
00007800
0001e000
00078000
001e0000
00780000
01e00000
07800000
1e000000
38000000
38000000
1e000000
07800000
01e00000
00780000
001e0000
00078000
0001e000
00007800
00001e00
00000780
000001e0
00000078
00000018
00000000
00000000
ENDCHAR
STARTCHAR 2164
ENCODING 8548
SWIDTH 225 0
DWIDTH 32 0
BBX 32 32 0 -2
BITMAP
00000000
00000000
18000000
1e000000
07800000
01e00000
00780000
001e0000
00078000
0001e000
00007800
00001e00
00000780
000001e0
00000078
0000001c
0000001c
00000078
000001e0
00000780
00001e00
00007800
0001e000
00078000
001e0000
00780000
01e00000
07800000
1e000000
18000000
00000000
00000000
ENDCHAR
STARTCHAR 2165
ENCODING 8549
SWIDTH 225 0
DWIDTH 32 0
BBX 32 32 0 -2
BITMAP
00000000
00000000
00000070
000003f0
00001f80
0000fc00
0007e000
003f0000
01f80000
07c00000
0e000000
07c00000
01f80000
003f0000
0007e000
0000fc00
00001f80
000003f0
00000070
00000000
00000000
0ffffff0
0ffffff0
00000000
00000000
00000000
0ffffff0
0ffffff0
00000000
00000000
00000000
00000000
ENDCHAR
STARTCHAR 2166
ENCODING 8550
SWIDTH 225 0
DWIDTH 32 0
BBX 32 32 0 -2
BITMAP
00000000
00000000
0e000000
0fc00000
01f80000
003f0000
0007e000
0000fc00
00001f80
000003e0
000000f0
000003e0
00001f80
0000fc00
0007e000
003f0000
01f80000
0fc00000
0e000000
00000000
00000000
0ffffff0
0ffffff0
00000000
00000000
00000000
0ffffff0
0ffffff0
00000000
00000000
00000000
00000000
ENDCHAR
STARTCHAR 2167
ENCODING 8551
SWIDTH 225 0
DWIDTH 32 0
BBX 32 32 0 -2
BITMAP
00000000
00000000
00000000
00000000
00000000
00000000
00000000
00000000
00000000
00000000
03e007c0
0ff81ff0
1e3c3c78
180e7018
3807e01c
3003c00c
3003c00c
3807e01c
180e7018
1e3c3c78
0ff81ff0
03e007c0
00000000
00000000
00000000
00000000
00000000
00000000
00000000
00000000
00000000
00000000
ENDCHAR
STARTCHAR 2168
ENCODING 8552
SWIDTH 225 0
DWIDTH 32 0
BBX 32 32 0 -2
BITMAP
00000000
00000000
00000000
00000000
00000000
0003c000
0007e000
0007e000
0007e000
0007e000
0003c000
00000000
00000000
00000000
00000000
00000000
00000000
00000000
03c003c0
07e007e0
07e007e0
07e007e0
07e007e0
03c003c0
00000000
00000000
00000000
00000000
00000000
00000000
00000000
00000000
ENDCHAR
STARTCHAR 2169
ENCODING 8553
SWIDTH 225 0
DWIDTH 32 0
BBX 32 32 0 -2
BITMAP
00000000
00018000
0003c000
0007e000
000db000
00199800
00318c00
00618600
00c18300
01818180
01018080
00018000
00018000
00018000
00018000
00018000
00018000
0003c000
000ff000
001c3800
00300c00
00300c00
00600600
00600600
00600600
00600600
00300c00
00300c00
001c3800
000ff000
0003c000
00000000
ENDCHAR
STARTCHAR 216a
ENCODING 8554
SWIDTH 225 0
DWIDTH 32 0
BBX 32 32 0 -2
BITMAP
00000000
00000000
0007e000
001ff800
003c3c00
00300c00
00700e00
00600600
00600600
00600600
00600600
00700e00
00300c00
003c3c00
001ff800
0007e000
00018000
00018000
00018000
03ffffc0
03ffffc0
00018000
00018000
00018000
00018000
00018000
00018000
00018000
00018000
00018000
00000000
00000000
ENDCHAR
STARTCHAR 216b
ENCODING 8555
SWIDTH 225 0
DWIDTH 32 0
BBX 32 32 0 -2
BITMAP
00000000
00000000
3e000000
63000000
41000000
41000000
41000000
63000000
3e000000
00000000
00000000
00000000
00000000
00000000
00000000
00000000
00000000
00000000
00000000
00000000
00000000
00000000
00000000
00000000
00000000
00000000
00000000
00000000
00000000
00000000
00000000
00000000
ENDCHAR
STARTCHAR 216c
ENCODING 8556
SWIDTH 225 0
DWIDTH 32 0
BBX 32 32 0 -2
BITMAP
00000000
01000000
03800000
03800000
03000000
07000000
06000000
06000000
0c000000
0c000000
18000000
10000000
00000000
00000000
00000000
00000000
00000000
00000000
00000000
00000000
00000000
00000000
00000000
00000000
00000000
00000000
00000000
00000000
00000000
00000000
00000000
00000000
ENDCHAR
STARTCHAR 216d
ENCODING 8557
SWIDTH 225 0
DWIDTH 32 0
BBX 32 32 0 -2
BITMAP
00000000
02100000
07380000
07380000
06300000
0e700000
0c600000
0c600000
18c00000
18c00000
31800000
21000000
00000000
00000000
00000000
00000000
00000000
00000000
00000000
00000000
00000000
00000000
00000000
00000000
00000000
00000000
00000000
00000000
00000000
00000000
00000000
00000000
ENDCHAR
STARTCHAR 216e
ENCODING 8558
SWIDTH 225 0
DWIDTH 32 0
BBX 32 32 0 -2
BITMAP
00000000
00000000
00000000
1e000000
3301f800
21078e40
211e03c0
333801c0
1e3000c0
00700040
00600040
00600000
00e00000
00c00000
00c00000
00c00000
00c00000
00c00000
00c00000
00e00020
00600020
00700060
00300040
003800c0
001e0180
00078700
0001fc00
00000000
00000000
00000000
00000000
00000000
ENDCHAR
STARTCHAR 216f
ENCODING 8559
SWIDTH 225 0
DWIDTH 32 0
BBX 32 32 0 -2
BITMAP
00000000
00000000
00000000
00000000
07fc0fe0
00e00100
00600300
00700200
00300600
00380400
00180c00
001c0800
000c1800
01ffffc0
00062000
00076000
0003c000
01ffffc0
00018000
00018000
00018000
00018000
00018000
00018000
00018000
0003c000
001ff800
00000000
00000000
00000000
00000000
00000000
ENDCHAR
STARTCHAR 2170
ENCODING 8560
SWIDTH 225 0
DWIDTH 32 0
BBX 32 32 0 -2
BITMAP
00000000
00018000
00018000
00018000
0007e000
001db800
00318c00
00618600
00618e00
00619e00
00618c00
00718000
003d8000
001f8000
0007e000
0001f800
0001be00
00018e00
00618700
00f18300
00f18300
00e18300
00c18700
00618600
00399e00
000ff800
00018000
00018000
00018000
00018000
00000000
00000000
ENDCHAR
STARTCHAR 2171
ENCODING 8561
SWIDTH 225 0
DWIDTH 32 0
BBX 32 32 0 -2
BITMAP
00000000
00000000
00000000
00000000
00002000
00002000
00006000
0003c000
000e7000
00185800
0030cc00
00308c00
00608000
00608000
00618000
00610000
00610000
00730000
00320400
001a0c00
000e3800
0007e000
00040000
000c0000
00080000
00080000
00000000
00000000
00000000
00000000
00000000
00000000
ENDCHAR
STARTCHAR 2172
ENCODING 8562
SWIDTH 225 0
DWIDTH 32 0
BBX 32 32 0 -2
BITMAP
00000000
00000000
00000000
00000000
00000000
0003f000
00061c00
000c0e00
00081e00
00181e00
00180c00
00180000
001c0000
000c0000
000c0000
00fff000
000e0000
00060000
00070000
00030000
00030000
00030000
01f60100
031f0100
0205c300
030cfe00
01f83c00
00000000
00000000
00000000
00000000
00000000
ENDCHAR
STARTCHAR 2173
ENCODING 8563
SWIDTH 225 0
DWIDTH 32 0
BBX 32 32 0 -2
BITMAP
00000000
00000300
00000300
00000600
03e00600
06300c00
0c180c00
0c181800
180c1800
180c3000
180c3000
180c6000
0c186000
0c18c000
0630c000
03e18000
000187c0
00030c60
00031830
00061830
00063018
000c3018
000c3018
00183018
00181830
00301830
00300c60
006007c0
00600000
00c00000
00c00000
00000000
ENDCHAR
STARTCHAR 2174
ENCODING 8564
SWIDTH 225 0
DWIDTH 32 0
BBX 32 32 0 -2
BITMAP
00000000
00000000
00020400
00020400
00020400
00020400
00020400
00020400
00ffffc0
00ffffc0
00040800
00040800
00040800
00040800
000c1800
00081000
00081000
00081000
00081000
00081000
01ffff80
01ffff80
00102000
00102000
00102000
00102000
00102000
00102000
00102000
00000000
00000000
00000000
ENDCHAR
STARTCHAR 2175
ENCODING 8565
SWIDTH 225 0
DWIDTH 32 0
BBX 32 32 0 -2
BITMAP
00000000
00000000
00000000
003e0000
00e38000
00c18000
0180c000
0180c000
0180c000
0181c000
00c18000
00c38000
00670000
007c1fc0
01f80700
039c0200
070c0200
060e0600
0e070400
0c038c00
0c01c800
0c00d800
0e007008
06007818
0781de30
03ff8fe0
00fe0380
00000000
00000000
00000000
00000000
00000000
ENDCHAR
STARTCHAR 2176
ENCODING 8566
SWIDTH 225 0
DWIDTH 32 0
BBX 32 32 0 -2
BITMAP
00000000
00000000
00000000
00000000
00000000
00000000
00010000
00038000
00038000
00438400
00e10e00
00f11e00
00793c00
001d7000
0007c000
00038000
0007c000
001d7000
00793c00
00f11e00
00e10e00
00438400
00038000
00038000
00010000
00000000
00000000
00000000
00000000
00000000
00000000
00000000
ENDCHAR
STARTCHAR 2177
ENCODING 8567
SWIDTH 225 0
DWIDTH 32 0
BBX 32 32 0 -2
BITMAP
00000000
00000000
00000000
00000000
000ff800
00380e00
00600300
00c00180
0180f4c0
01839c40
03060c60
030c0c20
060c0c20
06181820
06181820
06181820
06181820
06183060
06183040
061c70c0
030cd980
03078f20
01800060
018000c0
00e00380
00380e00
000ff800
00000000
00000000
00000000
00000000
00000000
ENDCHAR
STARTCHAR 2178
ENCODING 8568
SWIDTH 225 0
DWIDTH 32 0
BBX 32 32 0 -2
BITMAP
00000000
00000000
000fc000
00187000
00301800
00600800
00603800
00607800
00303000
003c0000
001f0000
000fc000
0038f000
00603800
00601c00
00600c00
00700c00
003c0c00
001f1800
0007f800
0001e000
00007800
00001800
00601c00
00f00c00
00e00c00
00c00c00
00601800
00387000
000fc000
00000000
00000000
ENDCHAR
STARTCHAR 2179
ENCODING 8569
SWIDTH 225 0
DWIDTH 32 0
BBX 32 32 0 -2
BITMAP
00000000
00000000
00018000
00018000
0003c000
00024000
00024000
00066000
00042000
00042000
000c3000
00081000
3ff81ffc
18000018
0e000070
030000c0
01c00380
00700e00
00300c00
00200400
00618600
0043c200
00466200
00cc3300
00981900
01b00d80
01600680
01c00380
038001c0
030000c0
00000000
00000000
ENDCHAR
STARTCHAR 217a
ENCODING 8570
SWIDTH 225 0
DWIDTH 32 0
BBX 32 32 0 -2
BITMAP
00000000
00000000
00018000
00018000
0003c000
0003c000
0003c000
0007e000
0007e000
0007e000
000ff000
000ff000
3ffffffc
1ffffff8
0ffffff0
03ffffc0
01ffff80
007ffe00
003ffc00
003ffc00
007ffe00
007ffe00
007e7e00
00fc3f00
00f81f00
01f00f80
01e00780
01c00380
038001c0
030000c0
00000000
00000000
ENDCHAR
STARTCHAR 217b
ENCODING 8571
SWIDTH 225 0
DWIDTH 32 0
BBX 32 32 0 -2
BITMAP
00000000
00000000
00000000
0007e000
003ffc00
00f81f00
01e00780
038001c0
070000e0
06000060
0e000070
0c000030
0c000030
18000018
18000018
18000018
18000018
18000018
18000018
0c000030
0c000030
0e000070
06000060
070000e0
038001c0
01e00780
00f81f00
003ffc00
0007e000
00000000
00000000
00000000
ENDCHAR
STARTCHAR 217c
ENCODING 8572
SWIDTH 225 0
DWIDTH 32 0
BBX 32 32 0 -2
BITMAP
00000000
00000000
00000000
0007e000
003ffc00
00ffff00
01ffff80
03ffffc0
07ffffe0
07ffffe0
0ffffff0
0ffffff0
0ffffff0
1ffffff8
1ffffff8
1ffffff8
1ffffff8
1ffffff8
1ffffff8
0ffffff0
0ffffff0
0ffffff0
07ffffe0
07ffffe0
03ffffc0
01ffff80
00ffff00
003ffc00
0007e000
00000000
00000000
00000000
ENDCHAR
STARTCHAR 217d
ENCODING 8573
SWIDTH 225 0
DWIDTH 32 0
BBX 32 32 0 -2
BITMAP
00000000
00000000
00000000
0007e000
003ffc00
00f81f00
01e00780
038001c0
0703c0e0
060ff060
0e3c3c70
0c300c30
0c600630
18600618
18c00318
18c00318
18c00318
18c00318
18600618
0c600630
0c300c30
0e3c3c70
060ff060
0703c0e0
038001c0
01e00780
00f81f00
003ffc00
0007e000
00000000
00000000
00000000
ENDCHAR
STARTCHAR 217e
ENCODING 8574
SWIDTH 225 0
DWIDTH 32 0
BBX 32 32 0 -2
BITMAP
00000000
00000000
00018000
0003c000
0007e000
000e7000
001c3800
00381c00
00700e00
00e00700
01c00380
038001c0
070000e0
0e000070
1c000038
3800001c
3800001c
1c000038
0e000070
070000e0
038001c0
01c00380
00e00700
00700e00
00381c00
001c3800
000e7000
0007e000
0003c000
00018000
00000000
00000000
ENDCHAR
STARTCHAR 2221
ENCODING 8737
SWIDTH 225 0
DWIDTH 32 0
BBX 32 32 0 -2
BITMAP
00000000
00000000
00018000
0003c000
0007e000
000ff000
001ff800
003ffc00
007ffe00
00ffff00
01ffff80
03ffffc0
07ffffe0
0ffffff0
1ffffff8
3ffffffc
3ffffffc
1ffffff8
0ffffff0
07ffffe0
03ffffc0
01ffff80
00ffff00
007ffe00
003ffc00
001ff800
000ff000
0007e000
0003c000
00018000
00000000
00000000
ENDCHAR
STARTCHAR 2222
ENCODING 8738
SWIDTH 225 0
DWIDTH 32 0
BBX 32 32 0 -2
BITMAP
00000000
00000000
00000000
00000000
00000000
07ffffe0
07ffffe0
06000060
06000060
06000060
06000060
06000060
06000060
06000060
06000060
06000060
06000060
06000060
06000060
06000060
06000060
06000060
06000060
06000060
06000060
07ffffe0
07ffffe0
00000000
00000000
00000000
00000000
00000000
ENDCHAR
STARTCHAR 2223
ENCODING 8739
SWIDTH 225 0
DWIDTH 32 0
BBX 32 32 0 -2
BITMAP
00000000
00000000
00000000
00000000
00000000
07ffffe0
07ffffe0
07ffffe0
07ffffe0
07ffffe0
07ffffe0
07ffffe0
07ffffe0
07ffffe0
07ffffe0
07ffffe0
07ffffe0
07ffffe0
07ffffe0
07ffffe0
07ffffe0
07ffffe0
07ffffe0
07ffffe0
07ffffe0
07ffffe0
07ffffe0
00000000
00000000
00000000
00000000
00000000
ENDCHAR
STARTCHAR 2224
ENCODING 8740
SWIDTH 225 0
DWIDTH 32 0
BBX 32 32 0 -2
BITMAP
00000000
00000000
00000000
00018000
0003c000
0003c000
00066000
00066000
000c3000
000c3000
00181800
00181800
00300c00
00300c00
00600600
00600600
00c00300
00c00300
01800180
01800180
030000c0
030000c0
06000060
06000060
0c000030
0ffffff0
1ffffff8
00000000
00000000
00000000
00000000
00000000
ENDCHAR
STARTCHAR 2225
ENCODING 8741
SWIDTH 225 0
DWIDTH 32 0
BBX 32 32 0 -2
BITMAP
00000000
00000000
00000000
00018000
0003c000
0003c000
0007e000
0007e000
000ff000
000ff000
001ff800
001ff800
003ffc00
003ffc00
007ffe00
007ffe00
00ffff00
00ffff00
01ffff80
01ffff80
03ffffc0
03ffffc0
07ffffe0
07ffffe0
0ffffff0
0ffffff0
1ffffff8
00000000
00000000
00000000
00000000
00000000
ENDCHAR
STARTCHAR 2226
ENCODING 8742
SWIDTH 225 0
DWIDTH 32 0
BBX 32 32 0 -2
BITMAP
00000000
00000000
00000000
00000000
1ffffff8
0ffffff0
0c000030
06000060
06000060
030000c0
030000c0
01800180
01800180
00c00300
00c00300
00600600
00600600
00300c00
00300c00
00181800
00181800
000c3000
000c3000
00066000
00066000
0003c000
0003c000
00018000
00000000
00000000
00000000
00000000
ENDCHAR
STARTCHAR 2227
ENCODING 8743
SWIDTH 225 0
DWIDTH 32 0
BBX 32 32 0 -2
BITMAP
00000000
00000000
00000000
00000000
1ffffff8
0ffffff0
0ffffff0
07ffffe0
07ffffe0
03ffffc0
03ffffc0
01ffff80
01ffff80
00ffff00
00ffff00
007ffe00
007ffe00
003ffc00
003ffc00
001ff800
001ff800
000ff000
000ff000
0007e000
0007e000
0003c000
0003c000
00018000
00000000
00000000
00000000
00000000
ENDCHAR
STARTCHAR 2228
ENCODING 8744
SWIDTH 225 0
DWIDTH 32 0
BBX 32 32 0 -2
BITMAP
00000000
00000000
00000000
00038000
0c07c060
0e07c0e0
0707c1c0
03838380
01c00700
00e00e00
00701c00
00383800
001c7000
0e0ee0e0
1f07c1f0
1f0381f0
1f07c1f0
0e0ee0e0
001c7000
00383800
00701c00
00e00e00
01c00700
03838380
0707c1c0
0e07c0e0
1c07c070
18038030
00000000
00000000
00000000
00000000
ENDCHAR
STARTCHAR 2229
ENCODING 8745
SWIDTH 225 0
DWIDTH 32 0
BBX 32 32 0 -2
BITMAP
00000000
00000000
00000000
07ffffe0
07ffffe0
07ffffe0
00000000
00000000
00000000
00000000
00000000
07ffffe0
07ffffe0
07ffffe0
0003c000
0003c000
0003c000
0003c000
0003c000
0003c000
0003c000
0003c000
0003c000
0003c000
0003c000
0003c000
0003c000
0003c000
0003c000
00000000
00000000
00000000
ENDCHAR
STARTCHAR 222a
ENCODING 8746
SWIDTH 225 0
DWIDTH 32 0
BBX 32 32 0 -2
BITMAP
00000000
00000000
00000000
00000000
00000000
00000000
00000000
00000000
00000000
00000180
000000c0
00000060
00000070
00000038
3ffffffc
3ffffffc
00000038
00000070
00000060
000000c0
00000180
00000000
00000000
00000000
00000000
00000000
00000000
00000000
00000000
00000000
00000000
00000000
ENDCHAR
STARTCHAR 222b
ENCODING 8747
SWIDTH 225 0
DWIDTH 32 0
BBX 32 32 0 -2
BITMAP
00000000
00000000
00000000
00000000
00000000
00000000
00000000
00000000
00000000
01800000
03000000
06000000
0e000000
1c000000
3ffffffc
3ffffffc
1c000000
0e000000
06000000
03000000
01800000
00000000
00000000
00000000
00000000
00000000
00000000
00000000
00000000
00000000
00000000
00000000
ENDCHAR
STARTCHAR 222c
ENCODING 8748
SWIDTH 225 0
DWIDTH 32 0
BBX 32 32 0 -2
BITMAP
00000000
00000000
00018000
0003c000
0007e000
000ff000
001db800
00318c00
00218400
00018000
00018000
00018000
00018000
00018000
00018000
00018000
00018000
00018000
00018000
00018000
00018000
00018000
00018000
00018000
00018000
00018000
00018000
00018000
00018000
00018000
00000000
00000000
ENDCHAR
STARTCHAR 222d
ENCODING 8749
SWIDTH 225 0
DWIDTH 32 0
BBX 32 32 0 -2
BITMAP
00000000
00000000
00018000
00018000
00018000
00018000
00018000
00018000
00018000
00018000
00018000
00018000
00018000
00018000
00018000
00018000
00018000
00018000
00018000
00018000
00018000
00018000
00018000
00218400
00318c00
001db800
000ff000
0007e000
0003c000
00018000
00000000
00000000
ENDCHAR
STARTCHAR 222e
ENCODING 8750
SWIDTH 225 0
DWIDTH 32 0
BBX 32 32 0 -2
BITMAP
00000000
00000000
00000000
00000000
00000000
00000000
00000000
00000000
00000000
00000000
07ffffe0
07ffffe0
07ffffe0
07ffffe0
00000000
00000000
00000000
00000000
07ffffe0
07ffffe0
07ffffe0
07ffffe0
00000000
00000000
00000000
00000000
00000000
00000000
00000000
00000000
00000000
00000000
ENDCHAR
STARTCHAR 222f
ENCODING 8751
SWIDTH 225 0
DWIDTH 32 0
BBX 32 32 0 -2
BITMAP
00000000
00000000
00000000
00000000
00000000
00000000
00000000
00000000
00000000
00000000
00000000
00000000
00000000
00000000
00000000
00000000
00000000
00000000
00000000
00000000
00000000
00000000
00000000
00000000
00000000
00000000
00000000
00000000
00000000
00000000
00000000
00000000
ENDCHAR
STARTCHAR 2230
ENCODING 8752
SWIDTH 225 0
DWIDTH 32 0
BBX 32 32 0 -2
BITMAP
00000000
00000000
00000000
00000000
00000000
00000000
00000000
00000000
00000000
00000000
00000000
00000000
00000000
00000000
00000000
00000000
00000000
00000000
00000000
00000000
00000000
00000000
00000000
00000000
00000000
00000000
00000000
00000000
00000000
00000000
00000000
00000000
ENDCHAR
STARTCHAR 2231
ENCODING 8753
SWIDTH 225 0
DWIDTH 32 0
BBX 32 32 0 -2
BITMAP
00000000
00000000
00000000
00000000
00000000
00000000
00000000
00000000
00000000
00000000
00000000
00000000
00000000
00000000
00000000
00000000
00000000
00000000
00000000
00000000
00000000
00000000
00000000
00000000
00000000
00000000
00000000
00000000
00000000
00000000
00000000
00000000
ENDCHAR
STARTCHAR 2232
ENCODING 8754
SWIDTH 225 0
DWIDTH 32 0
BBX 32 32 0 -2
BITMAP
00000000
00000000
00000000
00000000
00000000
00000000
00000000
00000000
00000000
00000000
00000000
00000000
00000000
00000000
00000000
00000000
00000000
00000000
00000000
00000000
00000000
00000000
00000000
00000000
00000000
00000000
00000000
00000000
00000000
00000000
00000000
00000000
ENDCHAR
STARTCHAR 2233
ENCODING 8755
SWIDTH 225 0
DWIDTH 32 0
BBX 32 32 0 -2
BITMAP
00000000
00000000
00000000
00000000
00000000
00000000
00000000
00000000
00000000
00000000
00000000
00000000
00000000
00000000
00000000
00000000
00000000
00000000
00000000
00000000
00000000
00000000
00000000
00000000
00000000
00000000
00000000
00000000
00000000
00000000
00000000
00000000
ENDCHAR
STARTCHAR 2234
ENCODING 8756
SWIDTH 225 0
DWIDTH 32 0
BBX 32 32 0 -2
BITMAP
00000000
00000000
00000000
00000000
00000000
00000000
00000000
00000000
00000000
00000000
00000000
00000000
00000000
00000000
00000000
00000000
00000000
00000000
00000000
00000000
00000000
00000000
00000000
00000000
00000000
00000000
00000000
00000000
00000000
00000000
00000000
00000000
ENDCHAR
STARTCHAR 2235
ENCODING 8757
SWIDTH 225 0
DWIDTH 32 0
BBX 32 32 0 -2
BITMAP
00000000
00000000
00000000
00000000
00000000
00000000
00000000
00000000
00000000
00000000
00000000
00000000
00000000
00000000
00000000
00000000
00000000
00000000
00000000
00000000
00000000
00000000
00000000
00000000
00000000
00000000
00000000
00000000
00000000
00000000
00000000
00000000
ENDCHAR
STARTCHAR 2236
ENCODING 8758
SWIDTH 225 0
DWIDTH 32 0
BBX 32 32 0 -2
BITMAP
00000000
00000000
00000000
00000000
00000000
00000000
00000000
00000000
00000000
00000000
00000000
00000000
00000000
00000000
00000000
00000000
00000000
00000000
00000000
00000000
00000000
00000000
00000000
00000000
00000000
00000000
00000000
00000000
00000000
00000000
00000000
00000000
ENDCHAR
STARTCHAR 2237
ENCODING 8759
SWIDTH 225 0
DWIDTH 32 0
BBX 32 32 0 -2
BITMAP
00000000
00000000
00000000
00000000
00000000
00000000
00000000
00000000
00000000
00000000
00000000
00000000
00000000
00000000
00000000
00000000
00000000
00000000
00000000
00000000
00000000
00000000
00000000
00000000
00000000
00000000
00000000
00000000
00000000
00000000
00000000
00000000
ENDCHAR
STARTCHAR 2238
ENCODING 8760
SWIDTH 225 0
DWIDTH 32 0
BBX 32 32 0 -2
BITMAP
00000000
00000000
00000000
00000000
00000000
00000000
00000000
00000000
00000000
00000000
00000000
00000000
00000000
00000000
00000000
00000000
00000000
00000000
00000000
00000000
00000000
00000000
00000000
00000000
00000000
00000000
00000000
00000000
00000000
00000000
00000000
00000000
ENDCHAR
STARTCHAR 2239
ENCODING 8761
SWIDTH 225 0
DWIDTH 32 0
BBX 32 32 0 -2
BITMAP
00000000
00000000
00000000
00000000
00000000
00000000
00000000
00000000
00000000
00000000
00000000
00000000
00000000
00000000
00000000
00000000
00000000
00000000
00000000
00000000
00000000
00000000
00000000
00000000
00000000
00000000
00000000
00000000
00000000
00000000
00000000
00000000
ENDCHAR
STARTCHAR 223a
ENCODING 8762
SWIDTH 225 0
DWIDTH 32 0
BBX 32 32 0 -2
BITMAP
00000000
00000000
00000000
00000000
003ffffc
00fffffc
03e00000
07800000
0e000000
0c000000
18000000
18000000
38000000
30000000
30000000
3ffffffc
3ffffffc
30000000
30000000
38000000
18000000
18000000
0c000000
0e000000
07800000
03e00000
00fffffc
003ffffc
00000000
00000000
00000000
00000000
ENDCHAR
STARTCHAR 223b
ENCODING 8763
SWIDTH 225 0
DWIDTH 32 0
BBX 32 32 0 -2
BITMAP
00000000
00000000
00000000
00000000
3ffffc00
3fffff00
000007c0
000001e0
00000070
00000030
00000018
00000018
0000001c
0000000c
0000000c
3ffffffc
3ffffffc
0000000c
0000000c
0000001c
00000018
00000018
00000030
00000070
000001e0
000007c0
3fffff00
3ffffc00
00000000
00000000
00000000
00000000
ENDCHAR
STARTCHAR 223c
ENCODING 8764
SWIDTH 225 0
DWIDTH 32 0
BBX 32 32 0 -2
BITMAP
00000000
00000000
00000000
007ffffc
01fffffc
07c00000
0f000000
0c000000
1c000000
18000000
38000000
30000000
30000000
30000000
38000000
18000000
1c000000
0c000000
0f000000
07c00000
01fffffc
007ffffc
00000000
00000000
00000000
00000000
3ffffffc
3ffffffc
00000000
00000000
00000000
00000000
ENDCHAR
STARTCHAR 223d
ENCODING 8765
SWIDTH 225 0
DWIDTH 32 0
BBX 32 32 0 -2
BITMAP
00000000
00000000
00000000
3ffffe00
3fffff80
000003e0
000000f0
00000030
00000038
00000018
0000001c
0000000c
0000000c
0000000c
0000001c
00000018
00000038
00000030
000000f0
000003e0
3fffff80
3ffffe00
00000000
00000000
00000000
00000000
3ffffffc
3ffffffc
00000000
00000000
00000000
00000000
ENDCHAR
STARTCHAR 223e
ENCODING 8766
SWIDTH 225 0
DWIDTH 32 0
BBX 32 32 0 -2
BITMAP
00000000
00000000
00000000
00000000
00000000
007ffffc
01fffffc
07c00000
0f000000
0c000000
1c000000
18000000
38000000
30000000
30000000
30000000
30000000
30000000
30000000
38000000
18000000
1c000000
0c000000
0f000000
07c00000
01fffffc
007ffffc
00000000
00000000
00000000
00000000
00000000
ENDCHAR
STARTCHAR 223f
ENCODING 8767
SWIDTH 225 0
DWIDTH 32 0
BBX 32 32 0 -2
BITMAP
00000000
00000000
00000000
00000000
00000000
3ffffe00
3fffff80
000003e0
000000f0
00000030
00000038
00000018
0000001c
0000000c
0000000c
0000000c
0000000c
0000000c
0000000c
0000001c
00000018
00000038
00000030
000000f0
000003e0
3fffff80
3ffffe00
00000000
00000000
00000000
00000000
00000000
ENDCHAR
STARTCHAR 2240
ENCODING 8768
SWIDTH 225 0
DWIDTH 32 0
BBX 32 32 0 -2
BITMAP
00000000
00000000
06000060
06000060
06000060
06000060
06000060
06000060
06000060
06000060
06000060
06000060
06000060
06000060
06000060
06000060
06000060
06000060
06000060
06000060
06000060
06000060
070000e0
030000c0
038001c0
01800180
01e00780
00f81f00
003ffc00
000ff000
00000000
00000000
ENDCHAR
STARTCHAR 2241
ENCODING 8769
SWIDTH 225 0
DWIDTH 32 0
BBX 32 32 0 -2
BITMAP
00000000
00000000
000ff000
003ffc00
00f81f00
01e00780
01800180
038001c0
030000c0
070000e0
06000060
06000060
06000060
06000060
06000060
06000060
06000060
06000060
06000060
06000060
06000060
06000060
06000060
06000060
06000060
06000060
06000060
06000060
06000060
06000060
00000000
00000000
ENDCHAR
STARTCHAR 2242
ENCODING 8770
SWIDTH 225 0
DWIDTH 32 0
BBX 32 32 0 -2
BITMAP
00000000
00000000
00000000
00000000
00000000
00000000
00000000
00000000
00000000
00000000
00000000
00000000
00000000
00000000
00000000
00000000
00000000
00000000
00000000
00000000
00000000
00000000
00000000
00000000
00000000
00000000
00000000
00000000
00000000
00000000
00000000
00000000
ENDCHAR
STARTCHAR 2243
ENCODING 8771
SWIDTH 225 0
DWIDTH 32 0
BBX 32 32 0 -2
BITMAP
00000000
00000000
00000000
00000000
00000000
00000000
00000000
00000000
00000000
00000000
00000000
00000000
00000000
00000000
00000000
00000000
00000000
00000000
00000000
00000000
00000000
00000000
00000000
00000000
00000000
00000000
00000000
00000000
00000000
00000000
00000000
00000000
ENDCHAR
STARTCHAR 2244
ENCODING 8772
SWIDTH 225 0
DWIDTH 32 0
BBX 32 32 0 -2
BITMAP
00000000
00000000
00000000
00000000
00000000
00000000
00000000
00000000
00000000
00000000
00000000
00000000
00000000
00000000
00000000
00000000
00000000
00000000
00000000
00000000
00000000
00000000
00000000
00000000
00000000
00000000
00000000
00000000
00000000
00000000
00000000
00000000
ENDCHAR
STARTCHAR 2245
ENCODING 8773
SWIDTH 225 0
DWIDTH 32 0
BBX 32 32 0 -2
BITMAP
00000000
00000000
00000000
00000000
00000000
00000000
00000000
00000000
00000000
00000000
00000000
00000000
00000000
00000000
00000000
00000000
00000000
00000000
00000000
00000000
00000000
00000000
00000000
00000000
00000000
00000000
00000000
00000000
00000000
00000000
00000000
00000000
ENDCHAR
STARTCHAR 2246
ENCODING 8774
SWIDTH 225 0
DWIDTH 32 0
BBX 32 32 0 -2
BITMAP
00000000
00000000
00000000
00000000
00000000
00000000
00000000
00000000
00000000
00000000
00000000
00000000
00000000
00000000
00000000
00000000
00000000
00000000
00000000
00000000
00000000
00000000
00000000
00000000
00000000
00000000
00000000
00000000
00000000
00000000
00000000
00000000
ENDCHAR
STARTCHAR 2247
ENCODING 8775
SWIDTH 225 0
DWIDTH 32 0
BBX 32 32 0 -2
BITMAP
00000000
00000000
00000000
00000000
00000000
00000000
00000000
00000000
00000000
00000000
00000000
00000000
00000000
00000000
00000000
00000000
00000000
00000000
00000000
00000000
00000000
00000000
00000000
00000000
00000000
00000000
00000000
00000000
00000000
00000000
00000000
00000000
ENDCHAR
STARTCHAR 2248
ENCODING 8776
SWIDTH 225 0
DWIDTH 32 0
BBX 32 32 0 -2
BITMAP
00000000
00000000
00000000
00000000
00000000
00000000
00000000
00000000
00000000
00000000
00000000
00000000
00000000
00000000
00000000
00000000
00000000
00000000
00000000
00000000
00000000
00000000
00000000
00000000
00000000
00000000
00000000
00000000
00000000
00000000
00000000
00000000
ENDCHAR
STARTCHAR 2249
ENCODING 8777
SWIDTH 225 0
DWIDTH 32 0
BBX 32 32 0 -2
BITMAP
00000000
00000000
00000000
00000000
00000000
00000000
00000000
00000000
00000000
00000000
00000000
00000000
00000000
00000000
00000000
00000000
00000000
00000000
00000000
00000000
00000000
00000000
00000000
00000000
00000000
00000000
00000000
00000000
00000000
00000000
00000000
00000000
ENDCHAR
STARTCHAR 224a
ENCODING 8778
SWIDTH 225 0
DWIDTH 32 0
BBX 32 32 0 -2
BITMAP
00000000
00000000
00018000
0003c000
0003c000
00066000
00066000
000c3000
000c3000
00181800
00181800
00300c00
00300c00
00600600
00600600
00c00300
00c00300
01800180
01800180
030000c0
030000c0
06000060
06000060
0c000030
0c000030
18000018
18000018
3000000c
3000000c
00000000
00000000
00000000
ENDCHAR
STARTCHAR 224b
ENCODING 8779
SWIDTH 225 0
DWIDTH 32 0
BBX 32 32 0 -2
BITMAP
00000000
00000000
00000000
3000000c
3000000c
18000018
18000018
0c000030
0c000030
06000060
06000060
030000c0
030000c0
01800180
01800180
00c00300
00c00300
00600600
00600600
00300c00
00300c00
00181800
00181800
000c3000
000c3000
00066000
00066000
0003c000
0003c000
00018000
00000000
00000000
ENDCHAR
STARTCHAR 224c
ENCODING 8780
SWIDTH 225 0
DWIDTH 32 0
BBX 32 32 0 -2
BITMAP
00000000
00000000
00000000
00000000
00000000
00000000
00000000
00000000
00000000
00000000
00000000
00000000
00000000
00000000
00000000
00000000
00000000
3ffffffe
3ffffffe
00000006
00000006
00000006
00000006
00000006
00000006
00000006
00000006
00000006
00000006
00000006
00000006
00000000
ENDCHAR
STARTCHAR 224d
ENCODING 8781
SWIDTH 225 0
DWIDTH 32 0
BBX 32 32 0 -2
BITMAP
00000000
00000000
00000000
00000000
00000000
00000000
00000000
00000600
00000300
00000180
000000c0
00000060
7ffffff0
7ffffff8
0000000c
00000006
00000006
0000000c
7ffffff8
7ffffff0
00000060
000000c0
00000180
00000300
00000600
00000000
00000000
00000000
00000000
00000000
00000000
00000000
ENDCHAR
STARTCHAR 224e
ENCODING 8782
SWIDTH 225 0
DWIDTH 32 0
BBX 32 32 0 -2
BITMAP
00000000
00000000
00000000
00000000
00000000
00000000
00000000
00400200
00c00300
01800180
030000c0
06000060
0ffffff0
1ffffff8
3000000c
60000006
60000006
3000000c
1ffffff8
0ffffff0
06000060
030000c0
01800180
00c00300
00400200
00000000
00000000
00000000
00000000
00000000
00000000
00000000
ENDCHAR
STARTCHAR 224f
ENCODING 8783
SWIDTH 225 0
DWIDTH 32 0
BBX 32 32 0 -2
BITMAP
00000000
00000000
3000000c
3000000c
18000018
18000018
0c000030
0c000030
06000060
06000060
03ffffc0
03ffffc0
01800180
01800180
00c00300
00c00300
00600600
00600600
00300c00
00300c00
00181800
00181800
000c3000
000c3000
00066000
00066000
0003c000
0003c000
00018000
00018000
00000000
00000000
ENDCHAR
STARTCHAR 2250
ENCODING 8784
SWIDTH 225 0
DWIDTH 32 0
BBX 32 32 0 -2
BITMAP
00000000
00000000
00000000
00000000
03ffffc0
03ffffc0
000000c0
000000c0
000000c0
000000c0
000000c0
000000c0
000000c0
000000c0
000000c0
03ffffc0
03ffffc0
000000c0
000000c0
000000c0
000000c0
000000c0
000000c0
000000c0
000000c0
000000c0
03ffffc0
03ffffc0
00000000
00000000
00000000
00000000
ENDCHAR
STARTCHAR 2251
ENCODING 8785
SWIDTH 225 0
DWIDTH 32 0
BBX 32 32 0 -2
BITMAP
00000000
00000000
00000000
00000000
00000000
00000000
00000000
00000000
00000000
00000000
00000000
00000000
00000000
00000000
00000000
00000000
00000000
00000000
00000000
00000000
00000000
00000000
00000000
00000000
00000000
00000000
00000000
00000000
00000000
00000000
00000000
00000000
ENDCHAR
STARTCHAR 2252
ENCODING 8786
SWIDTH 225 0
DWIDTH 32 0
BBX 32 32 0 -2
BITMAP
00000000
00000000
00000000
00000000
00000000
00000000
00000000
00000000
00000000
00000000
00000000
00000000
00000000
00000000
00000000
00000000
00000000
00000000
00000000
00000000
00000000
00000000
00000000
00000000
00000000
00000000
00000000
00000000
00000000
00000000
00000000
00000000
ENDCHAR
STARTCHAR 2253
ENCODING 8787
SWIDTH 225 0
DWIDTH 32 0
BBX 32 32 0 -2
BITMAP
00000000
00000000
00000000
00000000
00000000
00000000
00000000
00000000
00000000
00000000
00000000
00000000
00000000
00000000
00000000
00000000
00000000
00000000
00000000
00000000
00000000
00000000
00000000
00000000
00000000
00000000
00000000
00000000
00000000
00000000
00000000
00000000
ENDCHAR
STARTCHAR 2254
ENCODING 8788
SWIDTH 225 0
DWIDTH 32 0
BBX 32 32 0 -2
BITMAP
00000000
00000000
00000000
00000000
00000000
00000000
00000000
00000000
00000000
00000000
00000000
00000000
00000000
00000000
00000000
00000000
00000000
00000000
00000000
00000000
00000000
00000000
00000000
00000000
00000000
00000000
00000000
00000000
00000000
00000000
00000000
00000000
ENDCHAR
STARTCHAR 2255
ENCODING 8789
SWIDTH 225 0
DWIDTH 32 0
BBX 32 32 0 -2
BITMAP
00000000
00000000
00000000
00000000
00000000
00000000
00000000
00000000
00000000
00000000
00000000
00000000
00000000
00000000
00000000
00000000
00000000
00000000
00000000
00000000
00000000
00000000
00000000
00000000
00000000
00000000
00000000
00000000
00000000
00000000
00000000
00000000
ENDCHAR
STARTCHAR 2256
ENCODING 8790
SWIDTH 225 0
DWIDTH 32 0
BBX 32 32 0 -2
BITMAP
00000000
00000000
00000000
00000000
00000000
00000000
00000000
00000000
00000000
00000000
00000000
00000000
00000000
00000000
00000000
00000000
00000000
00000000
00000000
00000000
00000000
00000000
00000000
00000000
00000000
00000000
00000000
00000000
00000000
00000000
00000000
00000000
ENDCHAR
STARTCHAR 2257
ENCODING 8791
SWIDTH 225 0
DWIDTH 32 0
BBX 32 32 0 -2
BITMAP
00000000
00000000
00000000
00000000
00000000
00000000
00000000
00000000
00000000
00000000
00000000
00000000
00000000
00000000
00000000
00000000
00000000
00000000
00000000
00000000
00000000
00000000
00000000
00000000
00000000
00000000
00000000
00000000
00000000
00000000
00000000
00000000
ENDCHAR
STARTCHAR 2258
ENCODING 8792
SWIDTH 225 0
DWIDTH 32 0
BBX 32 32 0 -2
BITMAP
00000000
00000000
00000000
00000000
00000000
00000000
00000000
00000000
00000000
00000000
00000000
00000000
00000000
00000000
00000000
00000000
00000000
00000000
00000000
00000000
00000000
00000000
00000000
00000000
00000000
00000000
00000000
00000000
00000000
00000000
00000000
00000000
ENDCHAR
STARTCHAR 2259
ENCODING 8793
SWIDTH 225 0
DWIDTH 32 0
BBX 32 32 0 -2
BITMAP
00000000
00000000
00000000
00000000
00000000
00000000
00000000
00000000
00000000
00000000
00000000
00000000
00000000
00000000
00000000
00000000
00000000
00000000
00000000
00000000
00000000
00000000
00000000
00000000
00000000
00000000
00000000
00000000
00000000
00000000
00000000
00000000
ENDCHAR
STARTCHAR 225a
ENCODING 8794
SWIDTH 225 0
DWIDTH 32 0
BBX 32 32 0 -2
BITMAP
00000000
00000000
00000000
00000000
00000000
00000000
00000000
00000000
00000000
00000000
00000000
00000000
00000000
00000000
00000000
00000000
00000000
00000000
00000000
00000000
00000000
00000000
00000000
00000000
00000000
00000000
00000000
00000000
00000000
00000000
00000000
00000000
ENDCHAR
STARTCHAR 225b
ENCODING 8795
SWIDTH 225 0
DWIDTH 32 0
BBX 32 32 0 -2
BITMAP
00000000
00000000
00000000
00000000
00000000
00000000
00000000
00000000
00000000
00000000
00000000
00000000
00000000
00000000
00000000
00000000
00000000
00000000
00000000
00000000
00000000
00000000
00000000
00000000
00000000
00000000
00000000
00000000
00000000
00000000
00000000
00000000
ENDCHAR
STARTCHAR 225c
ENCODING 8796
SWIDTH 225 0
DWIDTH 32 0
BBX 32 32 0 -2
BITMAP
00000000
00000000
00000000
00000018
00000038
00000070
000000e0
000001c0
00000380
00000700
00000e00
00001c00
00003800
00007000
0000e000
0001c000
00038000
00070000
000e0000
001c0000
00380000
00700000
00e00000
01c00000
03800000
07000000
0c000000
1ffffff8
3ffffff8
00000000
00000000
00000000
ENDCHAR
STARTCHAR 225d
ENCODING 8797
SWIDTH 225 0
DWIDTH 32 0
BBX 32 32 0 -2
BITMAP
00000000
00000000
00018000
00018000
00018000
00018000
00018000
00018000
00018000
00018000
00018000
00018000
00018000
00018000
00018000
00018000
00018000
00018000
00018000
00018000
00018000
00018000
00018000
00018000
00018000
00018000
00018000
1ffffff8
1ffffff8
00000000
00000000
00000000
ENDCHAR
STARTCHAR 225e
ENCODING 8798
SWIDTH 225 0
DWIDTH 32 0
BBX 32 32 0 -2
BITMAP
00000000
00000000
00000000
000ff000
007ffe00
01f81f80
03c003c0
070000e0
0e000070
1c000038
18000018
3800001c
3000000c
3000000c
00000000
00000000
00000000
00000000
00000000
00000000
00000000
00000000
00000000
00000000
00000000
00000000
00000000
00000000
00000000
00000000
00000000
00000000
ENDCHAR
STARTCHAR 225f
ENCODING 8799
SWIDTH 225 0
DWIDTH 32 0
BBX 32 32 0 -2
BITMAP
00000000
00000000
0001e000
00073800
000c1800
00180c00
00100c00
00300e00
00200600
00000600
00000600
00000600
00000600
0003c600
000e7600
00181600
00301e00
00700e00
00600e00
00600e00
00c00c00
00c00c00
00c01c00
00c01800
00c03800
00c03000
00607000
0060e000
0031c000
001f0000
00000000
00000000
ENDCHAR
STARTCHAR 2260
ENCODING 8800
SWIDTH 225 0
DWIDTH 32 0
BBX 32 32 0 -2
BITMAP
00000000
00000000
00000000
3ffffffc
1ffffff8
18000018
0c000010
0e000030
06000020
07000060
03000040
038000c0
01800080
01c00180
00c00100
00e00300
00600200
00700600
00300400
00380c00
00180800
001c1800
000c1000
000e3000
00062000
00076000
0003c000
0003c000
00018000
00018000
00000000
00000000
ENDCHAR
STARTCHAR 2261
ENCODING 8801
SWIDTH 225 0
DWIDTH 32 0
BBX 32 32 0 -2
BITMAP
00000000
00000000
00000000
00000000
00000000
00000000
00000000
00000000
0ffffff0
0ffffff0
00000000
00000000
00000000
00000000
00000000
0ffffff0
0ffffff0
00000000
00000000
00000000
00000000
00000000
0ffffff0
0ffffff0
00000000
00000000
00000000
00000000
00000000
00000000
00000000
00000000
ENDCHAR
STARTCHAR 2262
ENCODING 8802
SWIDTH 225 0
DWIDTH 32 0
BBX 32 32 0 -2
BITMAP
00000000
00000000
00000000
00000000
00600000
00f00000
00f00000
00600000
00000000
00000000
00000000
0ffffff0
0ffffff0
00000000
00000000
00000000
00000000
00000000
0ffffff0
0ffffff0
00000000
00000000
00000000
00000600
00000f00
00000f00
00000600
00000000
00000000
00000000
00000000
00000000
ENDCHAR
STARTCHAR 2263
ENCODING 8803
SWIDTH 225 0
DWIDTH 32 0
BBX 32 32 0 -2
BITMAP
00000000
00000000
0000030c
00000e38
00001860
000071c0
0000c300
00038e00
00061800
001c7000
0030c000
00e38000
01860000
071c0000
0c300000
38e00000
38e00000
0c300000
071c0000
01860000
00e38000
0030c000
001c7000
00061800
00038e00
0000c300
000071c0
00001860
00000e38
0000030c
00000000
00000000
ENDCHAR
STARTCHAR 2264
ENCODING 8804
SWIDTH 225 0
DWIDTH 32 0
BBX 32 32 0 -2
BITMAP
00000000
00000000
30c00000
1c700000
06180000
038e0000
00c30000
0071c000
00186000
000e3800
00030c00
0001c700
00006180
000038e0
00000c30
0000071c
0000071c
00000c30
000038e0
00006180
0001c700
00030c00
000e3800
00186000
0071c000
00c30000
038e0000
06180000
1c700000
30c00000
00000000
00000000
ENDCHAR
STARTCHAR 2265
ENCODING 8805
SWIDTH 225 0
DWIDTH 32 0
BBX 32 32 0 -2
BITMAP
00000000
0000ffff
00008000
00018000
00010000
00010000
00030000
00020000
00020000
00060000
00040000
00040000
000c0000
00080000
00080000
08180000
08100000
18100000
3c300000
2c200000
6c200000
4e600000
06400000
06400000
06c00000
07800000
03800000
03800000
03000000
01000000
01000000
00000000
ENDCHAR
STARTCHAR 2266
ENCODING 8806
SWIDTH 225 0
DWIDTH 32 0
BBX 32 32 0 -2
BITMAP
00000000
00000000
00000000
00000000
00000000
00000000
00000000
00000000
00000000
00000000
03e00fc0
0ff03ff0
1e307878
1800e018
3801c01c
3001800c
3003800c
3803001c
18070018
1e1e0c78
0ffc0ff0
03f007c0
00000000
00000000
00000000
00000000
00000000
00000000
00000000
00000000
00000000
00000000
ENDCHAR
STARTCHAR 2267
ENCODING 8807
SWIDTH 225 0
DWIDTH 32 0
BBX 32 32 0 -2
BITMAP
00000000
00000000
00000000
00000000
00000000
00000000
00000000
00000000
00000000
00000000
03f001f8
0ffc07fc
1e1e0f0c
18071c00
3803b800
3001f000
3001f000
3803b800
18071c00
1e1e0f0c
0ffc07fc
03f001f8
00000000
00000000
00000000
00000000
00000000
00000000
00000000
00000000
00000000
00000000
ENDCHAR
STARTCHAR 2268
ENCODING 8808
SWIDTH 225 0
DWIDTH 32 0
BBX 32 32 0 -2
BITMAP
00000000
00000000
00000000
00000000
00000000
00000000
00000000
01c00700
03e00f80
03e00f80
03e00f80
01c00700
00000000
00000000
00000000
00000000
00000000
00000000
00000000
00038000
0007c000
0007c000
0007c000
00038000
00000000
00000000
00000000
00000000
00000000
00000000
00000000
00000000
ENDCHAR
STARTCHAR 2269
ENCODING 8809
SWIDTH 225 0
DWIDTH 32 0
BBX 32 32 0 -2
BITMAP
00000000
00000000
00003c00
00006600
0000c300
0000c700
00008600
00018000
00018000
00018000
00018000
00018000
00038000
00038000
00038000
00038000
00038000
00038000
00038000
00038000
00030000
00030000
00030000
00030000
00c30000
00c20000
01860000
01860000
00cc0000
00780000
00000000
00000000
ENDCHAR
STARTCHAR 226a
ENCODING 8810
SWIDTH 225 0
DWIDTH 32 0
BBX 32 32 0 -2
BITMAP
00000000
00000000
000780f0
000cc198
0018630c
0018e31c
0010c218
00300600
00300600
00300600
00300600
00700e00
00700e00
00700e00
00700e00
00700e00
00700e00
00700e00
00700e00
00700e00
00600c00
00600c00
00600c00
00600c00
18630c00
18430800
30c61800
30c61800
19833000
0f01e000
00000000
00000000
ENDCHAR
STARTCHAR 226b
ENCODING 8811
SWIDTH 225 0
DWIDTH 32 0
BBX 32 32 0 -2
BITMAP
00000000
00000000
00000000
00000000
00000000
00000000
00000000
00000000
00000000
00000000
00000000
00000000
00000000
00000000
00000000
00000000
00000000
00000000
00000000
00000000
00000000
00000000
00000000
00000000
00000000
00000000
00000000
00000000
00000000
00000000
00000000
00000000
ENDCHAR
STARTCHAR 226c
ENCODING 8812
SWIDTH 225 0
DWIDTH 32 0
BBX 32 32 0 -2
BITMAP
00000000
00000000
00000000
00000000
00000000
00000000
00000000
00000000
00000000
00000000
00000000
00000000
00000000
00000000
00000000
00000000
00000000
00000000
00000000
00000000
00000000
00000000
00000000
00000000
00000000
00000000
00000000
00000000
00000000
00000000
00000000
00000000
ENDCHAR
STARTCHAR 226d
ENCODING 8813
SWIDTH 225 0
DWIDTH 32 0
BBX 32 32 0 -2
BITMAP
00000000
00000000
00000000
00000000
00000000
00000000
00000000
00000000
00000000
00000000
00000000
00000000
00000000
00000000
00000000
00000000
00000000
00000000
00000000
00000000
00000000
00000000
00000000
00000000
00000000
00000000
00000000
00000000
00000000
00000000
00000000
00000000
ENDCHAR
STARTCHAR 226e
ENCODING 8814
SWIDTH 225 0
DWIDTH 32 0
BBX 32 32 0 -2
BITMAP
00000000
00000000
00000000
00000000
00000000
00000000
00000000
00000000
00000000
00000000
00000000
00000000
00000000
00000000
00000000
00000000
00000000
00000000
00000000
00000000
00000000
00000000
00000000
00000000
00000000
00000000
00000000
00000000
00000000
00000000
00000000
00000000
ENDCHAR
STARTCHAR 226f
ENCODING 8815
SWIDTH 225 0
DWIDTH 32 0
BBX 32 32 0 -2
BITMAP
00000000
00000000
00000000
00000000
00000000
00000000
00000000
00000000
00000000
00000000
00000000
00000000
00000000
00000000
00000000
00000000
00000000
00000000
00000000
00000000
00000000
00000000
00000000
00000000
00000000
00000000
00000000
00000000
00000000
00000000
00000000
00000000
ENDCHAR
STARTCHAR 2270
ENCODING 8816
SWIDTH 225 0
DWIDTH 32 0
BBX 32 32 0 -2
BITMAP
00000000
00000000
00000000
00000000
00000000
00000000
00000000
00000000
00000000
00000000
00000000
00000000
00000000
00000000
00000000
00000000
00000000
00000000
00000000
00000000
00000000
00000000
00000000
00000000
00000000
00000000
00000000
00000000
00000000
00000000
00000000
00000000
ENDCHAR
STARTCHAR 2271
ENCODING 8817
SWIDTH 225 0
DWIDTH 32 0
BBX 32 32 0 -2
BITMAP
00000000
00000000
00000000
00000000
00000000
00000000
00000000
00000000
00000000
00000000
00000000
00000000
00000000
00000000
00000000
00000000
00000000
00000000
00000000
00000000
00000000
00000000
00000000
00000000
00000000
00000000
00000000
00000000
00000000
00000000
00000000
00000000
ENDCHAR
STARTCHAR 2272
ENCODING 8818
SWIDTH 225 0
DWIDTH 32 0
BBX 32 32 0 -2
BITMAP
00000000
0003c000
00066000
00042000
00042000
00066000
0003c000
00018000
0003c000
0002c000
0006e000
00046000
000c7000
00083000
00083800
00181800
00101c00
00300c00
003ffe00
00600600
00400700
00c00300
00800380
01800180
010001c0
038003e0
1ff00ff8
00000000
00000000
00000000
00000000
00000000
ENDCHAR
STARTCHAR 2273
ENCODING 8819
SWIDTH 225 0
DWIDTH 32 0
BBX 32 32 0 -2
BITMAP
00000000
00006000
00006000
1e00c000
3300c000
21018000
61818000
61830000
61830000
61860000
61860000
618c0000
618c0000
21180000
33180000
1e300000
0031e078
006330cc
00621084
00c61986
00c61986
01861986
01861986
03061986
03061986
06061986
06021084
0c0330cc
0c01e078
18000000
18000000
00000000
ENDCHAR
STARTCHAR 2274
ENCODING 8820
SWIDTH 225 0
DWIDTH 32 0
BBX 32 32 0 -2
BITMAP
00000000
00000000
00081000
00081000
00081000
00081000
00081000
00081380
00081f80
0008fc00
000ff000
003f1000
01f81000
01c81000
00081000
00081000
00081000
00081380
00081f80
0008fc00
000ff000
003f1000
01f81000
01c81000
00081000
00081000
00081000
00081000
00081000
00081000
00000000
00000000
ENDCHAR
STARTCHAR 2275
ENCODING 8821
SWIDTH 225 0
DWIDTH 32 0
BBX 32 32 0 -2
BITMAP
00000000
00000000
00200000
00200000
00200000
00200000
00200000
00200000
00200000
00200000
00200000
00200000
00200000
0023e000
002e3800
00380c00
00300c00
00200e00
00200600
00200600
00200e00
00200c00
00201c00
00203800
00207000
0020e000
00238000
002e0000
00380000
00200000
00000000
00000000
ENDCHAR
STARTCHAR 2276
ENCODING 8822
SWIDTH 225 0
DWIDTH 32 0
BBX 32 32 0 -2
BITMAP
00000000
00000000
00010000
00018000
0001c000
0001f000
00017800
00013e00
00010f00
00010700
00010380
00010180
000101c0
000100c0
000100c0
00010180
00010180
00010300
00010600
00010c00
00010000
00010000
00010000
00790000
00ff0000
01fe0000
01fe0000
00fc0000
00780000
00000000
00000000
00000000
ENDCHAR
STARTCHAR 2277
ENCODING 8823
SWIDTH 225 0
DWIDTH 32 0
BBX 32 32 0 -2
BITMAP
00000000
00000000
00010000
00038000
0007c000
00038000
00038000
00010000
00210800
00793c00
00fffe00
00793c00
00210800
00010000
00038000
0007c000
00038000
00038000
00038000
00038000
00038000
00010000
00010000
00010000
00010000
00010000
00010000
00010000
00010000
00010000
00000000
00000000
ENDCHAR
STARTCHAR 2278
ENCODING 8824
SWIDTH 225 0
DWIDTH 32 0
BBX 32 32 0 -2
BITMAP
00000000
00000000
00010000
00038000
0007c000
00038000
00210800
00711c00
00fffe00
00711c00
00210800
00038000
00038000
00038000
00010000
00010000
00010000
00010000
00038000
00038000
00038000
00210800
00711c00
00fffe00
00711c00
00210800
00038000
0007c000
00038000
00010000
00000000
00000000
ENDCHAR
STARTCHAR 2279
ENCODING 8825
SWIDTH 225 0
DWIDTH 32 0
BBX 32 32 0 -2
BITMAP
00000000
00000000
00000000
003ffc00
00fc0c00
01fc0c00
03fc0c00
03fc0c00
03fc0c00
03fc0c00
03fc0c00
03fc0c00
01fc0c00
00fc0c00
003c0c00
000c0c00
000c0c00
000c0c00
000c0c00
000c0c00
000c0c00
000c0c00
000c0c00
000c0c00
000c0c00
000c0c00
000c0c00
000c0c00
00000000
00000000
00000000
00000000
ENDCHAR
STARTCHAR 227a
ENCODING 8826
SWIDTH 225 0
DWIDTH 32 0
BBX 32 32 0 -2
BITMAP
00000000
00000000
00000000
00000000
00000000
00000000
00000000
00000000
00000000
00000000
00000000
00000000
00000000
00000000
00000000
00000000
00000000
00000000
00000000
00000000
00000000
00000000
00000000
00000000
00000000
00000000
00000000
00000000
00000000
00000000
00000000
00000000
ENDCHAR
STARTCHAR 227b
ENCODING 8827
SWIDTH 225 0
DWIDTH 32 0
BBX 32 32 0 -2
BITMAP
00000000
00000000
00000000
00000000
00000000
00000000
00000000
00000000
00000000
00000000
00000000
00000000
00000000
00000000
00000000
00000000
00000000
00000000
00000000
00000000
00000000
00000000
00000000
00000000
00000000
00000000
00000000
00000000
00000000
00000000
00000000
00000000
ENDCHAR
STARTCHAR 227c
ENCODING 8828
SWIDTH 225 0
DWIDTH 32 0
BBX 32 32 0 -2
BITMAP
00000000
00000000
00000000
00000000
00000000
00000000
00000000
00000000
00000000
00000000
00000000
00000000
00000000
00000000
00000000
00000000
00000000
00000000
00000000
00000000
00000000
00000000
00000000
00000000
00000000
00000000
00000000
00000000
00000000
00000000
00000000
00000000
ENDCHAR
STARTCHAR 227d
ENCODING 8829
SWIDTH 225 0
DWIDTH 32 0
BBX 32 32 0 -2
BITMAP
00000000
00000000
00000000
00000000
00000000
00000000
00000000
00000000
00000000
00000000
00000000
00000000
00000000
00000000
00000000
00000000
00000000
00000000
00000000
00000000
00000000
00000000
00000000
00000000
00000000
00000000
00000000
00000000
00000000
00000000
00000000
00000000
ENDCHAR
STARTCHAR 227e
ENCODING 8830
SWIDTH 225 0
DWIDTH 32 0
BBX 32 32 0 -2
BITMAP
00000000
000ff000
00781e00
01c00380
030000c0
06000060
0c000030
18000018
10000008
3000000c
20000004
20000004
60000006
40000002
40000002
40000002
40000002
40000002
40000002
60000006
20000004
20000004
3000000c
10000008
18000018
0c000030
06000060
030000c0
01c00380
00781e00
000ff000
00000000
ENDCHAR
STARTCHAR 2321
ENCODING 8993
SWIDTH 225 0
DWIDTH 32 0
BBX 32 32 0 -2
BITMAP
00000000
00000000
00000000
00000000
00000000
00000000
00000000
00000000
00000000
00000000
00000000
00000000
00000000
00000000
00000000
00000000
00000000
00000000
00000000
00000000
00000000
00000000
00000000
00000000
00000000
00000000
00000000
00000000
00000000
00000000
00000000
00000000
ENDCHAR
STARTCHAR 2322
ENCODING 8994
SWIDTH 225 0
DWIDTH 32 0
BBX 32 32 0 -2
BITMAP
00000000
00000000
00000000
00000000
00000000
00000000
00000000
00000000
00000000
00000000
00000000
00000000
00000000
00000000
00000000
00000000
00000000
00000000
00000000
00000000
00000000
00000000
00000000
00000000
00000000
00000000
00000000
00000000
00000000
00000000
00000000
00000000
ENDCHAR
STARTCHAR 2323
ENCODING 8995
SWIDTH 225 0
DWIDTH 32 0
BBX 32 32 0 -2
BITMAP
00000000
00000000
00000000
00000000
00000000
00000000
00000000
00000000
00000000
00000000
00000000
00000000
00000000
00000000
00000000
00000000
00000000
00000000
00000000
00000000
00000000
00000000
00000000
00000000
00000000
00000000
00000000
00000000
00000000
00000000
00000000
00000000
ENDCHAR
STARTCHAR 2324
ENCODING 8996
SWIDTH 225 0
DWIDTH 32 0
BBX 32 32 0 -2
BITMAP
00000000
00000000
00000000
00000000
00000000
00000000
00000000
00000000
00000000
00000000
00000000
00000000
00000000
00000000
00000000
00000000
00000000
00000000
00000000
00000000
00000000
00000000
00000000
00000000
00000000
00000000
00000000
00000000
00000000
00000000
00000000
00000000
ENDCHAR
STARTCHAR 2325
ENCODING 8997
SWIDTH 225 0
DWIDTH 32 0
BBX 32 32 0 -2
BITMAP
00000000
00000000
00000000
00000000
00000000
00000000
00000000
00000000
00000000
00000000
00000000
00000000
00000000
00000000
00000000
00000000
00000000
00000000
00000000
00000000
00000000
00000000
00000000
00000000
00000000
00000000
00000000
00000000
00000000
00000000
00000000
00000000
ENDCHAR
STARTCHAR 2326
ENCODING 8998
SWIDTH 225 0
DWIDTH 32 0
BBX 32 32 0 -2
BITMAP
00000000
00000000
00000000
00000000
00000000
00000000
00000000
00000000
00000000
00000000
00000000
00000000
00000000
00000000
00000000
00000000
00000000
00000000
00000000
00000000
00000000
00000000
00000000
00000000
00000000
00000000
00000000
00000000
00000000
00000000
00000000
00000000
ENDCHAR
STARTCHAR 2327
ENCODING 8999
SWIDTH 225 0
DWIDTH 32 0
BBX 32 32 0 -2
BITMAP
00000000
00000000
00000000
00000000
00000000
00000000
00000000
00000000
00000000
00000000
00000000
00000000
00000000
00000000
00000000
00000000
00000000
00000000
00000000
00000000
00000000
00000000
00000000
00000000
00000000
00000000
00000000
00000000
00000000
00000000
00000000
00000000
ENDCHAR
STARTCHAR 2328
ENCODING 9000
SWIDTH 225 0
DWIDTH 32 0
BBX 32 32 0 -2
BITMAP
00000000
00000000
00000000
00000000
00000000
00000000
00000000
00000000
00000000
00000000
00000000
00000000
00000000
00000000
00000000
00000000
00000000
00000000
00000000
00000000
00000000
00000000
00000000
00000000
00000000
00000000
00000000
00000000
00000000
00000000
00000000
00000000
ENDCHAR
STARTCHAR 2329
ENCODING 9001
SWIDTH 225 0
DWIDTH 32 0
BBX 32 32 0 -2
BITMAP
00000000
00000000
00000000
00000000
00000000
00000000
00000000
00000000
00000000
00000000
00000000
00000000
00000000
00000000
00000000
00000000
00000000
00000000
00000000
00000000
00000000
00000000
00000000
00000000
00000000
00000000
00000000
00000000
00000000
00000000
00000000
00000000
ENDCHAR
STARTCHAR 232a
ENCODING 9002
SWIDTH 225 0
DWIDTH 32 0
BBX 32 32 0 -2
BITMAP
00000000
00000000
00000000
00000000
00000000
00000000
00000000
00000000
00000000
00000000
00000000
00000000
00000000
00000000
00000000
00000000
00000000
00000000
00000000
00000000
00000000
00000000
00000000
00000000
00000000
00000000
00000000
00000000
00000000
00000000
00000000
00000000
ENDCHAR
STARTCHAR 232b
ENCODING 9003
SWIDTH 225 0
DWIDTH 32 0
BBX 32 32 0 -2
BITMAP
00000000
00000000
00000000
00000000
00000000
00000000
00000000
00000000
00000000
00000000
00000000
00000000
00000000
00000000
00000000
00000000
00000000
00000000
00000000
00000000
00000000
00000000
00000000
00000000
00000000
00000000
00000000
00000000
00000000
00000000
00000000
00000000
ENDCHAR
STARTCHAR 232c
ENCODING 9004
SWIDTH 225 0
DWIDTH 32 0
BBX 32 32 0 -2
BITMAP
00000000
00000000
00000000
00000000
00000000
00000000
00000000
00000000
00000000
00000000
00000000
00000000
00000000
00000000
00000000
00000000
00000000
00000000
00000000
00000000
00000000
00000000
00000000
00000000
00000000
00000000
00000000
00000000
00000000
00000000
00000000
00000000
ENDCHAR
STARTCHAR 232d
ENCODING 9005
SWIDTH 225 0
DWIDTH 32 0
BBX 32 32 0 -2
BITMAP
00000000
00000000
00000000
00000000
00000000
00000000
00000000
00000000
00000000
00000000
00000000
00000000
00000000
00000000
00000000
00000000
00000000
00000000
00000000
00000000
00000000
00000000
00000000
00000000
00000000
00000000
00000000
00000000
00000000
00000000
00000000
00000000
ENDCHAR
STARTCHAR 232e
ENCODING 9006
SWIDTH 225 0
DWIDTH 32 0
BBX 32 32 0 -2
BITMAP
00000000
00000000
00000000
00000000
00000000
00000000
00000000
00000000
00000000
00000000
00000000
00000000
00000000
00000000
00000000
00000000
00000000
00000000
00000000
00000000
00000000
00000000
00000000
00000000
00000000
00000000
00000000
00000000
00000000
00000000
00000000
00000000
ENDCHAR
STARTCHAR 232f
ENCODING 9007
SWIDTH 225 0
DWIDTH 32 0
BBX 32 32 0 -2
BITMAP
00000000
00000000
00000000
00000000
00000000
00000000
00000000
00000000
00000000
00000000
00000000
00000000
00000000
00000000
00000000
00000000
00000000
00000000
00000000
00000000
00000000
00000000
00000000
00000000
00000000
00000000
00000000
00000000
00000000
00000000
00000000
00000000
ENDCHAR
STARTCHAR 2330
ENCODING 9008
SWIDTH 225 0
DWIDTH 32 0
BBX 32 32 0 -2
BITMAP
00000000
00000000
00000000
00000000
0003c000
000e7000
00181800
00300c00
00300c00
00600600
00600600
00600600
00c00300
00c00300
00c00300
00c00300
00c00300
00c00300
00c00300
00600600
00600600
00600600
00300c00
00300c00
00181800
000e7000
0003c000
00000000
00000000
00000000
00000000
00000000
ENDCHAR
STARTCHAR 2331
ENCODING 9009
SWIDTH 225 0
DWIDTH 32 0
BBX 32 32 0 -2
BITMAP
00000000
00000000
00000000
00000000
00008000
00038000
001f8000
00018000
00018000
00018000
00018000
00018000
00018000
00018000
00018000
00018000
00018000
00018000
00018000
00018000
00018000
00018000
00018000
00018000
00018000
0003c000
003ffc00
00000000
00000000
00000000
00000000
00000000
ENDCHAR
STARTCHAR 2332
ENCODING 9010
SWIDTH 225 0
DWIDTH 32 0
BBX 32 32 0 -2
BITMAP
00000000
00000000
00000000
00000000
0007e000
001c3800
00300c00
00200c00
00600600
00700600
00780600
00300e00
00000c00
00001c00
00003800
00007000
0000e000
0001c000
00038000
00060000
000c0000
00180100
00300100
00200100
00600300
007fff00
00ffff00
00000000
00000000
00000000
00000000
00000000
ENDCHAR
STARTCHAR 2333
ENCODING 9011
SWIDTH 225 0
DWIDTH 32 0
BBX 32 32 0 -2
BITMAP
00000000
00000000
00000000
00000000
0007c000
001c7000
00301800
00601c00
00700c00
00780c00
00300c00
00001c00
00001800
00007000
0007c000
00007000
00001800
00000c00
00000e00
00000600
00600600
00f00600
00e00e00
00c00e00
00601c00
00387800
000fe000
00000000
00000000
00000000
00000000
00000000
ENDCHAR
STARTCHAR 2334
ENCODING 9012
SWIDTH 225 0
DWIDTH 32 0
BBX 32 32 0 -2
BITMAP
00000000
00000000
00000000
00000000
00006000
0000e000
0001e000
00016000
00036000
00066000
00046000
000c6000
00186000
00106000
00306000
00606000
00406000
00c06000
01806000
03006000
03fffe00
00006000
00006000
00006000
00006000
0000f000
000ffe00
00000000
00000000
00000000
00000000
00000000
ENDCHAR
STARTCHAR 2335
ENCODING 9013
SWIDTH 225 0
DWIDTH 32 0
BBX 32 32 0 -2
BITMAP
00000000
00000000
00000000
00000000
003ffc00
003ffc00
00200000
00200000
00200000
00200000
00200000
00200000
0027f000
003c1c00
00300600
00200600
00000300
00000300
00000300
00000300
00300300
00780300
00780700
00300600
00300e00
001c3c00
0007f000
00000000
00000000
00000000
00000000
00000000
ENDCHAR
STARTCHAR 2336
ENCODING 9014
SWIDTH 225 0
DWIDTH 32 0
BBX 32 32 0 -2
BITMAP
00000000
00000000
00000000
00000000
0003f000
000e1c00
00180600
00180e00
00300f00
00300600
00300000
00600000
00600000
0063f000
006e3c00
00780e00
00700600
00700700
00600300
00600300
00600300
00700300
00300700
00300600
00180e00
000e3c00
0003f000
00000000
00000000
00000000
00000000
00000000
ENDCHAR
STARTCHAR 2337
ENCODING 9015
SWIDTH 225 0
DWIDTH 32 0
BBX 32 32 0 -2
BITMAP
00000000
00000000
00000000
00000000
007fff00
007fff00
00600300
00600200
00400600
00400400
00400c00
00000800
00001800
00001800
00003000
00003000
00003000
00007000
00006000
00006000
0000e000
0000c000
0000c000
0001c000
0001c000
0001c000
00008000
00000000
00000000
00000000
00000000
00000000
ENDCHAR
STARTCHAR 2338
ENCODING 9016
SWIDTH 225 0
DWIDTH 32 0
BBX 32 32 0 -2
BITMAP
00000000
00000000
00000000
00000000
0003e000
000e3800
00180c00
00180e00
00300600
00300600
00380600
00180c00
001e0c00
000fb800
0003e000
000ef800
00183c00
00300e00
00300600
00600700
00600300
00600300
00600300
00300700
00300600
001c1c00
0007f000
00000000
00000000
00000000
00000000
00000000
ENDCHAR
STARTCHAR 2339
ENCODING 9017
SWIDTH 225 0
DWIDTH 32 0
BBX 32 32 0 -2
BITMAP
00000000
00000000
00000000
00000000
000fe000
00383800
00701800
00600c00
00e00c00
00c00600
00c00600
00c00600
00c00600
00e00e00
00600e00
00701e00
00387600
000fc600
00000600
00000600
00000600
00300e00
00780c00
00700c00
00301c00
003c3800
000fe000
00000000
00000000
00000000
00000000
00000000
ENDCHAR
STARTCHAR 233a
ENCODING 9018
SWIDTH 225 0
DWIDTH 32 0
BBX 32 32 0 -2
BITMAP
00000000
00000000
00000000
00000000
00000000
00000000
00000000
00000000
00000000
00000000
00000000
00000000
00000000
00000000
00000000
00000000
00000000
00000000
00000000
00000000
00000000
00000000
00000000
00000000
00000000
00000000
00000000
00000000
00000000
00000000
00000000
00000000
ENDCHAR
STARTCHAR 233b
ENCODING 9019
SWIDTH 225 0
DWIDTH 32 0
BBX 32 32 0 -2
BITMAP
00000000
00000000
00000000
00000000
00000000
00000000
00000000
00000000
00000000
00000000
00000000
00000000
00000000
00000000
00000000
00000000
00000000
00000000
00000000
00000000
00000000
00000000
00000000
00000000
00000000
00000000
00000000
00000000
00000000
00000000
00000000
00000000
ENDCHAR
STARTCHAR 233c
ENCODING 9020
SWIDTH 225 0
DWIDTH 32 0
BBX 32 32 0 -2
BITMAP
00000000
00000000
00000000
00000000
00000000
00000000
00000000
00000000
00000000
00000000
00000000
00000000
00000000
00000000
00000000
00000000
00000000
00000000
00000000
00000000
00000000
00000000
00000000
00000000
00000000
00000000
00000000
00000000
00000000
00000000
00000000
00000000
ENDCHAR
STARTCHAR 233d
ENCODING 9021
SWIDTH 225 0
DWIDTH 32 0
BBX 32 32 0 -2
BITMAP
00000000
00000000
00000000
00000000
00000000
00000000
00000000
00000000
00000000
00000000
00000000
00000000
00000000
00000000
00000000
00000000
00000000
00000000
00000000
00000000
00000000
00000000
00000000
00000000
00000000
00000000
00000000
00000000
00000000
00000000
00000000
00000000
ENDCHAR
STARTCHAR 233e
ENCODING 9022
SWIDTH 225 0
DWIDTH 32 0
BBX 32 32 0 -2
BITMAP
00000000
00000000
00000000
00000000
00000000
00000000
00000000
00000000
00000000
00000000
00000000
00000000
00000000
00000000
00000000
00000000
00000000
00000000
00000000
00000000
00000000
00000000
00000000
00000000
00000000
00000000
00000000
00000000
00000000
00000000
00000000
00000000
ENDCHAR
STARTCHAR 233f
ENCODING 9023
SWIDTH 225 0
DWIDTH 32 0
BBX 32 32 0 -2
BITMAP
00000000
00000000
00000000
00000000
00000000
00000000
00000000
00000000
00000000
00000000
00000000
00000000
00000000
00000000
00000000
00000000
00000000
00000000
00000000
00000000
00000000
00000000
00000000
00000000
00000000
00000000
00000000
00000000
00000000
00000000
00000000
00000000
ENDCHAR
STARTCHAR 2340
ENCODING 9024
SWIDTH 225 0
DWIDTH 32 0
BBX 32 32 0 -2
BITMAP
00000000
00000000
00000000
00000000
00000000
00000000
00000000
00000000
00000000
00000000
00000000
00000000
00000000
00000000
00000000
00000000
00000000
00000000
00000000
00000000
00000000
00000000
00000000
00000000
00000000
00000000
00000000
00000000
00000000
00000000
00000000
00000000
ENDCHAR
STARTCHAR 2341
ENCODING 9025
SWIDTH 225 0
DWIDTH 32 0
BBX 32 32 0 -2
BITMAP
00000000
00000000
00000000
00000000
00018000
00018000
0003c000
0002c000
0006e000
00046000
00046000
000c7000
00083000
00083800
00181800
00101c00
00300c00
00200c00
003ffe00
00600600
00400700
00c00300
00800300
01800380
01000180
038003c0
0ff00ff0
00000000
00000000
00000000
00000000
00000000
ENDCHAR
STARTCHAR 2342
ENCODING 9026
SWIDTH 225 0
DWIDTH 32 0
BBX 32 32 0 -2
BITMAP
00000000
00000000
00000000
00000000
03fff000
00f03c00
00600600
00600600
00600300
00600300
00600300
00600700
00600600
00603c00
007fe000
00603c00
00600700
00600300
00600380
00600180
00600180
00600180
00600380
00600300
00600700
00f01e00
03fff800
00000000
00000000
00000000
00000000
00000000
ENDCHAR
STARTCHAR 2343
ENCODING 9027
SWIDTH 225 0
DWIDTH 32 0
BBX 32 32 0 -2
BITMAP
00000000
00000000
00000000
00000000
000ff040
00381cc0
00e007c0
01c001c0
018000c0
03800040
03000040
07000000
06000000
06000000
06000000
06000000
06000000
06000000
06000000
06000020
07000020
03000060
03800040
018000c0
01c00180
00f00300
003c1e00
0007f000
00000000
00000000
00000000
00000000
ENDCHAR
STARTCHAR 2344
ENCODING 9028
SWIDTH 225 0
DWIDTH 32 0
BBX 32 32 0 -2
BITMAP
00000000
00000000
00000000
00000000
07ffe000
01e07c00
00c00f00
00c00380
00c00180
00c001c0
00c000c0
00c000e0
00c000e0
00c00060
00c00060
00c00060
00c00060
00c00060
00c000e0
00c000e0
00c000c0
00c001c0
00c00180
00c00380
00c00700
01e07c00
07fff000
00000000
00000000
00000000
00000000
00000000
ENDCHAR
STARTCHAR 2345
ENCODING 9029
SWIDTH 225 0
DWIDTH 32 0
BBX 32 32 0 -2
BITMAP
00000000
00000000
00000000
00000000
03ffff80
00f00780
00600180
00600180
00600080
00600080
00601000
00601000
00603000
00607000
007ff000
00607000
00603000
00601000
00601000
00600000
00600080
00600080
00600180
00600180
00600380
00f00780
03ffff80
00000000
00000000
00000000
00000000
00000000
ENDCHAR
STARTCHAR 2346
ENCODING 9030
SWIDTH 225 0
DWIDTH 32 0
BBX 32 32 0 -2
BITMAP
00000000
00000000
00000000
00000000
01ffffc0
007803c0
003000c0
003000c0
00300040
00300040
00300000
00300400
00300400
00300c00
00301c00
003ffc00
00301c00
00300c00
00300400
00300400
00300000
00300000
00300000
00300000
00300000
00780000
01ff0000
00000000
00000000
00000000
00000000
00000000
ENDCHAR
STARTCHAR 2347
ENCODING 9031
SWIDTH 225 0
DWIDTH 32 0
BBX 32 32 0 -2
BITMAP
00000000
00000000
00000000
00000000
000ff080
00381d80
00e00780
01c00380
01800180
03800180
03000080
07000000
06000000
06000000
06000000
06000000
06000ff0
060003c0
07000180
07000180
03000180
03800180
01800380
01c00380
00e00780
00781d80
000ff080
00000000
00000000
00000000
00000000
00000000
ENDCHAR
STARTCHAR 2348
ENCODING 9032
SWIDTH 225 0
DWIDTH 32 0
BBX 32 32 0 -2
BITMAP
00000000
00000000
00000000
00000000
07f80ff0
01e003c0
00c00180
00c00180
00c00180
00c00180
00c00180
00c00180
00c00180
00c00180
00ffff80
00c00180
00c00180
00c00180
00c00180
00c00180
00c00180
00c00180
00c00180
00c00180
00c00180
01e003c0
07f80ff0
00000000
00000000
00000000
00000000
00000000
ENDCHAR
STARTCHAR 2349
ENCODING 9033
SWIDTH 225 0
DWIDTH 32 0
BBX 32 32 0 -2
BITMAP
00000000
00000000
00000000
00000000
003ffc00
0003c000
00018000
00018000
00018000
00018000
00018000
00018000
00018000
00018000
00018000
00018000
00018000
00018000
00018000
00018000
00018000
00018000
00018000
00018000
00018000
0003c000
003ffc00
00000000
00000000
00000000
00000000
00000000
ENDCHAR
STARTCHAR 234a
ENCODING 9034
SWIDTH 225 0
DWIDTH 32 0
BBX 32 32 0 -2
BITMAP
00000000
00000000
00000000
00000000
0001ff00
00003c00
00001800
00001800
00001800
00001800
00001800
00001800
00001800
00001800
00001800
00001800
00001800
00001800
00001800
00001800
00001800
00601800
00f01800
00f01800
00e03800
00603000
00707000
001fc000
00000000
00000000
00000000
00000000
ENDCHAR
STARTCHAR 234b
ENCODING 9035
SWIDTH 225 0
DWIDTH 32 0
BBX 32 32 0 -2
BITMAP
00000000
00000000
00000000
00000000
07f83fc0
01e00700
00c00c00
00c01800
00c03000
00c06000
00c0c000
00c18000
00c38000
00c7c000
00ccc000
00d8e000
00f07000
00e03000
00c03800
00c01800
00c01c00
00c00e00
00c00e00
00c00700
00c00380
01e003c0
07f81ff0
00000000
00000000
00000000
00000000
00000000
ENDCHAR
STARTCHAR 234c
ENCODING 9036
SWIDTH 225 0
DWIDTH 32 0
BBX 32 32 0 -2
BITMAP
00000000
00000000
00000000
00000000
01ff0000
00780000
00300000
00300000
00300000
00300000
00300000
00300000
00300000
00300000
00300000
00300000
00300000
00300000
00300000
00300040
00300040
00300040
003000c0
003000c0
003001c0
007803c0
01ffffc0
00000000
00000000
00000000
00000000
00000000
ENDCHAR
STARTCHAR 234d
ENCODING 9037
SWIDTH 225 0
DWIDTH 32 0
BBX 32 32 0 -2
BITMAP
00000000
00000000
00000000
00000000
7e0001fc
1f0001f0
0b000160
0b800360
09800260
09c00260
09c00660
08e00460
08e00460
08700c60
08700860
08301860
08381060
08181060
081c3060
081c2060
080e2060
080e6060
08074060
0807c060
08038060
1c0380f0
7f8107fc
00000000
00000000
00000000
00000000
00000000
ENDCHAR
STARTCHAR 234e
ENCODING 9038
SWIDTH 225 0
DWIDTH 32 0
BBX 32 32 0 -2
BITMAP
00000000
00000000
00000000
00000000
0fc00fe0
03e00380
01600100
01700100
01380100
01180100
011c0100
010e0100
01060100
01070100
01038100
01018100
0101c100
0100e100
01007100
01007900
01003900
01001d00
01000d00
01000700
01000700
03800300
0fe00100
00000000
00000000
00000000
00000000
00000000
ENDCHAR
STARTCHAR 234f
ENCODING 9039
SWIDTH 225 0
DWIDTH 32 0
BBX 32 32 0 -2
BITMAP
00000000
00000000
00000000
00000000
000ff000
00381c00
00e00700
01c00380
01800180
038001c0
030000c0
070000e0
06000060
06000060
06000060
06000060
06000060
06000060
06000060
070000e0
030000c0
038001c0
01800180
01c00380
00e00700
00381c00
000ff000
00000000
00000000
00000000
00000000
00000000
ENDCHAR
STARTCHAR 2350
ENCODING 9040
SWIDTH 225 0
DWIDTH 32 0
BBX 32 32 0 -2
BITMAP
00000000
00000000
00000000
00000000
01fff800
00780f00
00300380
00300180
003001c0
003000c0
003000c0
003001c0
00300180
00300380
00300f00
003ff800
00300000
00300000
00300000
00300000
00300000
00300000
00300000
00300000
00300000
00780000
01ff0000
00000000
00000000
00000000
00000000
00000000
ENDCHAR
STARTCHAR 2351
ENCODING 9041
SWIDTH 225 0
DWIDTH 32 0
BBX 32 32 0 -2
BITMAP
00000000
00000000
00000000
00000000
000ff000
00381c00
00e00700
01c00380
01800180
038001c0
030000c0
030000c0
070000e0
06000060
06000060
06000060
06000060
06000060
070000e0
0307c0c0
030c60c0
039871c0
01983180
01d83380
00e83700
003c7c00
000fd820
00000e60
000007c0
00000380
00000000
00000000
ENDCHAR
STARTCHAR 2352
ENCODING 9042
SWIDTH 225 0
DWIDTH 32 0
BBX 32 32 0 -2
BITMAP
00000000
00000000
00000000
00000000
03ffe000
00f03800
00600e00
00600600
00600300
00600300
00600300
00600700
00600600
00600e00
00603c00
007ff000
0061c000
0060e000
00607000
00607000
00603800
00601c00
00600e00
00600700
00600780
00f003c0
03fe01f0
00000000
00000000
00000000
00000000
00000000
ENDCHAR
STARTCHAR 2353
ENCODING 9043
SWIDTH 225 0
DWIDTH 32 0
BBX 32 32 0 -2
BITMAP
00000000
00000000
00000000
00000000
0007e100
001e3b00
00380f00
00300700
00600300
00600100
00600100
00700000
00380000
003e0000
001fc000
0007f800
0000fe00
00003f00
00000700
00000380
00800380
00800180
00c00180
00e00380
00f00300
00f80700
00ce1e00
0083f800
00000000
00000000
00000000
00000000
ENDCHAR
STARTCHAR 2354
ENCODING 9044
SWIDTH 225 0
DWIDTH 32 0
BBX 32 32 0 -2
BITMAP
00000000
00000000
00000000
00000000
07ffffe0
078181e0
06018060
06018060
04018020
04018020
00018000
00018000
00018000
00018000
00018000
00018000
00018000
00018000
00018000
00018000
00018000
00018000
00018000
00018000
00018000
0003c000
003ffc00
00000000
00000000
00000000
00000000
00000000
ENDCHAR
STARTCHAR 2355
ENCODING 9045
SWIDTH 225 0
DWIDTH 32 0
BBX 32 32 0 -2
BITMAP
00000000
00000000
00000000
00000000
0ff007f0
03c001c0
01800080
01800080
01800080
01800080
01800080
01800080
01800080
01800080
01800080
01800080
01800080
01800080
01800080
01800080
01800080
01c00080
00c00180
00e00100
00700300
003c0e00
000ff800
00000000
00000000
00000000
00000000
00000000
ENDCHAR
STARTCHAR 2356
ENCODING 9046
SWIDTH 225 0
DWIDTH 32 0
BBX 32 32 0 -2
BITMAP
00000000
00000000
00000000
00000000
0ffc07f0
03e001c0
01c00080
00e00180
00e00100
00700100
00700300
00700200
00380200
00380600
001c0400
001c0400
001c0c00
000e0800
000e1800
00071000
00071000
0003b000
0003a000
0003e000
0001c000
0001c000
00008000
00008000
00000000
00000000
00000000
00000000
ENDCHAR
STARTCHAR 2357
ENCODING 9047
SWIDTH 225 0
DWIDTH 32 0
BBX 32 32 0 -2
BITMAP
00000000
00000000
00000000
00000000
7f8ff1fe
1e03e038
0c01c010
0e01c010
0e03e030
06026020
06026020
07027020
03027020
03063060
03843040
03843840
01841840
018c18c0
01c81c80
00c81c80
00c80c80
00c80c80
00d80d80
00700700
00700700
00700700
00200200
00200200
00000000
00000000
00000000
00000000
ENDCHAR
STARTCHAR 2358
ENCODING 9048
SWIDTH 225 0
DWIDTH 32 0
BBX 32 32 0 -2
BITMAP
00000000
00000000
00000000
00000000
07fc1fe0
01f00780
00e00300
00700600
00380c00
001c1800
001c1000
000e3000
00076000
0007c000
0003c000
0001e000
0003e000
00027000
00063800
000c3c00
00181e00
00100e00
00300700
00600780
00c003c0
01e001e0
0ff80ff8
00000000
00000000
00000000
00000000
00000000
ENDCHAR
STARTCHAR 2359
ENCODING 9049
SWIDTH 225 0
DWIDTH 32 0
BBX 32 32 0 -2
BITMAP
00000000
00000000
00000000
00000000
07f83fe0
01e00780
00c00300
00e00200
00700600
00300400
00380c00
00180800
001c1800
000e3000
00062000
00076000
0003c000
0003c000
00018000
00018000
00018000
00018000
00018000
00018000
00018000
0003c000
001ff800
00000000
00000000
00000000
00000000
00000000
ENDCHAR
STARTCHAR 235a
ENCODING 9050
SWIDTH 225 0
DWIDTH 32 0
BBX 32 32 0 -2
BITMAP
00000000
00000000
00000000
00000000
01ffff00
01c00e00
01801c00
01001800
01003800
00007000
00006000
0000e000
0001c000
00018000
00038000
00070000
00060000
000e0000
001c0000
00180000
00380080
00700080
00e00180
00c00180
01c00380
03800780
07ffff80
00000000
00000000
00000000
00000000
00000000
ENDCHAR
STARTCHAR 235b
ENCODING 9051
SWIDTH 225 0
DWIDTH 32 0
BBX 32 32 0 -2
BITMAP
00000000
00000000
00000000
00000000
00000000
00000000
00000000
00000000
00000000
00000000
00000000
00000000
00000000
00000000
00000000
00000000
00000000
00000000
00000000
00000000
00000000
00000000
00000000
00000000
00000000
00000000
00000000
00000000
00000000
00000000
00000000
00000000
ENDCHAR
STARTCHAR 235c
ENCODING 9052
SWIDTH 225 0
DWIDTH 32 0
BBX 32 32 0 -2
BITMAP
00000000
00000000
00000000
00000000
00000000
00000000
00000000
00000000
00000000
00000000
00000000
00000000
00000000
00000000
00000000
00000000
00000000
00000000
00000000
00000000
00000000
00000000
00000000
00000000
00000000
00000000
00000000
00000000
00000000
00000000
00000000
00000000
ENDCHAR
STARTCHAR 235d
ENCODING 9053
SWIDTH 225 0
DWIDTH 32 0
BBX 32 32 0 -2
BITMAP
00000000
00000000
00000000
00000000
00000000
00000000
00000000
00000000
00000000
00000000
00000000
00000000
00000000
00000000
00000000
00000000
00000000
00000000
00000000
00000000
00000000
00000000
00000000
00000000
00000000
00000000
00000000
00000000
00000000
00000000
00000000
00000000
ENDCHAR
STARTCHAR 235e
ENCODING 9054
SWIDTH 225 0
DWIDTH 32 0
BBX 32 32 0 -2
BITMAP
00000000
00000000
00000000
00000000
00000000
00000000
00000000
00000000
00000000
00000000
00000000
00000000
00000000
00000000
00000000
00000000
00000000
00000000
00000000
00000000
00000000
00000000
00000000
00000000
00000000
00000000
00000000
00000000
00000000
00000000
00000000
00000000
ENDCHAR
STARTCHAR 235f
ENCODING 9055
SWIDTH 225 0
DWIDTH 32 0
BBX 32 32 0 -2
BITMAP
00000000
00000000
00000000
00000000
00000000
00000000
00000000
00000000
00000000
00000000
00000000
00000000
00000000
00000000
00000000
00000000
00000000
00000000
00000000
00000000
00000000
00000000
00000000
00000000
00000000
00000000
00000000
00000000
00000000
00000000
00000000
00000000
ENDCHAR
STARTCHAR 2360
ENCODING 9056
SWIDTH 225 0
DWIDTH 32 0
BBX 32 32 0 -2
BITMAP
00000000
00000000
00000000
00000000
00000000
00000000
00000000
00000000
00000000
00000000
00000000
00000000
00000000
00000000
00000000
00000000
00000000
00000000
00000000
00000000
00000000
00000000
00000000
00000000
00000000
00000000
00000000
00000000
00000000
00000000
00000000
00000000
ENDCHAR
STARTCHAR 2361
ENCODING 9057
SWIDTH 225 0
DWIDTH 32 0
BBX 32 32 0 -2
BITMAP
00000000
00000000
00000000
00000000
00000000
00000000
00000000
00000000
00000000
00000000
00000000
0007c000
001c7000
00381800
00381800
00101800
00001800
0003f800
000e1800
00381800
00301800
00701800
00601800
00601800
00707900
0038df00
000f8e00
00000000
00000000
00000000
00000000
00000000
ENDCHAR
STARTCHAR 2362
ENCODING 9058
SWIDTH 225 0
DWIDTH 32 0
BBX 32 32 0 -2
BITMAP
00000000
00000000
00000000
00080000
00f80000
00380000
00180000
00180000
00180000
00180000
00180000
001be000
001e3800
00180c00
00180e00
00180600
00180700
00180300
00180300
00180300
00180300
00180700
00180600
00180e00
00180c00
001e3800
0013e000
00000000
00000000
00000000
00000000
00000000
ENDCHAR
STARTCHAR 2363
ENCODING 9059
SWIDTH 225 0
DWIDTH 32 0
BBX 32 32 0 -2
BITMAP
00000000
00000000
00000000
00000000
00000000
00000000
00000000
00000000
00000000
00000000
00000000
0003f000
000e1c00
00180600
00380e00
00301e00
00700c00
00600000
00600000
00600000
00600000
00700100
00300300
00380200
00180600
000e1c00
0003f000
00000000
00000000
00000000
00000000
00000000
ENDCHAR
STARTCHAR 2364
ENCODING 9060
SWIDTH 225 0
DWIDTH 32 0
BBX 32 32 0 -2
BITMAP
00000000
00000000
00000000
00000800
0001f800
00003800
00001800
00001800
00001800
00001800
00001800
0007d800
001c7800
00301800
00701800
00601800
00e01800
00c01800
00c01800
00c01800
00c01800
00e01800
00601800
00701800
00301800
001c7c00
0007df00
00000000
00000000
00000000
00000000
00000000
ENDCHAR
STARTCHAR 2365
ENCODING 9061
SWIDTH 225 0
DWIDTH 32 0
BBX 32 32 0 -2
BITMAP
00000000
00000000
00000000
00000000
00000000
00000000
00000000
00000000
00000000
00000000
00000000
0007c000
001c7000
00301800
00700c00
00600c00
00e00600
00c00600
00fffe00
00c00000
00c00000
00e00000
00600200
00700600
00300c00
001c3800
0007e000
00000000
00000000
00000000
00000000
00000000
ENDCHAR
STARTCHAR 2366
ENCODING 9062
SWIDTH 225 0
DWIDTH 32 0
BBX 32 32 0 -2
BITMAP
00000000
00000000
00000000
0001f800
00030c00
00030600
00060e00
00060e00
00060400
00060000
00060000
00060000
007ff800
00060000
00060000
00060000
00060000
00060000
00060000
00060000
00060000
00060000
00060000
00060000
00060000
000f0000
007ff000
00000000
00000000
00000000
00000000
00000000
ENDCHAR
STARTCHAR 2367
ENCODING 9063
SWIDTH 225 0
DWIDTH 32 0
BBX 32 32 0 -2
BITMAP
00000000
00000000
00000000
00000000
00000000
00000000
00000000
00000000
00000000
00000000
00000f00
0007db80
001c7180
00183100
00301800
00301800
00301800
00383800
001c7000
0007c000
000c0000
00380000
001f8000
000ff800
00383e00
00600600
00c00300
00c00300
00c00300
00700e00
001ff800
00000000
ENDCHAR
STARTCHAR 2368
ENCODING 9064
SWIDTH 225 0
DWIDTH 32 0
BBX 32 32 0 -2
BITMAP
00000000
00000000
00000000
00100000
01f00000
00700000
00300000
00300000
00300000
00300000
00300000
0031f000
00371c00
003c0c00
00380e00
00300600
00300600
00300600
00300600
00300600
00300600
00300600
00300600
00300600
00300600
00780f00
01fe3fc0
00000000
00000000
00000000
00000000
00000000
ENDCHAR
STARTCHAR 2369
ENCODING 9065
SWIDTH 225 0
DWIDTH 32 0
BBX 32 32 0 -2
BITMAP
00000000
00000000
00000000
00000000
00018000
0003c000
0003c000
00018000
00000000
00000000
00000000
00008000
001f8000
00038000
00018000
00018000
00018000
00018000
00018000
00018000
00018000
00018000
00018000
00018000
00018000
0003c000
003ffc00
00000000
00000000
00000000
00000000
00000000
ENDCHAR
STARTCHAR 236a
ENCODING 9066
SWIDTH 225 0
DWIDTH 32 0
BBX 32 32 0 -2
BITMAP
00000000
00000000
00000000
00000000
00006000
0000f000
0000f000
00006000
00000000
00000000
00000000
00002000
0007e000
0001e000
00006000
00006000
00006000
00006000
00006000
00006000
00006000
00006000
00006000
00006000
00406000
00e06000
00e06000
00c0c000
0060c000
003f8000
00000000
00000000
ENDCHAR
STARTCHAR 236b
ENCODING 9067
SWIDTH 225 0
DWIDTH 32 0
BBX 32 32 0 -2
BITMAP
00000000
00000000
00000000
00100000
01f00000
00700000
00300000
00300000
00300000
00300000
00300000
0030ff00
00301800
00303000
00306000
0030c000
0031c000
0033e000
00366000
003c7000
00383000
00301800
00301c00
00300c00
00300e00
00780700
01fe1fc0
00000000
00000000
00000000
00000000
00000000
ENDCHAR
STARTCHAR 236c
ENCODING 9068
SWIDTH 225 0
DWIDTH 32 0
BBX 32 32 0 -2
BITMAP
00000000
00000000
00000000
00008000
001f8000
00038000
00018000
00018000
00018000
00018000
00018000
00018000
00018000
00018000
00018000
00018000
00018000
00018000
00018000
00018000
00018000
00018000
00018000
00018000
00018000
0003c000
003ffc00
00000000
00000000
00000000
00000000
00000000
ENDCHAR
STARTCHAR 236d
ENCODING 9069
SWIDTH 225 0
DWIDTH 32 0
BBX 32 32 0 -2
BITMAP
00000000
00000000
00000000
00000000
00000000
00000000
00000000
00000000
00000000
00000000
00000000
009f0f80
0fb1b8c0
03e0e060
0180c060
0180c060
0180c060
0180c060
0180c060
0180c060
0180c060
0180c060
0180c060
0180c060
0180c060
03c0c0f0
0ff3f3fc
00000000
00000000
00000000
00000000
00000000
ENDCHAR
STARTCHAR 236e
ENCODING 9070
SWIDTH 225 0
DWIDTH 32 0
BBX 32 32 0 -2
BITMAP
00000000
00000000
00000000
00000000
00000000
00000000
00000000
00000000
00000000
00000000
00000000
0011e000
01f73800
007c0c00
00380c00
00300600
00300600
00300600
00300600
00300600
00300600
00300600
00300600
00300600
00300600
00780f00
01fe3fc0
00000000
00000000
00000000
00000000
00000000
ENDCHAR
STARTCHAR 236f
ENCODING 9071
SWIDTH 225 0
DWIDTH 32 0
BBX 32 32 0 -2
BITMAP
00000000
00000000
00000000
00000000
00000000
00000000
00000000
00000000
00000000
00000000
00000000
0007e000
001c3800
00300c00
00700e00
00600600
00e00700
00c00300
00c00300
00c00300
00c00300
00e00700
00600600
00700e00
00300c00
001c3800
0007e000
00000000
00000000
00000000
00000000
00000000
ENDCHAR
STARTCHAR 2370
ENCODING 9072
SWIDTH 225 0
DWIDTH 32 0
BBX 32 32 0 -2
BITMAP
00000000
00000000
00000000
00000000
00000000
00000000
00000000
00000000
00000000
00000000
00000000
00fbe000
003e3800
00180c00
00180e00
00180600
00180700
00180300
00180300
00180300
00180700
00180600
00180e00
00180c00
001e3800
001be000
00180000
00180000
00180000
003c0000
00ff8000
00000000
ENDCHAR
STARTCHAR 2371
ENCODING 9073
SWIDTH 225 0
DWIDTH 32 0
BBX 32 32 0 -2
BITMAP
00000000
00000000
00000000
00000000
00000000
00000000
00000000
00000000
00000000
00000000
00000000
0003ef00
000e3c00
00180c00
00380c00
00300c00
00700c00
00600c00
00600c00
00600c00
00700c00
00300c00
00380c00
00180c00
000e3c00
0003ec00
00000c00
00000c00
00000c00
00001e00
0000ff80
00000000
ENDCHAR
STARTCHAR 2372
ENCODING 9074
SWIDTH 225 0
DWIDTH 32 0
BBX 32 32 0 -2
BITMAP
00000000
00000000
00000000
00000000
00000000
00000000
00000000
00000000
00000000
00000000
00000000
00047800
007dcc00
001f0600
000e0e00
000e0e00
000c0400
000c0000
000c0000
000c0000
000c0000
000c0000
000c0000
000c0000
000c0000
001e0000
007fc000
00000000
00000000
00000000
00000000
00000000
ENDCHAR
STARTCHAR 2373
ENCODING 9075
SWIDTH 225 0
DWIDTH 32 0
BBX 32 32 0 -2
BITMAP
00000000
00000000
00000000
00000000
00000000
00000000
00000000
00000000
00000000
00000000
00000000
0007c800
000c7800
00181800
00181800
00180800
001c0000
000f0000
0007e000
0001f800
00003800
00201c00
00200c00
00300c00
00381c00
003c7800
0027e000
00000000
00000000
00000000
00000000
00000000
ENDCHAR
STARTCHAR 2374
ENCODING 9076
SWIDTH 225 0
DWIDTH 32 0
BBX 32 32 0 -2
BITMAP
00000000
00000000
00000000
00000000
00000000
00000000
00040000
00040000
000c0000
000c0000
003c0000
00ffe000
000c0000
000c0000
000c0000
000c0000
000c0000
000c0000
000c0000
000c0000
000c0000
000c0000
000c0400
000c0400
000c0c00
00061800
0003f000
00000000
00000000
00000000
00000000
00000000
ENDCHAR
STARTCHAR 2375
ENCODING 9077
SWIDTH 225 0
DWIDTH 32 0
BBX 32 32 0 -2
BITMAP
00000000
00000000
00000000
00000000
00000000
00000000
00000000
00000000
00000000
00000000
00000000
00100200
01f03e00
00700e00
00300600
00300600
00300600
00300600
00300600
00300600
00300600
00300600
00300600
00300e00
00181e00
001c7600
0007c780
00000000
00000000
00000000
00000000
00000000
ENDCHAR
STARTCHAR 2376
ENCODING 9078
SWIDTH 225 0
DWIDTH 32 0
BBX 32 32 0 -2
BITMAP
00000000
00000000
00000000
00000000
00000000
00000000
00000000
00000000
00000000
00000000
00000000
00fc3f80
00300e00
00380400
00180c00
001c0800
000c0800
000e1800
00061000
00061000
00073000
00032000
00036000
0001c000
0001c000
00008000
00008000
00000000
00000000
00000000
00000000
00000000
ENDCHAR
STARTCHAR 2377
ENCODING 9079
SWIDTH 225 0
DWIDTH 32 0
BBX 32 32 0 -2
BITMAP
00000000
00000000
00000000
00000000
00000000
00000000
00000000
00000000
00000000
00000000
00000000
0fe7e3f8
03018060
0381c040
0180c0c0
0180c080
00c1e080
00c16180
00e16100
00637300
00723200
00323200
00363600
001c1c00
001c1c00
00080800
00080800
00000000
00000000
00000000
00000000
00000000
ENDCHAR
STARTCHAR 2378
ENCODING 9080
SWIDTH 225 0
DWIDTH 32 0
BBX 32 32 0 -2
BITMAP
00000000
00000000
00000000
00000000
00000000
00000000
00000000
00000000
00000000
00000000
00000000
01fc3f80
00700e00
00380c00
001c1800
000e3000
00076000
0003c000
00018000
0003c000
0006e000
000c7000
00183800
00301c00
00600e00
00e00f00
03f01fc0
00000000
00000000
00000000
00000000
00000000
ENDCHAR
STARTCHAR 2379
ENCODING 9081
SWIDTH 225 0
DWIDTH 32 0
BBX 32 32 0 -2
BITMAP
00000000
00000000
00000000
00000000
00000000
00000000
00000000
00000000
00000000
00000000
00000000
01fe3fc0
00700700
00300200
00380600
00180400
001c0c00
000c0800
000e0800
00061800
00071000
00033000
0003a000
0001e000
0001c000
0040c000
00e18000
00e10000
00c30000
00660000
003c0000
00000000
ENDCHAR
STARTCHAR 237a
ENCODING 9082
SWIDTH 225 0
DWIDTH 32 0
BBX 32 32 0 -2
BITMAP
00000000
00000000
00000000
00000000
00000000
00000000
00000000
00000000
00000000
00000000
00000000
007ffe00
00701c00
00603800
00407000
00406000
0000e000
0001c000
00038000
00030000
00070000
000e0200
000c0200
001c0600
00380600
00700e00
00fffe00
00000000
00000000
00000000
00000000
00000000
ENDCHAR
STARTCHAR 237b
ENCODING 9083
SWIDTH 225 0
DWIDTH 32 0
BBX 32 32 0 -2
BITMAP
00000000
00000000
00000000
00000000
00000000
00000000
00000000
00000000
00000000
00000000
00000000
00000000
00000000
00000000
00000000
00000000
00000000
00000000
00000000
00000000
00000000
00000000
00000000
00000000
00000000
00000000
00000000
00000000
00000000
00000000
00000000
00000000
ENDCHAR
STARTCHAR 237c
ENCODING 9084
SWIDTH 225 0
DWIDTH 32 0
BBX 32 32 0 -2
BITMAP
00000000
00000000
00000000
00000000
00000000
00000000
00000000
00000000
00000000
00000000
00000000
00000000
00000000
00000000
00000000
00000000
00000000
00000000
00000000
00000000
00000000
00000000
00000000
00000000
00000000
00000000
00000000
00000000
00000000
00000000
00000000
00000000
ENDCHAR
STARTCHAR 237d
ENCODING 9085
SWIDTH 225 0
DWIDTH 32 0
BBX 32 32 0 -2
BITMAP
00000000
00000000
00000000
00000000
00000000
00000000
00000000
00000000
00000000
00000000
00000000
00000000
00000000
00000000
00000000
00000000
00000000
00000000
00000000
00000000
00000000
00000000
00000000
00000000
00000000
00000000
00000000
00000000
00000000
00000000
00000000
00000000
ENDCHAR
STARTCHAR 237e
ENCODING 9086
SWIDTH 225 0
DWIDTH 32 0
BBX 32 32 0 -2
BITMAP
00000000
00000000
00000000
00000000
00000000
00000000
00000000
00000000
00000000
00000000
00000000
00000000
00000000
00000000
00000000
00000000
00000000
00000000
00000000
00000000
00000000
00000000
00000000
00000000
00000000
00000000
00000000
00000000
00000000
00000000
00000000
00000000
ENDCHAR
STARTCHAR 2421
ENCODING 9249
SWIDTH 225 0
DWIDTH 32 0
BBX 32 32 0 -2
BITMAP
00000000
00000000
00000000
00000000
00000000
00000000
00000000
00000000
001c0000
000e0000
000c0000
000c3800
020ffc00
03ffc000
01fc0000
000c2000
000c3000
000ffc00
000e3700
003c3180
006c6180
00cc60c0
018cc0c0
010cc0c0
030580c0
030701c0
030e0180
03b80380
01e00e00
00007800
00000000
00000000
ENDCHAR
STARTCHAR 2422
ENCODING 9250
SWIDTH 225 0
DWIDTH 32 0
BBX 32 32 0 -2
BITMAP
00000000
00000000
00380000
001e0000
000c0000
000c0400
080c0e00
0c0cfe00
07fff800
03ff0000
00180000
00181000
00181800
0019ff00
001f1bc0
003818e0
00f83070
01983030
03186038
06186018
0e18c018
0c0dc018
1c0d8038
180f0030
18060070
1c3c00e0
0ff001c0
07c00f80
0000fc00
00000000
00000000
00000000
ENDCHAR
STARTCHAR 2423
ENCODING 9251
SWIDTH 225 0
DWIDTH 32 0
BBX 32 32 0 -2
BITMAP
00000000
00000000
00000000
00000000
00000000
00000000
00000000
00000000
00000000
00000000
00000000
03000000
01800000
01c00c00
01800600
01800300
01800380
01800180
018001c0
018200c0
018600c0
018400e0
01cc00e0
00c800e0
00d80040
00d80000
00700000
00700000
00200000
00000000
00000000
00000000
ENDCHAR
STARTCHAR 2424
ENCODING 9252
SWIDTH 225 0
DWIDTH 32 0
BBX 32 32 0 -2
BITMAP
00000000
00000000
00000000
00000000
00000000
00000000
0c000000
06000000
07000600
07000300
06000180
060001c0
060000c0
060000e0
06000060
06040070
060c0070
07080030
03180038
03180038
03300038
03b00038
01e00010
01e00000
00c00000
00e00000
00600000
00000000
00000000
00000000
00000000
00000000
ENDCHAR
STARTCHAR 2425
ENCODING 9253
SWIDTH 225 0
DWIDTH 32 0
BBX 32 32 0 -2
BITMAP
00000000
00000000
00000000
00000000
00000000
00000000
00000000
00000000
000e0000
0003c000
0000e000
00006000
00000000
00000000
0003e000
010e3800
01b80c00
00f00c00
00400e00
00000600
00000600
00000600
00000600
00000e00
00000c00
00001c00
00003800
00007000
0001c000
001f0000
00000000
00000000
ENDCHAR
STARTCHAR 2426
ENCODING 9254
SWIDTH 225 0
DWIDTH 32 0
BBX 32 32 0 -2
BITMAP
00000000
00000000
00180000
000f0000
0003c000
0001e000
0000f000
00006000
00000000
00000000
0003f800
021e1e00
03780700
03e00300
01800380
00000180
00000180
00000180
00000180
00000180
00000180
00000380
00000300
00000700
00000e00
00001c00
00007800
0000e000
00078000
003c0000
00000000
00000000
ENDCHAR
STARTCHAR 2427
ENCODING 9255
SWIDTH 225 0
DWIDTH 32 0
BBX 32 32 0 -2
BITMAP
00000000
00000000
00000000
00000000
00000000
00000000
00000000
00000000
000c0000
00070000
00038000
0001c000
0000c000
00000000
00003000
0087f800
00fc3000
00706000
0000c000
00018000
00030000
00060000
000fe000
001c3000
00383000
00703000
00e03000
01c03fc0
03801fe0
01000000
00000000
00000000
ENDCHAR
STARTCHAR 2428
ENCODING 9256
SWIDTH 225 0
DWIDTH 32 0
BBX 32 32 0 -2
BITMAP
00000000
00000000
00180000
000f0000
0003c000
0001e000
0000e000
00004000
00000000
00001800
0201fc00
033f9e00
03fc3800
01c07000
0000e000
0001c000
00038000
00070000
000c0000
001fc000
0038e000
00706000
00e06000
01c06000
03806000
07006000
0f007030
1e003ff8
1c001ff8
08000000
00000000
00000000
ENDCHAR
STARTCHAR 2429
ENCODING 9257
SWIDTH 225 0
DWIDTH 32 0
BBX 32 32 0 -2
BITMAP
00000000
00000000
00000000
00000000
00000000
00000000
00000000
00000000
00300000
001c0000
000e0000
000c0600
000c1380
000c79c0
030ff0c0
01ff00e0
00fc0060
000c0000
000c0000
000dfe00
000f0380
001c0180
007c00c0
00cc00c0
018c00c0
030c00c0
020c01c0
030c0180
019ce700
00f83c00
00000000
00000000
ENDCHAR
STARTCHAR 242a
ENCODING 9258
SWIDTH 225 0
DWIDTH 32 0
BBX 32 32 0 -2
BITMAP
00000000
00000000
00600000
00380000
001c0000
00180300
00180180
001818e0
0018fc70
081ff070
0fff0038
03f80038
00180010
00180000
00180000
00180000
0019ff00
001f01e0
00380070
00f80030
01980038
03180018
06180018
0c180038
0c180030
0c180070
061800e0
07f8e3c0
01f03e00
00000000
00000000
00000000
ENDCHAR
STARTCHAR 242b
ENCODING 9259
SWIDTH 225 0
DWIDTH 32 0
BBX 32 32 0 -2
BITMAP
00000000
00000000
00000000
00300000
001c0000
000e0000
000e0000
000c0000
000c0300
00180180
101fc0c0
1df87060
0f983070
06303830
00301838
00701838
00601818
0060181c
00c0181c
00c0181c
01c01808
01803800
03803000
03183000
070c7000
06076000
0e03e000
1c01c000
1c018000
08000000
00000000
00000000
ENDCHAR
STARTCHAR 242c
ENCODING 9260
SWIDTH 225 0
DWIDTH 32 0
BBX 32 32 0 -2
BITMAP
00000000
00000020
00000038
0030021c
001c038c
000e01cc
000e00c0
000c00c0
000c0000
00180100
101fc180
1df870c0
0f983060
06303870
00301830
00701838
00601838
0060181c
00c0181c
00c0181c
01c01808
01803800
03803000
03183000
070c7000
06076000
0e03e000
1c01c000
1c018000
08000000
00000000
00000000
ENDCHAR
STARTCHAR 242d
ENCODING 9261
SWIDTH 225 0
DWIDTH 32 0
BBX 32 32 0 -2
BITMAP
00000000
00000000
00000000
007c0000
001c0000
000e0200
00060f00
00033f80
040ff800
07ffc000
03f18000
0000c060
0000c1f0
00006fe0
0801fe00
0ffff800
07fe1800
00000c00
00000e00
00000700
001ffb80
00f00f80
01800300
03000000
03000000
03000000
01800000
01f00180
007fffc0
000fff80
00000000
00000000
ENDCHAR
STARTCHAR 242e
ENCODING 9262
SWIDTH 225 0
DWIDTH 32 0
BBX 32 32 0 -2
BITMAP
00000000
00000030
0000031c
007c01ce
001c00e6
000e0460
00060e00
00033e00
040ff800
07ffc000
03f18000
0000c060
0000c1f0
00006fe0
0801fe00
0ffff800
07fe1800
00000c00
00000e00
00000700
001ffb80
00f00f80
01800300
03000000
03000000
03000000
01800000
01f00180
007fffc0
000fff80
00000000
00000000
ENDCHAR
STARTCHAR 242f
ENCODING 9263
SWIDTH 225 0
DWIDTH 32 0
BBX 32 32 0 -2
BITMAP
00000000
00000000
00000000
00003000
00001c00
00000e00
00001e00
00003c00
00007800
0000e000
0003c000
00070000
001e0000
00380000
00e00000
01800000
01000000
01800000
00e00000
00780000
001e0000
00078000
0003c000
0000e000
00007800
00003c00
00001e00
00000f00
00000700
00000300
00000000
00000000
ENDCHAR
STARTCHAR 2430
ENCODING 9264
SWIDTH 225 0
DWIDTH 32 0
BBX 32 32 0 -2
BITMAP
00000000
00000000
00000000
00006000
00003800
00001c00
00003c00
00007980
0000f0e0
0001c070
00078038
000e0c18
003c0700
00700380
01c001c0
030000c0
02000000
03000000
01c00000
00f00000
003c0000
000f0000
00078000
0001c000
0000f000
00007800
00003c00
00001e00
00000e00
00000600
00000000
00000000
ENDCHAR
STARTCHAR 2431
ENCODING 9265
SWIDTH 225 0
DWIDTH 32 0
BBX 32 32 0 -2
BITMAP
00000000
00000000
00000000
00000c00
0c000700
06000380
03000300
03000300
07000310
06100378
06180ff8
060fffc0
0607f300
0c000300
0c000300
0c000300
0c400300
0c400300
0cc00300
0c800300
0d800300
0d800300
0f000700
07000600
07000600
06000c00
03000c00
03001800
00007000
0001c000
00000000
00000000
ENDCHAR
STARTCHAR 2432
ENCODING 9266
SWIDTH 225 0
DWIDTH 32 0
BBX 32 32 0 -2
BITMAP
00000000
00000018
0000000e
000018c7
0c000e73
06000738
03000618
03000600
07000610
061006f8
06181ff8
060fff80
0607e600
0c000600
0c000600
0c000600
0c400600
0c400600
0cc00600
0c800600
0d800600
0d800600
0f000e00
07000c00
07000c00
06001800
03001800
03003000
0000e000
00038000
00000000
00000000
ENDCHAR
STARTCHAR 2433
ENCODING 9267
SWIDTH 225 0
DWIDTH 32 0
BBX 32 32 0 -2
BITMAP
00000000
00000000
00000000
00000000
00000000
00000200
00803f00
00ffff80
003f0f00
00003c00
00007000
0000c000
00038000
00060000
00000000
00000000
00000000
00000000
00000000
00000000
00000000
04000000
04000000
06000000
03000000
03c000e0
01fffff0
003fffe0
00000000
00000000
00000000
00000000
ENDCHAR
STARTCHAR 2434
ENCODING 9268
SWIDTH 225 0
DWIDTH 32 0
BBX 32 32 0 -2
BITMAP
00000000
00000060
00000038
0000031c
000001cc
000008e0
00803c60
00fffe00
003f0e00
00003800
00007000
0000c000
00038000
00060000
00000000
00000000
00000000
00000000
00000000
00000000
00000000
04000000
04000000
06000000
03000000
03c001c0
01ffffe0
003fffc0
00000000
00000000
00000000
00000000
ENDCHAR
STARTCHAR 2435
ENCODING 9269
SWIDTH 225 0
DWIDTH 32 0
BBX 32 32 0 -2
BITMAP
00000000
00000000
00000000
000f0000
00078000
00018000
0000c080
0000c1c0
04006fc0
0601ff00
03fff000
01fe3800
00001800
00000c00
00000e00
00000700
00000380
000ff9c0
00780fc0
01c001c0
01800080
03000000
03000000
03000000
01800000
01c00000
00f80180
003fffc0
0007ff80
00000000
00000000
00000000
ENDCHAR
STARTCHAR 2436
ENCODING 9270
SWIDTH 225 0
DWIDTH 32 0
BBX 32 32 0 -2
BITMAP
00000000
00000030
0000001c
000f018e
000780e6
00018070
0000c130
0000c380
04006f80
0601fe00
03fff000
01fe3800
00001800
00000c00
00000e00
00000700
00000380
000ff9c0
00780fc0
01c001c0
01800080
03000000
03000000
03000000
01800000
01c00000
00f80180
003fffc0
0007ff80
00000000
00000000
00000000
ENDCHAR
STARTCHAR 2437
ENCODING 9271
SWIDTH 225 0
DWIDTH 32 0
BBX 32 32 0 -2
BITMAP
00000000
00000000
00000000
01800000
00e00000
00700000
00700000
00600000
00600000
00600000
00600000
00600000
00600000
00600000
00600000
00c00000
00c00000
00c00000
00c00010
00c00030
00c00020
00c00060
00c00040
00c000c0
00600180
00600700
00381e00
001ff800
0007e000
00000000
00000000
00000000
ENDCHAR
STARTCHAR 2438
ENCODING 9272
SWIDTH 225 0
DWIDTH 32 0
BBX 32 32 0 -2
BITMAP
00000000
00000000
00000000
01800000
00e00c00
00700700
00700380
0060c1c0
006070c0
00603800
00601c00
00600c00
00600000
00600000
00600000
00c00000
00c00000
00c00000
00c00010
00c00030
00c00020
00c00060
00c00040
00c000c0
00600180
00600700
00381e00
001ff800
0007e000
00000000
00000000
00000000
ENDCHAR
STARTCHAR 2439
ENCODING 9273
SWIDTH 225 0
DWIDTH 32 0
BBX 32 32 0 -2
BITMAP
00000000
00000000
0001c000
0000e000
00007000
00006000
00006000
00006030
1001fff8
18fffffc
0ffe6000
07006000
00006000
00006000
0007e000
001c6000
00307000
00207000
00307000
001c7000
001ff000
0007b000
00003000
00007000
00006000
0000e000
0000c000
00018000
00070000
001c0000
00000000
00000000
ENDCHAR
STARTCHAR 243a
ENCODING 9274
SWIDTH 225 0
DWIDTH 32 0
BBX 32 32 0 -2
BITMAP
00000000
00000030
0001c31c
0000e1ce
000070e6
00006060
00006000
00006010
1001fff8
18fffffc
0ffe6000
07006000
00006000
00006000
0007e000
001c6000
00307000
00207000
00307000
001c7000
001ff000
0007b000
00003000
00007000
00006000
0000e000
0000c000
00018000
00070000
001c0000
00000000
00000000
ENDCHAR
STARTCHAR 243b
ENCODING 9275
SWIDTH 225 0
DWIDTH 32 0
BBX 32 32 0 -2
BITMAP
00000000
00000000
00000000
00001c00
00000e00
00e00700
00700600
00380600
00300600
00300608
003007fc
0030fffe
60fffe00
3fff0600
1f300600
00300600
00300600
00300600
0031c600
00307e00
00301c00
00300800
00300000
00300000
00300000
00380060
001ffff0
000fffe0
00000000
00000000
00000000
00000000
ENDCHAR
STARTCHAR 243c
ENCODING 9276
SWIDTH 225 0
DWIDTH 32 0
BBX 32 32 0 -2
BITMAP
00000000
00000030
0000001c
00001c0e
00000ec6
00e00670
00700638
00380618
00300600
00300610
003007f8
0030fffc
60fffe00
3fff0600
1f300600
00300600
00300600
00300600
0031c600
00307e00
00301c00
00300800
00300000
00300000
00300000
00380060
001ffff0
000fffe0
00000000
00000000
00000000
00000000
ENDCHAR
STARTCHAR 243d
ENCODING 9277
SWIDTH 225 0
DWIDTH 32 0
BBX 32 32 0 -2
BITMAP
00000000
00000000
00000000
00000400
0040fe00
007f8f00
003c1e00
00103800
00007000
0000e000
00018000
00030000
000e0020
00180ff0
0033fff8
10fe3800
1ff0e000
0f018000
00030000
00060000
00060000
000c0000
000c0000
000c0000
000e0000
00060000
00070000
0003c200
0001ff00
00003f00
00000000
00000000
ENDCHAR
STARTCHAR 243e
ENCODING 9278
SWIDTH 225 0
DWIDTH 32 0
BBX 32 32 0 -2
BITMAP
00000000
00000030
0000001c
0000040e
0040fe06
007f8f60
003c1e38
0010381c
0000700c
0000e000
00018000
00030000
000e0020
00180ff0
0033fff8
10fe3800
1ff0e000
0f018000
00030000
00060000
00060000
000c0000
000c0000
000c0000
000e0000
00060000
00070000
0003c200
0001ff00
00003f00
00000000
00000000
ENDCHAR
STARTCHAR 243f
ENCODING 9279
SWIDTH 225 0
DWIDTH 32 0
BBX 32 32 0 -2
BITMAP
00000000
00000000
00380000
001c0000
000e0000
000c0000
000c0000
00187000
081ff800
0fff8000
07f00000
00300000
00300000
00600000
00601fc0
0060ffc0
00c3c000
00c00000
00c00000
01800000
01800000
01800000
03000000
03040000
06040000
06060030
0e03fff8
0c00fff0
0c000000
00000000
00000000
00000000
ENDCHAR
STARTCHAR 2440
ENCODING 9280
SWIDTH 225 0
DWIDTH 32 0
BBX 32 32 0 -2
BITMAP
00000000
00000000
00380060
001c0038
000e001c
000c030c
000c01c0
001870e0
081ff860
0fff8000
07f00000
00300000
00300000
00600000
00601fc0
0060ffc0
00c3c000
00c00000
00c00000
01800000
01800000
01800000
03000000
03040000
06040000
06060030
0e03fff8
0c00fff0
0c000000
00000000
00000000
00000000
ENDCHAR
STARTCHAR 2441
ENCODING 9281
SWIDTH 225 0
DWIDTH 32 0
BBX 32 32 0 -2
BITMAP
00000000
00000000
00700000
00380000
001c0000
00180000
00180c00
08183e00
0c19fc00
07ffe000
03fe0000
00300000
00300000
00300000
00600000
0060ff00
0063c1c0
006e0060
007c0060
00780030
00700030
00300030
00000030
00000070
000000e0
000001c0
00000f80
00007e00
003fe000
00000000
00000000
00000000
ENDCHAR
STARTCHAR 2442
ENCODING 9282
SWIDTH 225 0
DWIDTH 32 0
BBX 32 32 0 -2
BITMAP
00000000
00000000
00700060
00380038
001c031c
001801cc
001818e0
08187c60
0c1bf800
07ff8000
03fc0000
00300000
00300000
00300000
00600000
0060ff00
0063c1c0
006e0060
007c0060
00780030
00700030
00300030
00000030
00000070
000000e0
000001c0
00000f80
00007e00
003fe000
00000000
00000000
00000000
ENDCHAR
STARTCHAR 2443
ENCODING 9283
SWIDTH 225 0
DWIDTH 32 0
BBX 32 32 0 -2
BITMAP
00000000
00000000
00000000
00000000
00000000
00000000
00000000
00000000
00000000
00000000
00000000
00000000
00000000
00000000
0001f800
000f0e00
047c0300
07f00180
03c001c0
010000c0
000000c0
000000c0
000000c0
000001c0
00000180
00000380
00000f00
00007c00
003fe000
00000000
00000000
00000000
ENDCHAR
STARTCHAR 2444
ENCODING 9284
SWIDTH 225 0
DWIDTH 32 0
BBX 32 32 0 -2
BITMAP
00000000
00000000
00000000
00000000
00000000
00000000
00000000
00000000
00000000
0003fe00
003f0380
11f800c0
1fc00060
0f000060
04000070
00000030
00000030
00000030
00000030
00000030
00000070
00000060
000000e0
000003c0
00000f00
0000f800
007f8000
00000000
00000000
00000000
00000000
00000000
ENDCHAR
STARTCHAR 2445
ENCODING 9285
SWIDTH 225 0
DWIDTH 32 0
BBX 32 32 0 -2
BITMAP
00000000
00000000
00000060
00000038
0000061c
0000038c
000001c0
000000c0
00000000
0003fe00
003f0380
11f800c0
1fc00060
0f000060
04000070
00000030
00000030
00000030
00000030
00000030
00000070
00000060
000000e0
000003c0
00000f00
0000f800
007f8000
00000000
00000000
00000000
00000000
00000000
ENDCHAR
STARTCHAR 2446
ENCODING 9286
SWIDTH 225 0
DWIDTH 32 0
BBX 32 32 0 -2
BITMAP
00000000
00000000
00000000
00000000
00000040
000003e0
1003fff0
18ff0e00
0ff83800
0f806000
0400c000
00018000
00030000
00030000
00060000
00060000
000e0000
000c0000
000c0000
000c0000
000c0000
000c0000
000e0000
00060000
00070000
0003c000
0001f900
00007f80
00000f00
00000000
00000000
00000000
ENDCHAR
STARTCHAR 2447
ENCODING 9287
SWIDTH 225 0
DWIDTH 32 0
BBX 32 32 0 -2
BITMAP
00000000
00000000
00000000
00000000
00000040
000003e0
1003fff0
18ff0e00
0ff83800
0f806000
0400c0c0
00018070
00030038
00030618
00060380
000601c0
000e00c0
000c0000
000c0000
000c0000
000c0000
000c0000
000e0000
00060000
00070000
0003c000
0001f900
00007f80
00000f00
00000000
00000000
00000000
ENDCHAR
STARTCHAR 2448
ENCODING 9288
SWIDTH 225 0
DWIDTH 32 0
BBX 32 32 0 -2
BITMAP
00000000
00000000
00000000
00700000
00380000
00380000
00180000
00180000
00180600
00180300
00180380
00180f80
00183e00
000cf800
000dc000
00070000
001c0000
00300000
00600000
00c00000
01800000
01800000
03000000
03000000
03000000
03800000
01e000c0
00ffffe0
001fffc0
00000000
00000000
00000000
ENDCHAR
STARTCHAR 2449
ENCODING 9289
SWIDTH 225 0
DWIDTH 32 0
BBX 32 32 0 -2
BITMAP
00000000
00000060
00000038
0070001c
0038018c
003800e0
00180070
00180030
00180600
00180300
00180380
00180f80
00183e00
000cf800
000dc000
00070000
001c0000
00300000
00600000
00c00000
01800000
01800000
03000000
03000000
03000000
03800000
01e000c0
00ffffe0
001fffc0
00000000
00000000
00000000
ENDCHAR
STARTCHAR 244a
ENCODING 9290
SWIDTH 225 0
DWIDTH 32 0
BBX 32 32 0 -2
BITMAP
00000000
00000000
00380000
001c0000
000e0000
000c0000
000c6000
0019f000
081fc000
0ffe0300
07f001c0
003000e0
00600070
00600e30
00c018f8
00c01838
01c01810
01801800
03801800
03001800
07001800
0e001800
0c07f800
1c1c1f00
08101be0
001018f0
001c1838
000ff818
0003f000
00000000
00000000
00000000
ENDCHAR
STARTCHAR 244b
ENCODING 9291
SWIDTH 225 0
DWIDTH 32 0
BBX 32 32 0 -2
BITMAP
00000000
00000000
00000000
00000000
0e000000
07000000
03801fc0
0300ffe0
03038000
06000000
06000000
06000000
06000000
06000000
0c000000
0c000000
0c000000
0c400000
0c400000
0cc40000
0c840000
0d860000
0d820000
0f030000
0f01c030
0600fff8
07003ff0
07000000
02000000
00000000
00000000
00000000
ENDCHAR
STARTCHAR 244c
ENCODING 9292
SWIDTH 225 0
DWIDTH 32 0
BBX 32 32 0 -2
BITMAP
00000000
00000000
00000000
0001c000
0000e000
06006000
03006000
0180e000
0187fe00
019cc380
01f0c0c0
00c0c060
0181c070
03c18030
02c18038
06c18018
04630018
0c630018
0c330018
18360018
181e0018
180c3e18
181863b0
1818c0f0
0c308078
0c60c0dc
06c0638c
03803e00
00000000
00000000
00000000
00000000
ENDCHAR
STARTCHAR 244d
ENCODING 9293
SWIDTH 225 0
DWIDTH 32 0
BBX 32 32 0 -2
BITMAP
00000000
00000000
00e00000
00700000
00380000
00300000
00300000
00300000
00383f00
1078e1c0
1bf38060
0fb60060
063c0030
00380030
00700030
00f00030
00b00030
01b00030
03300030
07300030
06300030
0e303c30
1c30e760
1b3181e0
39b100f0
10f181b8
0070e71c
00703c0c
00300000
00200000
00000000
00000000
ENDCHAR
STARTCHAR 244e
ENCODING 9294
SWIDTH 225 0
DWIDTH 32 0
BBX 32 32 0 -2
BITMAP
00000000
00000000
00000000
00000000
00000000
0003f000
001ede00
0070c380
00c0c1c0
0180c0e0
0301c060
06018030
06018030
0c038038
0c030018
18030018
18070018
18060018
18060018
180c0038
180c0030
18180030
0c180060
0c3000e0
066001c0
03c00780
01801e00
0000f000
00000000
00000000
00000000
00000000
ENDCHAR
STARTCHAR 244f
ENCODING 9295
SWIDTH 225 0
DWIDTH 32 0
BBX 32 32 0 -2
BITMAP
00000000
00000000
00000000
00001c00
0e000f00
07000600
03000600
03000600
03000670
06080ff8
060fffc0
0607f600
06000600
06000600
0c000600
0c000600
0c000600
0c400600
0c400600
0cc00600
0c800600
0c800600
0d81ff80
0d8707e0
0f040678
0704061c
0607060c
0703fe00
0300fc00
00000000
00000000
00000000
ENDCHAR
STARTCHAR 2450
ENCODING 9296
SWIDTH 225 0
DWIDTH 32 0
BBX 32 32 0 -2
BITMAP
00000000
00000018
0000000c
00001cce
0e000e66
07000670
03000630
03000600
03000670
06080ff8
060fff80
0607f600
06000600
06000600
0c000600
0c000600
0c000600
0c400600
0c400600
0cc00600
0c800600
0c800600
0d81ff80
0d8707e0
0f040678
0704061c
0607060c
0703fe00
0300fc00
00000000
00000000
00000000
ENDCHAR
STARTCHAR 2451
ENCODING 9297
SWIDTH 225 0
DWIDTH 32 0
BBX 32 32 0 -2
BITMAP
00000000
0000003c
00000066
00001c42
0e000f42
07000666
0300063c
03000600
03000670
06080ff8
060fffc0
0607f600
06000600
06000600
0c000600
0c000600
0c000600
0c400600
0c400600
0cc00600
0c800600
0c800600
0d81ff80
0d8707e0
0f040678
0704061c
0607060c
0703fe00
0300fc00
00000000
00000000
00000000
ENDCHAR
STARTCHAR 2452
ENCODING 9298
SWIDTH 225 0
DWIDTH 32 0
BBX 32 32 0 -2
BITMAP
00000000
00000000
00000000
00000800
00081c00
003c1c00
11ee0e00
1f9c0e00
0e380f00
04300d00
00600580
00c00480
00c004c0
018004c0
01800660
03000670
03000638
0300063c
0600061c
06000608
06000600
06000600
06000e00
06000c00
03001c00
03803800
01c0f000
00ffe000
003f8000
00000000
00000000
00000000
ENDCHAR
STARTCHAR 2453
ENCODING 9299
SWIDTH 225 0
DWIDTH 32 0
BBX 32 32 0 -2
BITMAP
00000000
00000030
0000001c
0000080e
00081cc6
003c1c70
11ee0e38
1f9c0e18
0e380f00
04300d00
00600580
00c00480
00c004c0
018004c0
01800660
03000670
03000638
0300063c
0600061c
06000608
06000600
06000600
06000e00
06000c00
03001c00
03803800
01c0f000
00ffe000
003f8000
00000000
00000000
00000000
ENDCHAR
STARTCHAR 2454
ENCODING 9300
SWIDTH 225 0
DWIDTH 32 0
BBX 32 32 0 -2
BITMAP
00000000
0000003c
00000066
00000842
00081c42
003c1c66
11ee0e3c
1f9c0e00
0e380f00
04300d00
00600580
00c00480
00c004c0
018004c0
01800660
03000670
03000638
0300063c
0600061c
06000608
06000600
06000600
06000e00
06000c00
03001c00
03803800
01c0f000
00ffe000
003f8000
00000000
00000000
00000000
ENDCHAR
STARTCHAR 2455
ENCODING 9301
SWIDTH 225 0
DWIDTH 32 0
BBX 32 32 0 -2
BITMAP
00000000
00000000
00000000
00100000
001c0000
00070000
0003c000
0000e000
00007000
0003f000
000e7000
00182000
00100000
00180000
000e0000
00038080
0001c0c0
0100e060
01007070
03003838
02001838
06401c1c
0e400c1c
1c600c1c
3c201c08
38301800
101c3800
000ff000
0003c000
00000000
00000000
00000000
ENDCHAR
STARTCHAR 2456
ENCODING 9302
SWIDTH 225 0
DWIDTH 32 0
BBX 32 32 0 -2
BITMAP
00000000
00000000
00000060
00100038
001c061c
0007038c
0003c1c8
0000e0c0
00007080
0003f000
000e7000
00182000
00100000
00180000
000e0000
00038080
0001c0c0
0100e060
01007070
03003838
02001838
06401c1c
0e400c1c
1c600c1c
3c201c08
38301800
101c3800
000ff000
0003c000
00000000
00000000
00000000
ENDCHAR
STARTCHAR 2457
ENCODING 9303
SWIDTH 225 0
DWIDTH 32 0
BBX 32 32 0 -2
BITMAP
00000000
00000000
000000f0
00100198
001c0108
00070108
0003c198
0000e0f0
00007000
0003f000
000e7000
00182000
00100000
00180000
000e0000
00038080
0001c0c0
0100e060
01007070
03003838
02001838
06401c1c
0e400c1c
1c600c1c
3c201c08
38301800
101c3800
000ff000
0003c000
00000000
00000000
00000000
ENDCHAR
STARTCHAR 2458
ENCODING 9304
SWIDTH 225 0
DWIDTH 32 0
BBX 32 32 0 -2
BITMAP
00000000
00000000
00000000
00000000
00000000
00000000
00000000
00000000
000f0000
00198000
0030c000
00604000
00e06000
00c03000
01c01800
03801c00
03000e00
27000700
3e000380
1e0001c0
0c0000f0
00000078
0000003c
0000001c
0000000c
00000000
00000000
00000000
00000000
00000000
00000000
00000000
ENDCHAR
STARTCHAR 2459
ENCODING 9305
SWIDTH 225 0
DWIDTH 32 0
BBX 32 32 0 -2
BITMAP
00000000
00000000
00000000
00000180
000000e0
00000070
00000c38
00000718
000f0380
001981c0
0030c0c0
00604000
00e06000
00c03000
01c01800
03801c00
03000e00
27000700
3e000380
1e0001c0
0c0000f0
00000078
0000003c
0000001c
0000000c
00000000
00000000
00000000
00000000
00000000
00000000
00000000
ENDCHAR
STARTCHAR 245a
ENCODING 9306
SWIDTH 225 0
DWIDTH 32 0
BBX 32 32 0 -2
BITMAP
00000000
00000000
00000000
000001e0
00000330
00000210
00000210
00000330
000f01e0
00198000
0030c000
00604000
00e06000
00c03000
01c01800
03801c00
03000e00
27000700
3e000380
1e0001c0
0c0000f0
00000078
0000003c
0000001c
0000000c
00000000
00000000
00000000
00000000
00000000
00000000
00000000
ENDCHAR
STARTCHAR 245b
ENCODING 9307
SWIDTH 225 0
DWIDTH 32 0
BBX 32 32 0 -2
BITMAP
00000000
00000000
00000000
00000000
0e0007e0
07007ff0
0303ec00
030e0600
06000600
06000600
06000600
0c100638
0c1807f8
0c0fffe0
0c07fe00
18000600
18000600
18400600
18400600
18c00600
18800600
19800600
1981ff80
1b0707e0
0b040678
0f04061c
0e07060c
0703fe00
0600fc00
00000000
00000000
00000000
ENDCHAR
STARTCHAR 245c
ENCODING 9308
SWIDTH 225 0
DWIDTH 32 0
BBX 32 32 0 -2
BITMAP
00000000
00000030
0000001c
0000000e
0e0007c6
07007f70
0303ec38
030e0618
06000600
06000600
06000600
0c100638
0c1807f8
0c0fffe0
0c07fe00
18000600
18000600
18400600
18400600
18c00600
18800600
19800600
1981ff80
1b0707e0
0b040678
0f04061c
0e07060c
0703fe00
0600fc00
00000000
00000000
00000000
ENDCHAR
STARTCHAR 245d
ENCODING 9309
SWIDTH 225 0
DWIDTH 32 0
BBX 32 32 0 -2
BITMAP
00000000
0000003c
00000066
00000042
0e0007c2
07007fe6
0303ec3c
030e0600
06000600
06000600
06000600
0c100638
0c1807f8
0c0fffe0
0c07fe00
18000600
18000600
18400600
18400600
18c00600
18800600
19800600
1981ff80
1b0707e0
0b040678
0f04061c
0e07060c
0703fe00
0600fc00
00000000
00000000
00000000
ENDCHAR
STARTCHAR 245e
ENCODING 9310
SWIDTH 225 0
DWIDTH 32 0
BBX 32 32 0 -2
BITMAP
00000000
00000000
00070000
00038000
0001c000
00018000
00018000
04018380
0701ff80
03fffe00
00ff8000
00018000
00018000
02018700
0301ff00
01fff800
00ff8000
00018000
00018000
00018000
00018000
00018000
00ffc000
0381f800
02019e00
02018780
038181c0
01ff80c0
007f0000
00000000
00000000
00000000
ENDCHAR
STARTCHAR 245f
ENCODING 9311
SWIDTH 225 0
DWIDTH 32 0
BBX 32 32 0 -2
BITMAP
00000000
00000000
00000000
00000000
00018000
011fc000
01fde000
00e18000
00038000
00030380
000301c0
000700e0
000600c0
000600c0
003f80c0
00ecf8c0
038c1ec0
06180780
0c1801c0
0c3003f0
18300338
1860071c
1860060c
18c00e00
0d801c00
07003800
00007000
0001c000
00070000
00000000
00000000
00000000
ENDCHAR
STARTCHAR 2460
ENCODING 9312
SWIDTH 225 0
DWIDTH 32 0
BBX 32 32 0 -2
BITMAP
00000000
00000000
00e00000
00700000
00380000
00300000
00306000
1031f0c0
183fe060
0fff0030
07f00038
00300018
0030001c
0030007c
03f0000c
0e300088
08300080
18300080
18300080
1c600080
0f600080
07e000c0
01c000c0
00c000c0
00c000c0
00c000e0
00e007e0
007fffc0
003ffe00
00000000
00000000
00000000
ENDCHAR
STARTCHAR 2461
ENCODING 9313
SWIDTH 225 0
DWIDTH 32 0
BBX 32 32 0 -2
BITMAP
00000000
00000000
00000000
0000e000
00007000
02003800
03003000
01803000
0181f800
018f3f00
01b833c0
00e070e0
00c06070
01c06030
0360e038
0660c018
0660c018
0c31c018
0c318018
0c138018
181b0018
180e0038
18060030
0c0c0070
0c1800e0
067003c0
03c00f00
00007800
00000000
00000000
00000000
00000000
ENDCHAR
STARTCHAR 2462
ENCODING 9314
SWIDTH 225 0
DWIDTH 32 0
BBX 32 32 0 -2
BITMAP
00000000
00000000
00380000
001e0000
000c0000
000c0000
000c0000
040c0000
070c1800
03fffc00
00fff000
000c0000
000c0000
000c0020
000c0020
000c0020
0c0c3030
07fff810
01ffe010
00180010
00180010
00180030
00180030
00180030
001c0060
000c00e0
000f03c0
0007ff80
0001fe00
00000000
00000000
00000000
ENDCHAR
STARTCHAR 2463
ENCODING 9315
SWIDTH 225 0
DWIDTH 32 0
BBX 32 32 0 -2
BITMAP
00000000
00000000
00000000
00000000
00000000
00000000
00000000
00038000
0000e000
00e07000
00603000
00300000
00307e00
0019c780
000f01c0
001c00e0
047c0060
07cc0060
03860060
000600e0
000673c0
00031f00
00030000
00038000
00018000
00018000
0001c000
0000c000
0000c000
0000c000
00000000
00000000
ENDCHAR
STARTCHAR 2464
ENCODING 9316
SWIDTH 225 0
DWIDTH 32 0
BBX 32 32 0 -2
BITMAP
00000000
00000000
00030000
0001c000
0000e000
03c07000
01c07000
00c02000
00e03f00
0061e1c0
00670060
003c0070
00700030
21f00038
37980018
1e180018
0c0c0038
000c0030
000c6070
00063fe0
00060780
00030000
00030000
00038000
00018000
00018000
0001c000
0001c000
0000c000
00008000
00000000
00000000
ENDCHAR
STARTCHAR 2465
ENCODING 9317
SWIDTH 225 0
DWIDTH 32 0
BBX 32 32 0 -2
BITMAP
00000000
00000000
00000000
00000000
00000000
00000000
00000000
0001c000
0000e000
00007000
06006000
03006000
0383fc00
030e6700
03186380
03306180
036060c0
064060c0
06c060c0
068060c0
068060c0
07886180
030c6180
03876700
0181fc00
0000c000
0000c000
00018000
00070000
001c0000
00000000
00000000
ENDCHAR
STARTCHAR 2466
ENCODING 9318
SWIDTH 225 0
DWIDTH 32 0
BBX 32 32 0 -2
BITMAP
00000000
00000000
00000000
0001c000
0000e000
00007000
38006000
1c006000
0e01ff00
0c0761c0
0c1c6060
0c306070
0c606030
0cc06038
0c806018
19806018
19006018
1b006018
1a006038
1e106030
0e186070
0c0c60e0
0e076780
0601fe00
0600c000
0001c000
00018000
00030000
000e0000
00380000
00000000
00000000
ENDCHAR
STARTCHAR 2467
ENCODING 9319
SWIDTH 225 0
DWIDTH 32 0
BBX 32 32 0 -2
BITMAP
00000000
00000000
00000000
00000000
00000000
00000000
00000000
00000000
00070000
0003c000
00018000
00018000
00018000
00018300
00019f80
0001fe00
00018000
00018000
00018000
00018000
00018000
00018000
00018000
001fc000
00f1f800
01819f00
01018780
018181c0
00ff80c0
003f0000
00000000
00000000
ENDCHAR
STARTCHAR 2468
ENCODING 9320
SWIDTH 225 0
DWIDTH 32 0
BBX 32 32 0 -2
BITMAP
00000000
00000000
00000000
00070000
0003c000
0001c000
00018000
00018000
00018000
00018080
000183c0
0001ffc0
0001fc00
00018000
00018000
00018000
00018000
00018000
00018000
00018000
00018000
007fc000
03c1f800
06019f00
040187c0
060181e0
03c18060
01ff8000
003f0000
00000000
00000000
00000000
ENDCHAR
STARTCHAR 2469
ENCODING 9321
SWIDTH 225 0
DWIDTH 32 0
BBX 32 32 0 -2
BITMAP
00000000
00000000
00180000
000e0000
00078000
0003c000
0001e000
0180e000
00c04000
00e00000
00c00000
00c00000
00c00000
01800000
01800000
0181fe00
01870780
019c01c0
01b000c0
01e000e0
01c00060
01c00060
00800060
000000e0
000000c0
000001c0
00000780
00003e00
003fe000
00000000
00000000
00000000
ENDCHAR
STARTCHAR 246a
ENCODING 9322
SWIDTH 225 0
DWIDTH 32 0
BBX 32 32 0 -2
BITMAP
00000000
00000000
00000000
00000e00
00c00700
00600380
00700300
00600300
00600300
00600300
00600300
00c40300
00c40300
00cc0300
00c80300
00d80300
00d80300
00d00300
00700300
00700700
00300600
00000600
00000e00
00000c00
00001c00
00001800
00003000
00006000
0001c000
00070000
00000000
00000000
ENDCHAR
STARTCHAR 246b
ENCODING 9323
SWIDTH 225 0
DWIDTH 32 0
BBX 32 32 0 -2
BITMAP
00000000
00000000
00000000
00000000
00003000
0083f800
00ff3c00
00787000
0020e000
00018000
00030000
00060000
000c0000
00180000
0033fc00
007e0700
00f00180
01c000c0
038000c0
07800060
0f000060
0e000060
041f00e0
0071c0c0
0040e1c0
00407380
00603700
003ffe00
000ff000
00000000
00000000
00000000
ENDCHAR
STARTCHAR 246c
ENCODING 9324
SWIDTH 225 0
DWIDTH 32 0
BBX 32 32 0 -2
BITMAP
00000000
00000000
00000000
00e00000
00780000
00300000
00300000
00300000
00387c00
0079c600
19f30300
0fb60300
063c0300
00380300
00700300
00f00300
01f00300
01b00300
03300300
07300300
0e300304
0c300304
1c300304
3b30030c
39b00308
10f00198
007001f0
007000e0
00300000
00200000
00000000
00000000
ENDCHAR
STARTCHAR 246d
ENCODING 9325
SWIDTH 225 0
DWIDTH 32 0
BBX 32 32 0 -2
BITMAP
00000000
00000000
00000000
00001000
00007800
0087fc00
00fe3c00
00787000
0020e000
0001c000
00038000
00070000
00060000
000c0000
001bfc00
003f0780
007001c0
00e000c0
01c000e0
03800060
07000060
07000060
020000e0
000000c0
000001c0
00000380
00000f00
0000fc00
007fc000
00000000
00000000
00000000
ENDCHAR
STARTCHAR 246e
ENCODING 9326
SWIDTH 225 0
DWIDTH 32 0
BBX 32 32 0 -2
BITMAP
00000000
00000000
00000000
00000000
00000000
00000000
00000000
00000000
00700000
003c0000
00180000
00180000
001c0000
001c0000
0478fc00
07db8780
031e01c0
001c00c0
003800e0
00780060
00d80060
01980060
01980060
031800e0
079800c0
06d80180
04780700
0038fc00
00180000
00100000
00000000
00000000
ENDCHAR
STARTCHAR 246f
ENCODING 9327
SWIDTH 225 0
DWIDTH 32 0
BBX 32 32 0 -2
BITMAP
00000000
00000000
00e00000
00700000
00380000
00300000
00300000
00300000
00380000
10f80000
1ff07f00
0f31c1c0
00370060
007c0070
00780030
00f00038
01b00018
01b00018
03300018
07300018
06300018
0c300038
1c300030
18300070
333000e0
31b001c0
00f00700
0070fc00
00600000
00200000
00000000
00000000
ENDCHAR
STARTCHAR 2470
ENCODING 9328
SWIDTH 225 0
DWIDTH 32 0
BBX 32 32 0 -2
BITMAP
00000000
00000000
00000000
00000000
00006000
0103f000
01fee000
00f0c000
0040c000
0000c000
00018000
0001fc00
000f8700
003b01c0
00e300e0
01c30070
03860030
07060038
06060018
0c0c0018
0c0c0018
18187c18
1818c718
18308338
183083b0
0c60c1f0
0cc061e0
07803f80
00000000
00000000
00000000
00000000
ENDCHAR
STARTCHAR 2471
ENCODING 9329
SWIDTH 225 0
DWIDTH 32 0
BBX 32 32 0 -2
BITMAP
00000000
00000000
00000000
00001000
0080f800
00ffbc00
00787000
0001c000
00038000
00060000
001df000
003f1c00
00f00600
01c00300
03800300
011e0300
00330300
00210e00
00313c00
001ff000
000c0000
00380e00
00601b80
01f831c0
039860e0
070c4070
0e0ec038
1c078038
1c030018
08000000
00000000
00000000
ENDCHAR
STARTCHAR 2472
ENCODING 9330
SWIDTH 225 0
DWIDTH 32 0
BBX 32 32 0 -2
BITMAP
00000000
00000000
001c0000
000e0000
00070000
00061800
02067800
03fff000
01ff8000
000c0000
00180000
001800c0
00300060
003e01f0
007387e0
00e0df00
01c07800
0380f000
0381b000
01073000
000c3000
00183000
00303000
00300000
00600000
00600000
003800c0
001fffe0
0007ffc0
00000000
00000000
00000000
ENDCHAR
STARTCHAR 2473
ENCODING 9331
SWIDTH 225 0
DWIDTH 32 0
BBX 32 32 0 -2
BITMAP
00000000
00000000
00000000
000e0000
00070000
00038000
00030000
00070000
00060000
000e0000
000c0000
001c0000
00180000
00380000
00300000
0063c000
00cee004
00d86004
01b06004
01e0600c
03c06008
03806008
07806018
07006018
0e006030
0e007070
1c0030e0
1c003fc0
08000f00
00000000
00000000
00000000
ENDCHAR
STARTCHAR 2474
ENCODING 9332
SWIDTH 225 0
DWIDTH 32 0
BBX 32 32 0 -2
BITMAP
00000000
00000000
00000000
00000000
00000000
00000000
00000000
00000000
00000000
00000000
00000000
00000000
00000000
00000000
00000000
00000000
00000000
00000000
00000000
00000000
00000000
00000000
00000000
00000000
00000000
00000000
00000000
00000000
00000000
00000000
00000000
00000000
ENDCHAR
STARTCHAR 2475
ENCODING 9333
SWIDTH 225 0
DWIDTH 32 0
BBX 32 32 0 -2
BITMAP
00000000
00000000
00000000
00000000
00000000
00000000
00000000
00000000
00000000
00000000
00000000
00000000
00000000
00000000
00000000
00000000
00000000
00000000
00000000
00000000
00000000
00000000
00000000
00000000
00000000
00000000
00000000
00000000
00000000
00000000
00000000
00000000
ENDCHAR
STARTCHAR 2476
ENCODING 9334
SWIDTH 225 0
DWIDTH 32 0
BBX 32 32 0 -2
BITMAP
00000000
00000000
00000000
00000000
00000000
00000000
00000000
00000000
00000000
00000000
00000000
00000000
00000000
00000000
00000000
00000000
00000000
00000000
00000000
00000000
00000000
00000000
00000000
00000000
00000000
00000000
00000000
00000000
00000000
00000000
00000000
00000000
ENDCHAR
STARTCHAR 2477
ENCODING 9335
SWIDTH 225 0
DWIDTH 32 0
BBX 32 32 0 -2
BITMAP
00000000
00000000
00000000
00000000
00000000
00000000
00000000
00000000
00000000
00000000
00000000
00000000
00000000
00000000
00000000
00000000
00000000
00000000
00000000
00000000
00000000
00000000
00000000
00000000
00000000
00000000
00000000
00000000
00000000
00000000
00000000
00000000
ENDCHAR
STARTCHAR 2478
ENCODING 9336
SWIDTH 225 0
DWIDTH 32 0
BBX 32 32 0 -2
BITMAP
00000000
00000000
00000000
00000000
00000000
00000000
00000000
00000000
00000000
00000000
00000000
00000000
00000000
00000000
00000000
00000000
00000000
00000000
00000000
00000000
00000000
00000000
00000000
00000000
00000000
00000000
00000000
00000000
00000000
00000000
00000000
00000000
ENDCHAR
STARTCHAR 2479
ENCODING 9337
SWIDTH 225 0
DWIDTH 32 0
BBX 32 32 0 -2
BITMAP
00000000
00000000
00000000
00000000
00000000
00000000
00000000
00000000
00000000
00000000
00000000
00000000
00000000
00000000
00000000
00000000
00000000
00000000
00000000
00000000
00000000
00000000
00000000
00000000
00000000
00000000
00000000
00000000
00000000
00000000
00000000
00000000
ENDCHAR
STARTCHAR 247a
ENCODING 9338
SWIDTH 225 0
DWIDTH 32 0
BBX 32 32 0 -2
BITMAP
00000000
00000000
00000000
00000000
00000000
00000000
00000000
00000000
00000000
00000000
00000000
00000000
00000000
00000000
00000000
00000000
00000000
00000000
00000000
00000000
00000000
00000000
00000000
00000000
00000000
00000000
00000000
00000000
00000000
00000000
00000000
00000000
ENDCHAR
STARTCHAR 247b
ENCODING 9339
SWIDTH 225 0
DWIDTH 32 0
BBX 32 32 0 -2
BITMAP
00000000
00000000
00000000
00000000
00000000
00000000
00000000
00000000
00000000
00000000
00000000
00000000
00000000
00000000
00000000
00000000
00000000
00000000
00000000
00000000
00000000
00000000
00000000
00000000
00000000
00000000
00000000
00000000
00000000
00000000
00000000
00000000
ENDCHAR
STARTCHAR 247c
ENCODING 9340
SWIDTH 225 0
DWIDTH 32 0
BBX 32 32 0 -2
BITMAP
00000000
00000000
00000000
00000000
00000000
00000000
00000000
00000000
00000000
00000000
00000000
00000000
00000000
00000000
00000000
00000000
00000000
00000000
00000000
00000000
00000000
00000000
00000000
00000000
00000000
00000000
00000000
00000000
00000000
00000000
00000000
00000000
ENDCHAR
STARTCHAR 247d
ENCODING 9341
SWIDTH 225 0
DWIDTH 32 0
BBX 32 32 0 -2
BITMAP
00000000
00000000
00000000
00000000
00000000
00000000
00000000
00000000
00000000
00000000
00000000
00000000
00000000
00000000
00000000
00000000
00000000
00000000
00000000
00000000
00000000
00000000
00000000
00000000
00000000
00000000
00000000
00000000
00000000
00000000
00000000
00000000
ENDCHAR
STARTCHAR 247e
ENCODING 9342
SWIDTH 225 0
DWIDTH 32 0
BBX 32 32 0 -2
BITMAP
00000000
00000000
00000000
00000000
00000000
00000000
00000000
00000000
00000000
00000000
00000000
00000000
00000000
00000000
00000000
00000000
00000000
00000000
00000000
00000000
00000000
00000000
00000000
00000000
00000000
00000000
00000000
00000000
00000000
00000000
00000000
00000000
ENDCHAR
STARTCHAR 2521
ENCODING 9505
SWIDTH 225 0
DWIDTH 32 0
BBX 32 32 0 -2
BITMAP
00000000
00000000
00000000
00000000
00000000
00000000
00000000
00000000
00000000
00000180
0201ffc0
03fff8e0
01fe01c0
00800380
00000300
00030600
00018c00
0001b800
0001e000
00018000
00018000
00038000
00030000
00030000
00060000
00060000
000c0000
00180000
00300000
00600000
00000000
00000000
ENDCHAR
STARTCHAR 2522
ENCODING 9506
SWIDTH 225 0
DWIDTH 32 0
BBX 32 32 0 -2
BITMAP
00000000
00000000
00000000
00000000
00000040
080000e0
0c07fff0
0ffff8f8
07f800e0
020001c0
000001c0
00000380
00070700
0003ce00
00019c00
0001b000
0001e000
00018000
00018000
00038000
00030000
00030000
00070000
00060000
000c0000
000c0000
00180000
00300000
00600000
00c00000
00000000
00000000
ENDCHAR
STARTCHAR 2523
ENCODING 9507
SWIDTH 225 0
DWIDTH 32 0
BBX 32 32 0 -2
BITMAP
00000000
00000000
00000000
00000000
00000000
00000000
00000000
00003800
00001c00
00000e00
00001c00
00003800
00007000
0000e000
0001c000
00038000
0007c000
000f8000
001d8000
00718000
01c18000
07018000
00018000
00018000
00018000
00018000
00018000
00018000
00018000
00018000
00000000
00000000
ENDCHAR
STARTCHAR 2524
ENCODING 9508
SWIDTH 225 0
DWIDTH 32 0
BBX 32 32 0 -2
BITMAP
00000000
00000000
00000000
00000700
00000380
000003c0
00000700
00000e00
00001c00
00003800
00007000
0000e000
0001c000
0003e000
00077800
000e7000
003c6000
00706000
01c06000
07006000
1c006000
00006000
00006000
00006000
00006000
00006000
00006000
00006000
00006000
00006000
00000000
00000000
ENDCHAR
STARTCHAR 2525
ENCODING 9509
SWIDTH 225 0
DWIDTH 32 0
BBX 32 32 0 -2
BITMAP
00000000
00000000
00000000
00000000
00000000
00000000
00000000
00000000
00000000
00038000
0001c000
00018000
01018300
0181ff80
00ffff80
00ff0300
00c00300
00c00300
00c00300
00c00700
00c00600
00c00600
00c00e00
00000c00
00001c00
00003800
00007000
0000e000
00038000
000e0000
00000000
00000000
ENDCHAR
STARTCHAR 2526
ENCODING 9510
SWIDTH 225 0
DWIDTH 32 0
BBX 32 32 0 -2
BITMAP
00000000
00000000
00000000
00070000
0003c000
00018000
00018000
000180c0
0701ffe0
03fffff0
01ff00e0
018000c0
018000c0
018000c0
018001c0
01800180
01800180
01800380
01800300
01800700
00000600
00000e00
00001c00
00003800
00007000
0000e000
00018000
00070000
001c0000
00000000
00000000
00000000
ENDCHAR
STARTCHAR 2527
ENCODING 9511
SWIDTH 225 0
DWIDTH 32 0
BBX 32 32 0 -2
BITMAP
00000000
00000000
00000000
00000000
00000000
00000000
00000000
00000000
00000000
00000000
00000000
00000000
00000200
0100ff00
01ffff80
00ff8000
00018000
00018000
00018000
00018000
00018000
00018000
00018000
00018000
040180c0
07ffffe0
03fffff0
01000000
00000000
00000000
00000000
00000000
ENDCHAR
STARTCHAR 2528
ENCODING 9512
SWIDTH 225 0
DWIDTH 32 0
BBX 32 32 0 -2
BITMAP
00000000
00000000
00000000
00000000
00000000
00000000
00000000
00000180
0401ffc0
07ffffe0
03ff8000
01018000
00018000
00018000
00018000
00018000
00018000
00018000
00018000
00018000
00018000
00018000
10018030
1ffffff8
0ffffffc
06000000
00000000
00000000
00000000
00000000
00000000
00000000
ENDCHAR
STARTCHAR 2529
ENCODING 9513
SWIDTH 225 0
DWIDTH 32 0
BBX 32 32 0 -2
BITMAP
00000000
00000000
00000000
00000000
00000000
00000000
00000000
00000000
0000e000
00007800
00003000
00003000
00003080
0401ffc0
07ffffe0
03ffb000
0101b000
00033000
00033000
00073000
00063000
000e3000
001c3000
00183000
00333000
0061b000
00c0f000
03807000
06003000
00002000
00000000
00000000
ENDCHAR
STARTCHAR 252a
ENCODING 9514
SWIDTH 225 0
DWIDTH 32 0
BBX 32 32 0 -2
BITMAP
00000000
00000000
00000000
0000f000
00007800
00003000
00003000
00003000
00003030
1003fff8
1ffffffc
0ff9b000
0603b000
00033000
00073000
00063000
000e3000
000c3000
001c3000
00383000
00703000
00e03000
01c63000
03033000
0601b000
1c00f000
3000f000
00007000
00006000
00000000
00000000
00000000
ENDCHAR
STARTCHAR 252b
ENCODING 9515
SWIDTH 225 0
DWIDTH 32 0
BBX 32 32 0 -2
BITMAP
00000000
00000000
00000000
00070000
0003c000
00018000
00018000
00018000
00018000
000180c0
0001bfe0
081ffff0
0fffc0e0
07e300c0
020300c0
000700c0
000600c0
000600c0
000e00c0
000c00c0
001c00c0
001801c0
00380180
00718180
0060e180
00c03b80
01801f00
03000f00
0e000e00
18000400
00000000
00000000
ENDCHAR
STARTCHAR 252c
ENCODING 9516
SWIDTH 225 0
DWIDTH 32 0
BBX 32 32 0 -2
BITMAP
00000000
00000000
00000030
0007001c
0003c00e
000180c6
00018070
00018038
00018018
00018180
0001bfc0
081fffe0
0fffc0e0
07e300c0
020300c0
000700c0
000600c0
000600c0
000e00c0
000c00c0
001c00c0
001801c0
00380180
00718180
0060e180
00c03b80
01801f00
03000f00
0e000e00
18000400
00000000
00000000
ENDCHAR
STARTCHAR 252d
ENCODING 9517
SWIDTH 225 0
DWIDTH 32 0
BBX 32 32 0 -2
BITMAP
00000000
00000000
00000000
003c0000
000e0000
000e0000
00060180
000607c0
00037fc0
000ff800
08ff0000
0ff30000
07030000
00018000
00018030
000181f8
0001bff8
0003fe00
081fc000
0dfcc000
07e0c000
03006000
00006000
00006000
00006000
00007000
00003000
00003000
00003000
00003000
00000000
00000000
ENDCHAR
STARTCHAR 252e
ENCODING 9518
SWIDTH 225 0
DWIDTH 32 0
BBX 32 32 0 -2
BITMAP
00000000
00000030
0000001c
003c018e
000e00e6
000e0070
00060130
00060780
00037f80
000ff800
08ff0000
0ff30000
07030000
00018000
00018030
000181f8
0001bff8
0003fe00
081fc000
0dfcc000
07e0c000
03006000
00006000
00006000
00006000
00007000
00003000
00003000
00003000
00003000
00000000
00000000
ENDCHAR
STARTCHAR 252f
ENCODING 9519
SWIDTH 225 0
DWIDTH 32 0
BBX 32 32 0 -2
BITMAP
00000000
00000000
00000000
001c0000
000f0000
00060000
00060100
000e0380
000fffc0
001ff380
00180300
00380700
00300600
00700600
00e00e00
00c00c00
01801c00
03001800
06003800
00007000
00006000
0000e000
0001c000
00038000
00070000
000e0000
00180000
00700000
01c00000
00000000
00000000
00000000
ENDCHAR
STARTCHAR 2530
ENCODING 9520
SWIDTH 225 0
DWIDTH 32 0
BBX 32 32 0 -2
BITMAP
00000000
00000030
0000001c
001c018e
000f00e6
00060070
00060030
000e0300
000fff80
001ff380
00180300
00380700
00300600
00700600
00e00e00
00c00c00
01801c00
03001800
06003800
00007000
00006000
0000e000
0001c000
00038000
00070000
000e0000
00180000
00700000
01c00000
00000000
00000000
00000000
ENDCHAR
STARTCHAR 2531
ENCODING 9521
SWIDTH 225 0
DWIDTH 32 0
BBX 32 32 0 -2
BITMAP
00000000
00000000
00000000
00e00000
00780000
00300000
00300000
00700000
00600060
00603ff0
00fffff8
00fff000
00c03000
01c03000
01803000
03803000
03003000
06003000
0c007000
18006000
30006000
0000e000
0000c000
0001c000
00018000
00030000
00060000
001c0000
00700000
00000000
00000000
00000000
ENDCHAR
STARTCHAR 2532
ENCODING 9522
SWIDTH 225 0
DWIDTH 32 0
BBX 32 32 0 -2
BITMAP
00000000
00000030
0000001c
00e0030e
007801c6
003000e0
00300060
00700000
00600060
00603ff0
00fffff8
00fff000
00c03000
01c03000
01803000
03803000
03003000
06003000
0c007000
18006000
30006000
0000e000
0000c000
0001c000
00018000
00030000
00060000
001c0000
00700000
00000000
00000000
00000000
ENDCHAR
STARTCHAR 2533
ENCODING 9523
SWIDTH 225 0
DWIDTH 32 0
BBX 32 32 0 -2
BITMAP
00000000
00000000
00000000
00000000
00000000
00000000
00000000
000000c0
0401ffe0
07fffff0
03fe00e0
010000c0
000000c0
000000c0
000000c0
000000c0
000000c0
00000180
00000180
00000180
00000180
00000180
00000180
04000180
07ffffc0
03ffffe0
01000000
00000000
00000000
00000000
00000000
00000000
ENDCHAR
STARTCHAR 2534
ENCODING 9524
SWIDTH 225 0
DWIDTH 32 0
BBX 32 32 0 -2
BITMAP
00000000
00000030
0000061c
0000038e
000001c6
000000c0
00000000
000000c0
0401ffe0
07ffffe0
03fe00c0
010000c0
000000c0
000000c0
000000c0
000000c0
000000c0
00000180
00000180
00000180
00000180
00000180
00000180
04000180
07ffffc0
03ffffe0
01000000
00000000
00000000
00000000
00000000
00000000
ENDCHAR
STARTCHAR 2535
ENCODING 9525
SWIDTH 225 0
DWIDTH 32 0
BBX 32 32 0 -2
BITMAP
00000000
00000000
00000000
00003800
00e01e00
00780c00
00300c00
00300c00
00300c00
00300c00
00300c30
203ffff8
3ffffffc
1ff00c00
08300c00
00300c00
00300c00
00300c00
00301c00
00301800
00301800
00003800
00003000
00007000
0000e000
0001c000
00038000
000e0000
00380000
00000000
00000000
00000000
ENDCHAR
STARTCHAR 2536
ENCODING 9526
SWIDTH 225 0
DWIDTH 32 0
BBX 32 32 0 -2
BITMAP
00000000
00000030
0000001c
0000380e
00e01ec6
00780c70
00300c38
00300c18
00300c00
00300c00
00300c30
203ffff8
3ffffffc
1ff00c00
08300c00
00300c00
00300c00
00300c00
00301c00
00301800
00301800
00003800
00003000
00007000
0000e000
0001c000
00038000
000e0000
00380000
00000000
00000000
00000000
ENDCHAR
STARTCHAR 2537
ENCODING 9527
SWIDTH 225 0
DWIDTH 32 0
BBX 32 32 0 -2
BITMAP
00000000
00000000
00000000
00000000
00c00000
00700000
003c0000
001e0000
000f0000
00070000
00020008
06000018
03800010
01c00030
00e00020
00700060
007000c0
00200180
00000380
00000700
00000e00
00001c00
00003800
0000f000
0203e000
031f8000
01fe0000
01f80000
00c00000
00000000
00000000
00000000
ENDCHAR
STARTCHAR 2538
ENCODING 9528
SWIDTH 225 0
DWIDTH 32 0
BBX 32 32 0 -2
BITMAP
00000000
00000000
00000060
00000038
00c0001c
0070060c
003c0380
001e01c0
000f00c0
00070000
00020008
06000018
03800010
01c00030
00e00020
00700060
007000c0
00200180
00000380
00000700
00000e00
00001c00
00003800
0000f000
0203e000
031f8000
01fe0000
01f80000
00c00000
00000000
00000000
00000000
ENDCHAR
STARTCHAR 2539
ENCODING 9529
SWIDTH 225 0
DWIDTH 32 0
BBX 32 32 0 -2
BITMAP
00000000
00000000
00000000
00000000
00000000
00000000
00000c00
0203fe00
03ffff00
01fc0e00
00801c00
00001c00
00001800
00003800
00003000
00007000
00006000
0000e000
0001f000
00039800
00070e00
000e0700
001c0380
003803c0
007001e0
01c000f0
07000070
1c000020
00000000
00000000
00000000
00000000
ENDCHAR
STARTCHAR 253a
ENCODING 9530
SWIDTH 225 0
DWIDTH 32 0
BBX 32 32 0 -2
BITMAP
00000000
00000000
00000030
0000001c
0000018e
000000e6
00000c70
0203fe30
03ffff00
01fc0e00
00801c00
00001c00
00001800
00003800
00003000
00007000
00006000
0000e000
0001f000
00039800
00070e00
000e0700
001c0380
003803c0
007001e0
01c000f0
07000070
1c000020
00000000
00000000
00000000
00000000
ENDCHAR
STARTCHAR 253b
ENCODING 9531
SWIDTH 225 0
DWIDTH 32 0
BBX 32 32 0 -2
BITMAP
00000000
00000000
00000000
00000000
00700000
003c0000
00180000
00180000
00180040
001800e0
0018fff0
107ff8e0
1fff01c0
0f980180
04180380
00180700
00180e00
00181c00
00187000
0018c000
00180000
00180000
00180000
00180000
00180000
001c00c0
000fffe0
0007ffc0
00000000
00000000
00000000
00000000
ENDCHAR
STARTCHAR 253c
ENCODING 9532
SWIDTH 225 0
DWIDTH 32 0
BBX 32 32 0 -2
BITMAP
00000000
00000030
0000001c
0000030e
007001c6
003c00e0
00180060
00180000
00180040
001800e0
0018fff0
107ff8e0
1fff01c0
0f980180
04180380
00180700
00180e00
00181c00
00187000
0018c000
00180000
00180000
00180000
00180000
00180000
001c00c0
000fffe0
0007ffc0
00000000
00000000
00000000
00000000
ENDCHAR
STARTCHAR 253d
ENCODING 9533
SWIDTH 225 0
DWIDTH 32 0
BBX 32 32 0 -2
BITMAP
00000000
00000000
00000000
00000000
00000000
00000180
000000e0
060000f0
030000e0
018000c0
01c000c0
00e000c0
00e001c0
00700180
00700180
00600380
00000300
00000700
00000600
00000e00
00001c00
00003800
00007000
0000e000
0001c000
00038000
000e0000
00380000
00e00000
00000000
00000000
00000000
ENDCHAR
STARTCHAR 253e
ENCODING 9534
SWIDTH 225 0
DWIDTH 32 0
BBX 32 32 0 -2
BITMAP
00000000
00000030
0000001c
0000018e
000000e6
00000070
00000030
06000180
030000e0
018000e0
01c000c0
00e000c0
00e001c0
00700180
00700180
00600380
00000300
00000700
00000600
00000e00
00001c00
00003800
00007000
0000e000
0001c000
00038000
000e0000
00380000
00e00000
00000000
00000000
00000000
ENDCHAR
STARTCHAR 253f
ENCODING 9535
SWIDTH 225 0
DWIDTH 32 0
BBX 32 32 0 -2
BITMAP
00000000
00000000
00000000
000e0000
00078000
00030100
00030380
0007ffc0
0007f380
000e0300
000c0300
001c0700
00380600
00300600
006c0e00
00c70c00
0181dc00
0300f800
06007800
00007c00
0000ee00
0000c700
0001c700
00038300
00070000
000e0000
00180000
00700000
01c00000
00000000
00000000
00000000
ENDCHAR
STARTCHAR 2540
ENCODING 9536
SWIDTH 225 0
DWIDTH 32 0
BBX 32 32 0 -2
BITMAP
00000030
0000001c
0000018e
000e00e6
00078070
00030030
00030300
0007ff80
0007f380
000e0300
000c0300
001c0700
00380600
00300600
006c0e00
00c70c00
0181dc00
0300f800
06007800
00007c00
0000ee00
0000c700
0001c700
00038300
00070000
000e0000
00180000
00700000
01c00000
00000000
00000000
00000000
ENDCHAR
STARTCHAR 2541
ENCODING 9537
SWIDTH 225 0
DWIDTH 32 0
BBX 32 32 0 -2
BITMAP
00000000
00000000
00000000
00001800
00000e00
0000ff00
0007f000
007f8000
07e1c000
00018000
00018000
00018000
00018060
2001fff0
3ffffff8
1fff8000
08018000
00018000
00018000
00018000
00038000
00030000
00030000
00060000
00060000
000c0000
00180000
00700000
01c00000
00000000
00000000
00000000
ENDCHAR
STARTCHAR 2542
ENCODING 9538
SWIDTH 225 0
DWIDTH 32 0
BBX 32 32 0 -2
BITMAP
00000000
00000030
0000001c
0000180e
00000e06
0000ff60
0007f038
007f801c
07e1c00c
00018000
00018000
00018000
00018060
2001fff0
3ffffff8
1fff8000
08018000
00018000
00018000
00018000
00038000
00030000
00030000
00060000
00060000
000c0000
00180000
00700000
01c00000
00000000
00000000
00000000
ENDCHAR
STARTCHAR 2543
ENCODING 9539
SWIDTH 225 0
DWIDTH 32 0
BBX 32 32 0 -2
BITMAP
00000000
00000000
00000000
00000000
00000000
00000000
00000000
00000000
00000000
00000000
00080200
000c0380
020601c0
03070180
01830180
01c38380
00c18300
00e10300
00600700
00400600
00000e00
00000c00
00001c00
00003800
00007000
0000e000
0001c000
00038000
000e0000
00380000
00000000
00000000
ENDCHAR
STARTCHAR 2544
ENCODING 9540
SWIDTH 225 0
DWIDTH 32 0
BBX 32 32 0 -2
BITMAP
00000000
00000000
00000000
00000000
00000000
00300180
001800e0
180c00f0
0c0e00e0
060700c0
070700c0
030381c0
038381c0
01810180
01c00180
01c00380
00800300
00000700
00000600
00000e00
00001c00
00003800
00007000
0000e000
0001c000
00038000
000e0000
00380000
00e00000
00000000
00000000
00000000
ENDCHAR
STARTCHAR 2545
ENCODING 9541
SWIDTH 225 0
DWIDTH 32 0
BBX 32 32 0 -2
BITMAP
00000000
00000030
0000001c
0000018e
000000e6
00300070
00180030
180c0180
0c0e00e0
060700f0
070700c0
030381c0
038381c0
01810180
01c00180
01c00380
00800300
00000700
00000600
00000e00
00001c00
00003800
00007000
0000e000
0001c000
00038000
000e0000
00380000
00e00000
00000000
00000000
00000000
ENDCHAR
STARTCHAR 2546
ENCODING 9542
SWIDTH 225 0
DWIDTH 32 0
BBX 32 32 0 -2
BITMAP
00000000
00000000
00000000
00000000
00000600
0103ff00
01ffff80
00fc0000
00400000
00000000
00000000
00000000
00000030
2001fff8
3ffffffc
1fffc000
0c018000
00018000
00018000
00018000
00018000
00038000
00030000
00030000
00060000
00060000
000c0000
00180000
00700000
01c00000
00000000
00000000
ENDCHAR
STARTCHAR 2547
ENCODING 9543
SWIDTH 225 0
DWIDTH 32 0
BBX 32 32 0 -2
BITMAP
00000000
00000030
0000001c
0000018e
000008e6
0103fc70
01fffe30
00fc0000
00400000
00000000
00000000
00000000
00000030
2001fff8
3ffffffc
1fffc000
0c018000
00018000
00018000
00018000
00018000
00038000
00030000
00030000
00060000
00060000
000c0000
00180000
00700000
01c00000
00000000
00000000
ENDCHAR
STARTCHAR 2548
ENCODING 9544
SWIDTH 225 0
DWIDTH 32 0
BBX 32 32 0 -2
BITMAP
00000000
00000000
00380000
001e0000
000c0000
000c0000
000c0000
000c0000
000c0000
000c0000
000c0000
000c0000
000f0000
000de000
000c7800
000c1e00
000c0f00
000c0780
000c03c0
000c01c0
000c00c0
000c0000
000c0000
000c0000
000c0000
000c0000
000c0000
000c0000
000c0000
000c0000
00000000
00000000
ENDCHAR
STARTCHAR 2549
ENCODING 9545
SWIDTH 225 0
DWIDTH 32 0
BBX 32 32 0 -2
BITMAP
00000000
00000000
003800c0
001e0070
000c0c38
000c071c
000c038c
000c01c0
000c00c0
000c0000
000c0000
000c0000
000f0000
000de000
000c7800
000c1e00
000c0f00
000c0780
000c03c0
000c01c0
000c00c0
000c0000
000c0000
000c0000
000c0000
000c0000
000c0000
000c0000
000c0000
000c0000
00000000
00000000
ENDCHAR
STARTCHAR 254a
ENCODING 9546
SWIDTH 225 0
DWIDTH 32 0
BBX 32 32 0 -2
BITMAP
00000000
00000000
00000000
00070000
0003c000
00018000
00018000
00018000
00018000
00018000
00018030
2001fff8
3ffffffc
1fff8000
08018000
00018000
00018000
00018000
00038000
00030000
00030000
00070000
00060000
000e0000
000c0000
00180000
00300000
00e00000
01800000
00000000
00000000
00000000
ENDCHAR
STARTCHAR 254b
ENCODING 9547
SWIDTH 225 0
DWIDTH 32 0
BBX 32 32 0 -2
BITMAP
00000000
00000000
00000000
00000000
00000000
00000000
00000200
0201ff00
03ffff80
01fe0000
00800000
00000000
00000000
00000000
00000000
00000000
00000000
00000000
00000000
00000000
00000000
10000030
1ffffff8
0ffffffc
06000000
00000000
00000000
00000000
00000000
00000000
00000000
00000000
ENDCHAR
STARTCHAR 254c
ENCODING 9548
SWIDTH 225 0
DWIDTH 32 0
BBX 32 32 0 -2
BITMAP
00000000
00000000
00000000
00000000
00000000
00000000
01000300
0183ff80
01ffc3c0
00fc0380
00400300
00000700
00000600
00300600
001c0e00
00070c00
0003dc00
0000f800
00007800
00007c00
0000ee00
0001cf00
00038780
000703c0
000e01c0
001c0080
00700000
01c00000
07000000
00000000
00000000
00000000
ENDCHAR
STARTCHAR 254d
ENCODING 9549
SWIDTH 225 0
DWIDTH 32 0
BBX 32 32 0 -2
BITMAP
00000000
00000000
000c0000
00070000
00038000
0001c000
0001c000
00008400
02000e00
0307ff00
01ffce00
01f81c00
00803800
00007000
0000e000
0001c000
00039800
00078e00
000f8700
001d8380
003981c0
006180e0
01c180e0
07018060
0c018000
00018000
00018000
00018000
00018000
00018000
00000000
00000000
ENDCHAR
STARTCHAR 254e
ENCODING 9550
SWIDTH 225 0
DWIDTH 32 0
BBX 32 32 0 -2
BITMAP
00000000
00000000
00000000
00000000
00003000
00001c00
00000e00
00000f00
00000e00
00000c00
00001c00
00001c00
00001800
00003800
00003800
00003000
00007000
00006000
0000e000
0001c000
00018000
00038000
00070000
000e0000
001c0000
00380000
00600000
01c00000
03000000
00000000
00000000
00000000
ENDCHAR
STARTCHAR 254f
ENCODING 9551
SWIDTH 225 0
DWIDTH 32 0
BBX 32 32 0 -2
BITMAP
00000000
00000000
00000000
00000000
00000000
00000000
00000000
00703000
003c1800
001c0c00
00180600
00380700
00380300
00300380
007001c0
006001c0
006000e0
00e000e0
00c00070
01c00070
01800070
03000038
03000038
06000038
0c000038
18000010
30000000
00000000
00000000
00000000
00000000
00000000
ENDCHAR
STARTCHAR 2550
ENCODING 9552
SWIDTH 225 0
DWIDTH 32 0
BBX 32 32 0 -2
BITMAP
00000000
00000000
00000060
00000038
0000001c
0000030c
000001c0
007030e0
003c1860
001c0c00
00180600
00180700
00380300
00300380
003001c0
007001c0
006000e0
00e000e0
00c00070
01c00070
01800070
03000038
03000038
06000038
0c000038
18000010
30000000
00000000
00000000
00000000
00000000
00000000
ENDCHAR
STARTCHAR 2551
ENCODING 9553
SWIDTH 225 0
DWIDTH 32 0
BBX 32 32 0 -2
BITMAP
00000000
00000000
00000000
00000078
000000cc
00000084
00000084
007030cc
003c1878
001c0c00
00180600
00180700
00380300
00300380
003001c0
007001c0
006000e0
00e000e0
00c00070
01c00070
01800070
03000038
03000038
06000038
0c000038
18000010
30000000
00000000
00000000
00000000
00000000
00000000
ENDCHAR
STARTCHAR 2552
ENCODING 9554
SWIDTH 225 0
DWIDTH 32 0
BBX 32 32 0 -2
BITMAP
00000000
00000000
00000000
00000000
00000000
07000000
03c00000
01800000
01800600
01800300
01800780
01801f00
01807c00
0183e000
019f0000
01f00000
01800000
01800000
01800000
01800000
01800000
01800000
01800000
01800000
01c000c0
00ffffe0
007fffc0
00000000
00000000
00000000
00000000
00000000
ENDCHAR
STARTCHAR 2553
ENCODING 9555
SWIDTH 225 0
DWIDTH 32 0
BBX 32 32 0 -2
BITMAP
00000000
00000000
00000030
0000001c
0000000e
07000186
03c000e0
01800070
01800630
01800300
01800780
01801f00
01807c00
0183e000
019f0000
01f00000
01800000
01800000
01800000
01800000
01800000
01800000
01800000
01800000
01c000c0
00ffffe0
007fffc0
00000000
00000000
00000000
00000000
00000000
ENDCHAR
STARTCHAR 2554
ENCODING 9556
SWIDTH 225 0
DWIDTH 32 0
BBX 32 32 0 -2
BITMAP
00000000
00000000
00000078
000000cc
00000084
07000084
03c000cc
01800078
01800600
01800300
01800780
01801f00
01807c00
0183e000
019f0000
01f00000
01800000
01800000
01800000
01800000
01800000
01800000
01800000
01800000
01c000c0
00ffffe0
007fffc0
00000000
00000000
00000000
00000000
00000000
ENDCHAR
STARTCHAR 2555
ENCODING 9557
SWIDTH 225 0
DWIDTH 32 0
BBX 32 32 0 -2
BITMAP
00000000
00000000
00000000
00000000
00000000
00000000
000000c0
0403ffe0
07fff8f0
03fc00e0
018000c0
000001c0
00000180
00000180
00000380
00000300
00000700
00000600
00000e00
00001c00
00003800
00007000
0000e000
0001c000
00038000
000e0000
00380000
00e00000
00000000
00000000
00000000
00000000
ENDCHAR
STARTCHAR 2556
ENCODING 9558
SWIDTH 225 0
DWIDTH 32 0
BBX 32 32 0 -2
BITMAP
00000000
00000018
0000000e
00000187
000000e3
00000070
00000030
00000180
0807ffc0
0ffff1c0
07f80180
03000180
00000380
00000300
00000300
00000700
00000600
00000e00
00000c00
00001c00
00003800
00007000
0000e000
0001c000
00038000
00070000
001c0000
00700000
01c00000
00000000
00000000
00000000
ENDCHAR
STARTCHAR 2557
ENCODING 9559
SWIDTH 225 0
DWIDTH 32 0
BBX 32 32 0 -2
BITMAP
00000000
0000003c
00000066
00000042
00000042
00000066
0000003c
00000180
0807ffc0
0ffff1c0
07f80180
03000180
00000380
00000300
00000300
00000700
00000600
00000e00
00000c00
00001c00
00003800
00007000
0000e000
0001c000
00038000
00070000
001c0000
00700000
01c00000
00000000
00000000
00000000
ENDCHAR
STARTCHAR 2558
ENCODING 9560
SWIDTH 225 0
DWIDTH 32 0
BBX 32 32 0 -2
BITMAP
00000000
00000000
00000000
00000000
00000000
00000000
00000000
00000000
000e0000
001b0000
00318000
0060c000
00606000
00c07000
01c03800
03801c00
03000e00
17000700
1e000780
0e0003c0
040001e0
000000f0
00000078
0000003c
0000001c
00000008
00000000
00000000
00000000
00000000
00000000
00000000
ENDCHAR
STARTCHAR 2559
ENCODING 9561
SWIDTH 225 0
DWIDTH 32 0
BBX 32 32 0 -2
BITMAP
00000000
00000000
00000180
000000e0
00000070
00000070
00000c30
00000700
000e0380
001b0380
00318180
0060c000
00606000
00c07000
01c03800
03801c00
03000e00
17000700
1e000780
0e0003c0
040001e0
000000f0
00000078
0000003c
0000001c
00000008
00000000
00000000
00000000
00000000
00000000
00000000
ENDCHAR
STARTCHAR 255a
ENCODING 9562
SWIDTH 225 0
DWIDTH 32 0
BBX 32 32 0 -2
BITMAP
00000000
00000000
00000000
000001e0
00000330
00000210
00000210
00000330
000e01e0
001b0000
00318000
0060c000
00606000
00c07000
01c03800
03801c00
03000e00
17000700
1e000780
0e0003c0
040001e0
000000f0
00000078
0000003c
0000001c
00000008
00000000
00000000
00000000
00000000
00000000
00000000
ENDCHAR
STARTCHAR 255b
ENCODING 9563
SWIDTH 225 0
DWIDTH 32 0
BBX 32 32 0 -2
BITMAP
00000000
00000000
00060000
00038000
0001c000
00018000
00018000
00018000
00018060
1007fff0
1ffffff8
0ff98000
04018000
00018000
00018600
00818300
00818180
008181c0
018180e0
018180e0
03018070
03018070
07018038
0e318038
1e198018
0c0d8010
00078000
00070000
00020000
00000000
00000000
00000000
ENDCHAR
STARTCHAR 255c
ENCODING 9564
SWIDTH 225 0
DWIDTH 32 0
BBX 32 32 0 -2
BITMAP
00000000
00000030
0006001c
0003830e
0001c1c6
000180e0
00018060
00018000
00018060
1007fff0
1ffffff8
0ff98000
04018000
00018000
00018600
00818300
00818180
008181c0
018180e0
018180e0
03018070
03018070
07018038
0e318038
1e198018
0c0d8010
00078000
00070000
00020000
00000000
00000000
00000000
ENDCHAR
STARTCHAR 255d
ENCODING 9565
SWIDTH 225 0
DWIDTH 32 0
BBX 32 32 0 -2
BITMAP
00000000
0000003c
00060066
00038042
0001c042
00018066
0001803c
00018000
00018060
1007fff0
1ffffff8
0ff98000
04018000
00018000
00018600
00818300
00818180
008181c0
018180e0
018180e0
03018070
03018070
07018038
0e318038
1e198018
0c0d8010
00078000
00070000
00020000
00000000
00000000
00000000
ENDCHAR
STARTCHAR 255e
ENCODING 9566
SWIDTH 225 0
DWIDTH 32 0
BBX 32 32 0 -2
BITMAP
00000000
00000000
00000000
00000000
00000000
00000000
00000000
20000030
300ffff8
1ffffc7c
1ff000f0
0c0000e0
000001c0
00000380
00000700
00000e00
00c01c00
00703800
001c6000
000ec000
00078000
00038000
0003c000
0001e000
0000e000
00007000
00007000
00002000
00000000
00000000
00000000
00000000
ENDCHAR
STARTCHAR 255f
ENCODING 9567
SWIDTH 225 0
DWIDTH 32 0
BBX 32 32 0 -2
BITMAP
00000000
00000000
00000000
00000000
007c0000
000fc000
0001f000
00007800
00003c00
00000c00
00000000
00000000
00f00000
001f0000
0007e000
0001f000
00007800
00001800
00000000
00000000
00000000
03f00000
003f0000
0007e000
0001fc00
00007e00
00001f00
00000700
00000300
00000000
00000000
00000000
ENDCHAR
STARTCHAR 2560
ENCODING 9568
SWIDTH 225 0
DWIDTH 32 0
BBX 32 32 0 -2
BITMAP
00000000
00000000
00000000
000c0000
00070000
00038000
00038000
00070000
00070000
00060000
000e0000
000e0000
000c0000
001c0000
00180c00
00180600
00300300
00300180
006001c0
006000e0
00c000e0
00c00070
018007f0
110ffe38
1fffe038
0ff80018
0c000018
04000010
00000000
00000000
00000000
00000000
ENDCHAR
STARTCHAR 2561
ENCODING 9569
SWIDTH 225 0
DWIDTH 32 0
BBX 32 32 0 -2
BITMAP
00000000
00000000
00000000
00000000
00007000
00003800
00001c00
00001c00
00001800
00001800
00003800
01c03000
00783000
001e7000
00076000
0003e000
0001c000
0000f000
0001f800
0001bc00
00031e00
00070f00
000e0780
001c0380
00380100
00700000
00e00000
03800000
0e000000
00000000
00000000
00000000
ENDCHAR
STARTCHAR 2562
ENCODING 9570
SWIDTH 225 0
DWIDTH 32 0
BBX 32 32 0 -2
BITMAP
00000000
00000000
00000000
00000000
00000000
00000300
0407ff80
07ffffc0
03fb0000
01030000
00030000
00030000
00030000
00030060
1003fff0
1ffffff8
0fff0000
06030000
00030000
00030000
00030000
00030000
00030000
00030000
00030000
00038060
0001fff0
00007fe0
00000000
00000000
00000000
00000000
ENDCHAR
STARTCHAR 2563
ENCODING 9571
SWIDTH 225 0
DWIDTH 32 0
BBX 32 32 0 -2
BITMAP
00000000
00000000
00000000
00000000
00000000
00000000
00000000
00000000
00700000
003c0000
00180080
000c01c0
000c7fe0
000ff9c0
0c7f8380
07f60300
07860700
02060600
00030c00
00031800
00033000
00018000
00018000
00018000
0000c000
0000c000
0000e000
00006000
00006000
00000000
00000000
00000000
ENDCHAR
STARTCHAR 2564
ENCODING 9572
SWIDTH 225 0
DWIDTH 32 0
BBX 32 32 0 -2
BITMAP
00000000
00000000
00000000
00f00000
00780000
00180000
00180040
001800e0
000c1ff0
000dfef8
001fe0f0
21fe01c0
3fe601c0
1f060380
08060700
00030600
00030c00
00031800
00033000
00018000
00018000
00018000
0001c000
0000c000
0000c000
0000e000
00006000
00006000
00006000
00000000
00000000
00000000
ENDCHAR
STARTCHAR 2565
ENCODING 9573
SWIDTH 225 0
DWIDTH 32 0
BBX 32 32 0 -2
BITMAP
00000000
00000000
00000000
00000000
00000000
00000000
00000000
00000000
00000000
00000000
00000000
00000c00
0103fe00
01fffe00
00fc0c00
00400c00
00000c00
00000c00
00000c00
00001800
00001800
00001800
00001800
080018c0
0fffffe0
07fffff0
02000000
00000000
00000000
00000000
00000000
00000000
ENDCHAR
STARTCHAR 2566
ENCODING 9574
SWIDTH 225 0
DWIDTH 32 0
BBX 32 32 0 -2
BITMAP
00000000
00000000
00000000
00000000
00000000
00000000
00000000
02000600
0301ff00
01ffff80
01fe0700
00800600
00000600
00000600
00000600
00000600
00000e00
00000c00
00000c00
00000c00
00000c00
00000c00
10000c30
1ffffff8
0ffffffc
06000000
00000000
00000000
00000000
00000000
00000000
00000000
ENDCHAR
STARTCHAR 2567
ENCODING 9575
SWIDTH 225 0
DWIDTH 32 0
BBX 32 32 0 -2
BITMAP
00000000
00000000
00000000
00000000
00000000
00000000
00000000
00000000
00000000
00000000
00000300
0101ff80
01ffff80
00fe0300
00400300
00000300
00000300
00800300
00ffff00
007ffe00
00200600
00000600
00000600
00000600
00000600
01000600
01ffff00
00ffff80
00400000
00000000
00000000
00000000
ENDCHAR
STARTCHAR 2568
ENCODING 9576
SWIDTH 225 0
DWIDTH 32 0
BBX 32 32 0 -2
BITMAP
00000000
00000000
00000000
00000000
00000000
000000c0
0400ffe0
07fffff0
03ff00e0
010000c0
000000c0
000000c0
000000c0
000000c0
020000c0
03ffffc0
01ffff80
00800180
00000180
00000180
00000180
00000180
00000180
04000180
06000180
03ffffe0
03fffff0
01800000
00000000
00000000
00000000
00000000
ENDCHAR
STARTCHAR 2569
ENCODING 9577
SWIDTH 225 0
DWIDTH 32 0
BBX 32 32 0 -2
BITMAP
00000000
00000000
00000000
00000000
01000600
0181ff00
00ffff80
007e0000
00000000
00000000
00000000
080000c0
0c0fffe0
07fff8f0
07f001c0
020001c0
00000380
00000380
00000700
00000600
00000e00
00001c00
00003800
00007000
0001e000
00038000
000e0000
00780000
01c00000
00000000
00000000
00000000
ENDCHAR
STARTCHAR 256a
ENCODING 9578
SWIDTH 225 0
DWIDTH 32 0
BBX 32 32 0 -2
BITMAP
00000000
00000000
00000000
00001c00
00000e00
01c00700
00f00600
00600600
00600600
00600600
00600600
00600600
00600600
00600600
00600600
00600600
00600600
00600600
00600600
00600e00
00000c00
00001c00
00001800
00003800
00007000
0000e000
0001c000
00070000
001c0000
00000000
00000000
00000000
ENDCHAR
STARTCHAR 256b
ENCODING 9579
SWIDTH 225 0
DWIDTH 32 0
BBX 32 32 0 -2
BITMAP
00000000
00000000
00000000
00000000
00000000
0001c000
00e0f000
00786000
00306000
00306000
00306000
00306000
00306000
00306004
00306004
0030600c
00706008
00606018
00606010
00e06030
00c06060
01c060e0
018061c0
03806380
03006f00
0600fe00
0c007800
18002000
30000000
00000000
00000000
00000000
ENDCHAR
STARTCHAR 256c
ENCODING 9580
SWIDTH 225 0
DWIDTH 32 0
BBX 32 32 0 -2
BITMAP
00000000
00000000
00000000
00000000
00c00000
00700000
00380000
00300000
00300000
00300000
00300008
00300008
00300018
00300010
00300030
00300060
003000e0
003001c0
00300380
00300700
00300e00
00301c00
00307800
0031f000
0037c000
007f0000
003c0000
00100000
00000000
00000000
00000000
00000000
ENDCHAR
STARTCHAR 256d
ENCODING 9581
SWIDTH 225 0
DWIDTH 32 0
BBX 32 32 0 -2
BITMAP
00000000
00000000
00000000
00000000
00000000
00000000
00000180
0700ffc0
03ffffc0
01ff8180
01800180
01800180
01800180
01800180
01800180
01800180
01800180
01800180
01800300
01800300
01800300
01800300
01800300
01800300
01ffff80
01ffffc0
01800000
01800000
00000000
00000000
00000000
00000000
ENDCHAR
STARTCHAR 256e
ENCODING 9582
SWIDTH 225 0
DWIDTH 32 0
BBX 32 32 0 -2
BITMAP
00000000
00000000
00000000
00000000
00000000
00000000
00000000
00000000
00000000
01000000
01800300
00ffff80
00ffff80
00c00300
00c00300
00c00300
00c00300
00c00700
00c00600
00c00600
00c00e00
00000c00
00001c00
00001800
00003000
00006000
0001c000
00070000
001c0000
00000000
00000000
00000000
ENDCHAR
STARTCHAR 256f
ENCODING 9583
SWIDTH 225 0
DWIDTH 32 0
BBX 32 32 0 -2
BITMAP
00000000
00000000
00000000
00000000
00000000
060000c0
0301ffe0
03fffff0
01fe00e0
018000c0
018000c0
018000c0
018000c0
018000c0
018000c0
018000c0
018001c0
01800180
01800180
01800380
00000300
00000700
00000e00
00001c00
00003800
00007000
0001c000
000f0000
00380000
00000000
00000000
00000000
ENDCHAR
STARTCHAR 2570
ENCODING 9584
SWIDTH 225 0
DWIDTH 32 0
BBX 32 32 0 -2
BITMAP
00000000
00000000
00000000
0001c000
0000f000
00006000
00006000
00006000
080060c0
0c1fffe0
07fffff0
03f06000
00306000
00306000
00306000
00306000
00306000
20306010
303ffff8
1ffffffc
1fe06000
08006000
00006000
00006000
00006000
00006000
00006000
00006000
00006000
00006000
00000000
00000000
ENDCHAR
STARTCHAR 2571
ENCODING 9585
SWIDTH 225 0
DWIDTH 32 0
BBX 32 32 0 -2
BITMAP
00000000
00000000
00000000
00000000
00000000
00000000
00000080
000001c0
0607ffe0
03fffcf0
03f801e0
01000380
00000700
00030e00
0001b800
0001e000
00018000
00018000
00018000
00018000
00018000
00018000
30018030
1ffffff8
1ffffffc
0c000000
00000000
00000000
00000000
00000000
00000000
00000000
ENDCHAR
STARTCHAR 2572
ENCODING 9586
SWIDTH 225 0
DWIDTH 32 0
BBX 32 32 0 -2
BITMAP
00000000
00000000
00000000
00000000
00000080
040001c0
07ffffe0
03fff8e0
018000c0
000000c0
000000c0
000000c0
000000c0
0403ffc0
07ffffc0
03fc01c0
01000180
00000180
00000380
00000300
00000700
00000e00
00001c00
00003800
00007000
0000e000
00038000
000e0000
00780000
00000000
00000000
00000000
ENDCHAR
STARTCHAR 2573
ENCODING 9587
SWIDTH 225 0
DWIDTH 32 0
BBX 32 32 0 -2
BITMAP
00000000
00000000
00000000
00000000
00000000
00000000
07000000
01e00000
00780000
003c0010
001e0010
000e0030
00040020
00000060
00000040
000000c0
00000180
00000300
00000700
00000e00
00001c00
00003800
0000f000
0003e000
041f8000
06fe0000
03f80000
03c00000
01000000
00000000
00000000
00000000
ENDCHAR
STARTCHAR 2574
ENCODING 9588
SWIDTH 225 0
DWIDTH 32 0
BBX 32 32 0 -2
BITMAP
00000000
00000030
0000031c
000701ce
0003c0e6
00018060
00018000
000180c0
0701ffe0
03ffffe0
01ff00c0
018000c0
018000c0
018000c0
018001c0
01800180
01800180
01800380
01800300
01800700
00000600
00000e00
00001c00
00003800
00007000
0000e000
00018000
00070000
001c0000
00000000
00000000
00000000
ENDCHAR
STARTCHAR 2575
ENCODING 9589
SWIDTH 225 0
DWIDTH 32 0
BBX 32 32 0 -2
BITMAP
00000000
00000000
00000000
00000000
00000000
00000000
00000000
00000000
00070000
00038000
00030000
00030000
00030300
0203ff80
03ffff80
01ff0300
00830300
00070300
00060300
00060300
000e0300
000c0300
001c0700
0018c700
00306600
00603e00
00c01e00
03800c00
06000800
00000000
00000000
00000000
ENDCHAR
STARTCHAR 2576
ENCODING 9590
SWIDTH 225 0
DWIDTH 32 0
BBX 32 32 0 -2
BITMAP
00000000
00000000
00000000
00000000
00000000
00000000
00000000
00000000
00700000
00380000
00300000
00300000
00300180
00603fc0
007fffe0
007ff000
00e03000
00c03000
01c03000
01807000
03006000
06006000
0c00e000
0000c000
0001c000
00038000
00070000
001c0000
00700000
00000000
00000000
00000000
ENDCHAR
STARTCHAR 2577
ENCODING 9591
SWIDTH 225 0
DWIDTH 32 0
BBX 32 32 0 -2
BITMAP
00000000
00000000
00000000
00000000
00000000
00000000
00000000
00000000
00000000
00000000
00000000
00000000
00000000
00000000
00000000
00000000
00000000
00000000
00000000
00000000
00000000
00000000
00000000
00000000
00000000
00000000
00000000
00000000
00000000
00000000
00000000
00000000
ENDCHAR
STARTCHAR 2578
ENCODING 9592
SWIDTH 225 0
DWIDTH 32 0
BBX 32 32 0 -2
BITMAP
00000000
00000000
00000000
00000000
00000000
00000000
00000000
00000000
00000000
00000000
00000000
00000000
00000000
00000000
00000000
00000000
00000000
00000000
00000000
00000000
00000000
00000000
00000000
00000000
00000000
00000000
00000000
00000000
00000000
00000000
00000000
00000000
ENDCHAR
STARTCHAR 2579
ENCODING 9593
SWIDTH 225 0
DWIDTH 32 0
BBX 32 32 0 -2
BITMAP
00000000
00000000
00000000
00000000
00000000
00000000
00000000
00000000
00000000
00000000
00000000
00000000
00000000
00000000
00000000
00000000
00000000
00000000
00000000
00000000
00000000
00000000
00000000
00000000
00000000
00000000
00000000
00000000
00000000
00000000
00000000
00000000
ENDCHAR
STARTCHAR 257a
ENCODING 9594
SWIDTH 225 0
DWIDTH 32 0
BBX 32 32 0 -2
BITMAP
00000000
00000000
00000000
00000000
00000000
00000000
00000000
00000000
00000000
00000000
00000000
00000000
00000000
00000000
00000000
00000000
00000000
00000000
00000000
00000000
00000000
00000000
00000000
00000000
00000000
00000000
00000000
00000000
00000000
00000000
00000000
00000000
ENDCHAR
STARTCHAR 257b
ENCODING 9595
SWIDTH 225 0
DWIDTH 32 0
BBX 32 32 0 -2
BITMAP
00000000
00000000
00000000
00000000
00000000
00000000
00000000
00000000
00000000
00000000
00000000
00000000
00000000
00000000
00000000
00000000
00000000
00000000
00000000
00000000
00000000
00000000
00000000
00000000
00000000
00000000
00000000
00000000
00000000
00000000
00000000
00000000
ENDCHAR
STARTCHAR 257c
ENCODING 9596
SWIDTH 225 0
DWIDTH 32 0
BBX 32 32 0 -2
BITMAP
00000000
00000000
00000000
00000000
00000000
00000000
00000000
00000000
00000000
00000000
00000000
00000000
00000000
00000000
00000000
00000000
00000000
00000000
00000000
00000000
00000000
00000000
00000000
00000000
00000000
00000000
00000000
00000000
00000000
00000000
00000000
00000000
ENDCHAR
STARTCHAR 257d
ENCODING 9597
SWIDTH 225 0
DWIDTH 32 0
BBX 32 32 0 -2
BITMAP
00000000
00000000
00000000
00000000
00000000
00000000
00000000
00000000
00000000
00000000
00000000
00000000
00000000
00000000
00000000
00000000
00000000
00000000
00000000
00000000
00000000
00000000
00000000
00000000
00000000
00000000
00000000
00000000
00000000
00000000
00000000
00000000
ENDCHAR
STARTCHAR 257e
ENCODING 9598
SWIDTH 225 0
DWIDTH 32 0
BBX 32 32 0 -2
BITMAP
00000000
00000000
00000000
00000000
00000000
00000000
00000000
00000000
00000000
00000000
00000000
00000000
00000000
00000000
00000000
00000000
00000000
00000000
00000000
00000000
00000000
00000000
00000000
00000000
00000000
00000000
00000000
00000000
00000000
00000000
00000000
00000000
ENDCHAR
STARTCHAR 2621
ENCODING 9761
SWIDTH 225 0
DWIDTH 32 0
BBX 32 32 0 -2
BITMAP
00000000
00000000
00000000
00000000
00018000
00018000
0003c000
0002c000
0006e000
00046000
00046000
000c7000
00083000
00083800
00181800
00101c00
00300c00
00200c00
003ffe00
00600600
00400700
00c00300
00800300
01800380
01000180
038003c0
0ff00ff0
00000000
00000000
00000000
00000000
00000000
ENDCHAR
STARTCHAR 2622
ENCODING 9762
SWIDTH 225 0
DWIDTH 32 0
BBX 32 32 0 -2
BITMAP
00000000
00000000
00000000
00000000
03fff000
00f03c00
00600600
00600600
00600300
00600300
00600300
00600700
00600600
00603c00
007ff000
00603c00
00600600
00600300
00600380
00600180
00600180
00600180
00600380
00600300
00600700
00f01e00
03fff800
00000000
00000000
00000000
00000000
00000000
ENDCHAR
STARTCHAR 2623
ENCODING 9763
SWIDTH 225 0
DWIDTH 32 0
BBX 32 32 0 -2
BITMAP
00000000
00000000
00000000
00000000
00ffffc0
003c07c0
001801c0
001800c0
00180040
00180040
00180040
00180000
00180000
00180000
00180000
00180000
00180000
00180000
00180000
00180000
00180000
00180000
00180000
00180000
00180000
003c0000
00ff0000
00000000
00000000
00000000
00000000
00000000
ENDCHAR
STARTCHAR 2624
ENCODING 9764
SWIDTH 225 0
DWIDTH 32 0
BBX 32 32 0 -2
BITMAP
00000000
00000000
00000000
00000000
00018000
00018000
0003c000
0002c000
0006e000
00046000
00046000
000c7000
00083000
00183800
00101800
00101c00
00300c00
00200c00
00200e00
00600600
00400700
00c00300
00800380
01800380
010001c0
03ffffc0
03ffffe0
00000000
00000000
00000000
00000000
00000000
ENDCHAR
STARTCHAR 2625
ENCODING 9765
SWIDTH 225 0
DWIDTH 32 0
BBX 32 32 0 -2
BITMAP
00000000
00000000
00000000
00000000
03ffff80
00f00780
00600180
00600180
00600080
00600080
00601000
00601000
00603000
00607000
007ff000
00607000
00603000
00601000
00601000
00600000
00600080
00600080
00600180
00600180
00600380
00f00780
03ffff80
00000000
00000000
00000000
00000000
00000000
ENDCHAR
STARTCHAR 2626
ENCODING 9766
SWIDTH 225 0
DWIDTH 32 0
BBX 32 32 0 -2
BITMAP
00000000
00000000
00000000
00000000
00ffff80
00e00700
00c00e00
00800c00
00801c00
00003800
00003000
00007000
0000e000
0000c000
0001c000
00038000
00030000
00070000
000e0000
000c0000
001c0000
00380040
00300040
007000c0
00e001c0
00c007c0
01ffffc0
00000000
00000000
00000000
00000000
00000000
ENDCHAR
STARTCHAR 2627
ENCODING 9767
SWIDTH 225 0
DWIDTH 32 0
BBX 32 32 0 -2
BITMAP
00000000
00000000
00000000
00000000
07f81fe0
01e00780
00c00300
00c00300
00c00300
00c00300
00c00300
00c00300
00c00300
00c00300
00ffff00
00c00300
00c00300
00c00300
00c00300
00c00300
00c00300
00c00300
00c00300
00c00300
00c00300
01e00780
07f81fe0
00000000
00000000
00000000
00000000
00000000
ENDCHAR
STARTCHAR 2628
ENCODING 9768
SWIDTH 225 0
DWIDTH 32 0
BBX 32 32 0 -2
BITMAP
00000000
00000000
00000000
00000000
000ff000
00381c00
00600600
00c00300
01800180
038001c0
030000c0
030000c0
071008e0
06100860
06100860
061ff860
061ff860
06100860
071008e0
031008c0
030000c0
038001c0
01800180
00c00300
00600600
00381c00
000ff000
00000000
00000000
00000000
00000000
00000000
ENDCHAR
STARTCHAR 2629
ENCODING 9769
SWIDTH 225 0
DWIDTH 32 0
BBX 32 32 0 -2
BITMAP
00000000
00000000
00000000
00000000
001ff800
0003c000
00018000
00018000
00018000
00018000
00018000
00018000
00018000
00018000
00018000
00018000
00018000
00018000
00018000
00018000
00018000
00018000
00018000
00018000
00018000
0003c000
001ff800
00000000
00000000
00000000
00000000
00000000
ENDCHAR
STARTCHAR 262a
ENCODING 9770
SWIDTH 225 0
DWIDTH 32 0
BBX 32 32 0 -2
BITMAP
00000000
00000000
00000000
00000000
07f83fc0
01e00700
00c00c00
00c01800
00c03000
00c06000
00c0c000
00c18000
00c38000
00c7c000
00ccc000
00d8e000
00f07000
00e03000
00c03800
00c01800
00c01c00
00c00e00
00c00e00
00c00700
00c00380
01e003c0
07f81ff0
00000000
00000000
00000000
00000000
00000000
ENDCHAR
STARTCHAR 262b
ENCODING 9771
SWIDTH 225 0
DWIDTH 32 0
BBX 32 32 0 -2
BITMAP
00000000
00000000
00000000
00000000
00018000
00018000
0003c000
0002c000
0006e000
00046000
00046000
000c7000
00083000
00083800
00181800
00101c00
00300c00
00200c00
00200e00
00600600
00400700
00c00300
00800300
01800380
01000180
038003c0
0ff00ff0
00000000
00000000
00000000
00000000
00000000
ENDCHAR
STARTCHAR 262c
ENCODING 9772
SWIDTH 225 0
DWIDTH 32 0
BBX 32 32 0 -2
BITMAP
00000000
00000000
00000000
00000000
3f0000fc
0f8000f0
058001e0
05c001e0
04c00160
04e00360
04e00260
04700260
04700660
04380460
04380c60
04180860
041c0860
040c1860
040e1060
040e1060
04073060
04072060
04036060
0403c060
0401c060
0e0180f0
3fc087fc
00000000
00000000
00000000
00000000
00000000
ENDCHAR
STARTCHAR 262d
ENCODING 9773
SWIDTH 225 0
DWIDTH 32 0
BBX 32 32 0 -2
BITMAP
00000000
00000000
00000000
00000000
07e00fe0
01f00380
00b00100
00b80100
009c0100
008c0100
008e0100
00870100
00830100
00838100
0081c100
0081c100
0080e100
00806100
00807100
00803900
00803900
00801d00
00800f00
00800700
00800700
01c00300
07f00100
00000100
00000000
00000000
00000000
00000000
ENDCHAR
STARTCHAR 262e
ENCODING 9774
SWIDTH 225 0
DWIDTH 32 0
BBX 32 32 0 -2
BITMAP
00000000
00000000
00000000
00000000
00000000
007fffc0
007fffc0
00c00080
00800080
00800080
00000000
00000000
00100200
00100200
001ffe00
003ffc00
00200400
00200400
00000000
00000000
00000000
00800080
00800080
00800180
01ffff00
01ffff00
00000000
00000000
00000000
00000000
00000000
00000000
ENDCHAR
STARTCHAR 262f
ENCODING 9775
SWIDTH 225 0
DWIDTH 32 0
BBX 32 32 0 -2
BITMAP
00000000
00000000
00000000
00000000
0007e000
003c3c00
00600600
00c00300
01800180
01800180
030000c0
030000c0
070000e0
06000060
06000060
06000060
06000060
06000060
070000e0
030000c0
030000c0
01800180
01800180
00c00300
00600600
003c3c00
0007e000
00000000
00000000
00000000
00000000
00000000
ENDCHAR
STARTCHAR 2630
ENCODING 9776
SWIDTH 225 0
DWIDTH 32 0
BBX 32 32 0 -2
BITMAP
00000000
00000000
00000000
00000000
07ffffe0
01e00780
00c00300
00c00300
00c00300
00c00300
00c00300
00c00300
00c00300
00c00300
00c00300
00c00300
00c00300
00c00300
00c00300
00c00300
00c00300
00c00300
00c00300
00c00300
00c00300
01e00780
07f81fe0
00000000
00000000
00000000
00000000
00000000
ENDCHAR
STARTCHAR 2631
ENCODING 9777
SWIDTH 225 0
DWIDTH 32 0
BBX 32 32 0 -2
BITMAP
00000000
00000000
00000000
00000000
01fff800
00780f00
00300380
00300180
003001c0
003000c0
003000c0
003001c0
00300180
00300380
00300f00
003ff800
00300000
00300000
00300000
00300000
00300000
00300000
00300000
00300000
00300000
00780000
01ff0000
00000000
00000000
00000000
00000000
00000000
ENDCHAR
STARTCHAR 2632
ENCODING 9778
SWIDTH 225 0
DWIDTH 32 0
BBX 32 32 0 -2
BITMAP
00000000
00000000
00000000
00000000
07ffff00
03800300
01c00180
00e00180
00700080
00380080
001c0000
000e0000
00070000
00038000
0001c000
00018000
00030000
00060000
000c0000
00180040
00300040
006000c0
00c000c0
018000c0
03000180
07ffff80
07ffff80
00000000
00000000
00000000
00000000
00000000
ENDCHAR
STARTCHAR 2633
ENCODING 9779
SWIDTH 225 0
DWIDTH 32 0
BBX 32 32 0 -2
BITMAP
00000000
00000000
00000000
00000000
03ffffc0
03c183c0
030180c0
030180c0
02018040
02018040
00018000
00018000
00018000
00018000
00018000
00018000
00018000
00018000
00018000
00018000
00018000
00018000
00018000
00018000
00018000
0003c000
003ffc00
00000000
00000000
00000000
00000000
00000000
ENDCHAR
STARTCHAR 2634
ENCODING 9780
SWIDTH 225 0
DWIDTH 32 0
BBX 32 32 0 -2
BITMAP
00000000
00000000
00000000
00000000
00781e00
00fc3f00
018e7180
01866180
030240c0
0203c040
02018040
02018040
00018000
00018000
00018000
00018000
00018000
00018000
00018000
00018000
00018000
00018000
00018000
00018000
00018000
0003c000
001ff800
00000000
00000000
00000000
00000000
00000000
ENDCHAR
STARTCHAR 2635
ENCODING 9781
SWIDTH 225 0
DWIDTH 32 0
BBX 32 32 0 -2
BITMAP
00000000
00000000
00000000
00000000
000ff000
0003c000
00018000
00018000
000ff000
00399c00
00e18700
01c18380
01818180
038181c0
030180c0
030180c0
030180c0
038181c0
01818180
01c18380
00e18700
00399c00
000ff000
00018000
00018000
0003c000
000ff000
00000000
00000000
00000000
00000000
00000000
ENDCHAR
STARTCHAR 2636
ENCODING 9782
SWIDTH 225 0
DWIDTH 32 0
BBX 32 32 0 -2
BITMAP
00000000
00000000
00000000
00000000
07fc3fc0
01f00f00
00e00600
00700c00
00380800
001c1800
001c1000
000e3000
00076000
0007c000
0003c000
0001e000
0003e000
00027000
00063800
000c3c00
00181e00
00100e00
00300700
00600780
00c003c0
01e001e0
0ff80ff8
00000000
00000000
00000000
00000000
00000000
ENDCHAR
STARTCHAR 2637
ENCODING 9783
SWIDTH 225 0
DWIDTH 32 0
BBX 32 32 0 -2
BITMAP
00000000
00000000
00000000
00000000
0387e1c0
07c183e0
0cc18330
08c18310
08c18310
00c18300
00c18300
00c18300
00c18300
00c18300
00c18300
00c18300
00e18700
00618600
00718e00
00399c00
000ff000
00018000
00018000
00018000
00018000
0003c000
000ff000
00000000
00000000
00000000
00000000
00000000
ENDCHAR
STARTCHAR 2638
ENCODING 9784
SWIDTH 225 0
DWIDTH 32 0
BBX 32 32 0 -2
BITMAP
00000000
00000000
00000000
00000000
0007e000
001c3800
00300c00
00600600
00e00700
00c00300
01c00380
01800180
01800180
01800180
01800180
01800180
01c00380
00c00300
00e00700
00600600
00300c00
00181800
010c3080
01042080
01042080
01fc3f80
01fc3f80
00000000
00000000
00000000
00000000
00000000
ENDCHAR
STARTCHAR 2639
ENCODING 9785
SWIDTH 225 0
DWIDTH 32 0
BBX 32 32 0 -2
BITMAP
00000000
00000000
00000000
00000000
00000000
00000000
00000000
00000000
00000000
00000000
00000000
00000000
00000000
00000000
00000000
00000000
00000000
00000000
00000000
00000000
00000000
00000000
00000000
00000000
00000000
00000000
00000000
00000000
00000000
00000000
00000000
00000000
ENDCHAR
STARTCHAR 263a
ENCODING 9786
SWIDTH 225 0
DWIDTH 32 0
BBX 32 32 0 -2
BITMAP
00000000
00000000
00000000
00000000
00000000
00000000
00000000
00000000
00000000
00000000
00000000
00000000
00000000
00000000
00000000
00000000
00000000
00000000
00000000
00000000
00000000
00000000
00000000
00000000
00000000
00000000
00000000
00000000
00000000
00000000
00000000
00000000
ENDCHAR
STARTCHAR 263b
ENCODING 9787
SWIDTH 225 0
DWIDTH 32 0
BBX 32 32 0 -2
BITMAP
00000000
00000000
00000000
00000000
00000000
00000000
00000000
00000000
00000000
00000000
00000000
00000000
00000000
00000000
00000000
00000000
00000000
00000000
00000000
00000000
00000000
00000000
00000000
00000000
00000000
00000000
00000000
00000000
00000000
00000000
00000000
00000000
ENDCHAR
STARTCHAR 263c
ENCODING 9788
SWIDTH 225 0
DWIDTH 32 0
BBX 32 32 0 -2
BITMAP
00000000
00000000
00000000
00000000
00000000
00000000
00000000
00000000
00000000
00000000
00000000
00000000
00000000
00000000
00000000
00000000
00000000
00000000
00000000
00000000
00000000
00000000
00000000
00000000
00000000
00000000
00000000
00000000
00000000
00000000
00000000
00000000
ENDCHAR
STARTCHAR 263d
ENCODING 9789
SWIDTH 225 0
DWIDTH 32 0
BBX 32 32 0 -2
BITMAP
00000000
00000000
00000000
00000000
00000000
00000000
00000000
00000000
00000000
00000000
00000000
00000000
00000000
00000000
00000000
00000000
00000000
00000000
00000000
00000000
00000000
00000000
00000000
00000000
00000000
00000000
00000000
00000000
00000000
00000000
00000000
00000000
ENDCHAR
STARTCHAR 263e
ENCODING 9790
SWIDTH 225 0
DWIDTH 32 0
BBX 32 32 0 -2
BITMAP
00000000
00000000
00000000
00000000
00000000
00000000
00000000
00000000
00000000
00000000
00000000
00000000
00000000
00000000
00000000
00000000
00000000
00000000
00000000
00000000
00000000
00000000
00000000
00000000
00000000
00000000
00000000
00000000
00000000
00000000
00000000
00000000
ENDCHAR
STARTCHAR 263f
ENCODING 9791
SWIDTH 225 0
DWIDTH 32 0
BBX 32 32 0 -2
BITMAP
00000000
00000000
00000000
00000000
00000000
00000000
00000000
00000000
00000000
00000000
00000000
00000000
00000000
00000000
00000000
00000000
00000000
00000000
00000000
00000000
00000000
00000000
00000000
00000000
00000000
00000000
00000000
00000000
00000000
00000000
00000000
00000000
ENDCHAR
STARTCHAR 2640
ENCODING 9792
SWIDTH 225 0
DWIDTH 32 0
BBX 32 32 0 -2
BITMAP
00000000
00000000
00000000
00000000
00000000
00000000
00000000
00000000
00000000
00000000
00000000
00000000
00000000
00000000
00000000
00000000
00000000
00000000
00000000
00000000
00000000
00000000
00000000
00000000
00000000
00000000
00000000
00000000
00000000
00000000
00000000
00000000
ENDCHAR
STARTCHAR 2641
ENCODING 9793
SWIDTH 225 0
DWIDTH 32 0
BBX 32 32 0 -2
BITMAP
00000000
00000000
00000000
00000000
00000000
00000000
00000000
00000000
00000000
00000000
00000000
00000000
00078000
001cc200
0030c200
00606600
00606400
00c06c00
00c06800
00c07800
00c07000
00c06000
00c06100
00c0e100
0060f300
0073be00
001e1c00
00000000
00000000
00000000
00000000
00000000
ENDCHAR
STARTCHAR 2642
ENCODING 9794
SWIDTH 225 0
DWIDTH 32 0
BBX 32 32 0 -2
BITMAP
00000000
00000000
00000000
00000000
00000000
0001f000
00031c00
00060c00
000c0600
000c0600
00180600
00180c00
00180c00
00301800
0033b000
0031e000
00303000
00601800
00601800
00600c00
00600c00
00600c00
00c00c00
00e01800
00f03800
00dc7000
00c7c000
01800000
01800000
01800000
01800000
00000000
ENDCHAR
STARTCHAR 2643
ENCODING 9795
SWIDTH 225 0
DWIDTH 32 0
BBX 32 32 0 -2
BITMAP
00000000
00000000
00000000
00000000
00000000
00000000
00000000
00000000
00000000
00000000
00000000
00000000
00380c00
007c1c00
006c3800
00c63000
00866000
00066000
0002c000
00028000
00038000
00030000
00070000
00070000
00060000
000e0000
000e0000
000c0000
001c0000
001c0000
00180000
00000000
ENDCHAR
STARTCHAR 2644
ENCODING 9796
SWIDTH 225 0
DWIDTH 32 0
BBX 32 32 0 -2
BITMAP
00000000
00000000
00000000
00000000
0007c000
000c7000
00081800
00080c00
000c0400
00060400
00030000
0001c000
0000e000
0007f000
001c3800
00381800
00300c00
00700c00
00600c00
00600c00
00600c00
00600c00
00601800
00201800
00303000
0018e000
000f8000
00000000
00000000
00000000
00000000
00000000
ENDCHAR
STARTCHAR 2645
ENCODING 9797
SWIDTH 225 0
DWIDTH 32 0
BBX 32 32 0 -2
BITMAP
00000000
00000000
00000000
00000000
00000000
00000000
00000000
00000000
00000000
00000000
00000000
00000000
0001f000
00071800
000e0800
000c0000
000c0000
00060000
0007e000
0003e000
000e0000
00180000
00180000
00180800
00181800
000c7000
0007c000
00000000
00000000
00000000
00000000
00000000
ENDCHAR
STARTCHAR 2646
ENCODING 9798
SWIDTH 225 0
DWIDTH 32 0
BBX 32 32 0 -2
BITMAP
00000000
00000000
00000000
00000000
00000000
00070000
000c1c00
00083c00
00087800
000cf000
0007c000
00030000
00060000
00040000
000c0000
00080000
00180000
00100000
00300000
00200000
00200000
00200000
00300000
001f0000
000fe000
0001f000
00001800
00000800
00030800
00039800
0001f000
00000000
ENDCHAR
STARTCHAR 2647
ENCODING 9799
SWIDTH 225 0
DWIDTH 32 0
BBX 32 32 0 -2
BITMAP
00000000
00000000
00000000
00000000
00000000
00000000
00000000
00000000
00000000
00000000
00000000
00000000
001c7800
0036cc00
00638600
00430600
00060600
00060600
000c0600
000c0c00
000c0c00
00180c00
00180c00
00181800
00381800
00301800
00301800
00003000
00003000
00003000
00003000
00000000
ENDCHAR
STARTCHAR 2648
ENCODING 9800
SWIDTH 225 0
DWIDTH 32 0
BBX 32 32 0 -2
BITMAP
00000000
00000000
00000000
00000000
00000000
0001e000
00073000
000c1800
000c1800
00180c00
00180c00
00300c00
00300c00
00300c00
00600c00
007ffc00
00600c00
00600c00
00601800
00601800
00601800
00603000
00603000
00306000
00306000
0019c000
000f0000
00000000
00000000
00000000
00000000
00000000
ENDCHAR
STARTCHAR 2649
ENCODING 9801
SWIDTH 225 0
DWIDTH 32 0
BBX 32 32 0 -2
BITMAP
00000000
00000000
00000000
00000000
00000000
00000000
00000000
00000000
00000000
00000000
00000000
00000000
00038000
00030000
00030000
00030000
00060000
00060000
00060000
00060000
000c0000
000c0000
000c0000
000c1000
000c3000
00066000
0003c000
00000000
00000000
00000000
00000000
00000000
ENDCHAR
STARTCHAR 264a
ENCODING 9802
SWIDTH 225 0
DWIDTH 32 0
BBX 32 32 0 -2
BITMAP
00000000
00000000
00000000
00000000
00000000
00000000
00000000
00000000
00000000
00000000
00000000
00000000
00060600
00060f00
00063f00
00067200
000cc000
000d8000
000f0000
000dc000
0018e000
00186000
00186000
00187100
00303300
00303e00
00301c00
00000000
00000000
00000000
00000000
00000000
ENDCHAR
STARTCHAR 264b
ENCODING 9803
SWIDTH 225 0
DWIDTH 32 0
BBX 32 32 0 -2
BITMAP
00000000
00000000
00000000
00000000
00000000
000f0000
001f8000
0030c000
0020c000
00204000
00004000
00004000
0000c000
0000c000
0001c000
0001c000
00034000
00064000
00064000
000c4000
001c4000
00184000
00386100
00306100
00703300
00e03e00
00c01c00
00000000
00000000
00000000
00000000
00000000
ENDCHAR
STARTCHAR 264c
ENCODING 9804
SWIDTH 225 0
DWIDTH 32 0
BBX 32 32 0 -2
BITMAP
00000000
00000000
00000000
00000000
00000000
00000000
00000000
00000000
00000000
00000000
00000000
00000000
00060600
000e0e00
000e0e00
000c0c00
001c1c00
00181c00
00181800
00381800
00303800
00303000
00707080
00505080
0058d180
00cd9b00
00c70e00
00c00000
01800000
01800000
01800000
00000000
ENDCHAR
STARTCHAR 264d
ENCODING 9805
SWIDTH 225 0
DWIDTH 32 0
BBX 32 32 0 -2
BITMAP
00000000
00000000
00000000
00000000
00000000
00000000
00000000
00000000
00000000
00000000
00000000
00000000
00780c00
00cc0e00
00840600
00860600
00860400
00060c00
00060800
00061800
00063000
00067000
0006e000
0007c000
00078000
00070000
00020000
00000000
00000000
00000000
00000000
00000000
ENDCHAR
STARTCHAR 264e
ENCODING 9806
SWIDTH 225 0
DWIDTH 32 0
BBX 32 32 0 -2
BITMAP
00000000
00000000
00000000
00000000
0007c000
000cc000
00080000
000c0000
00078000
0003fc00
000e1c00
00180000
00100000
00100000
00180000
000c0000
00078000
0003f800
001e3800
00300000
00600000
00600000
00780000
003e0000
000fe000
0001f000
00003000
00003000
00183000
001e6000
0007c000
00000000
ENDCHAR
STARTCHAR 264f
ENCODING 9807
SWIDTH 225 0
DWIDTH 32 0
BBX 32 32 0 -2
BITMAP
00000000
00000000
00000000
00000000
00000000
00000000
00000000
00000000
00000000
00000000
00000000
00000000
0001e000
00073800
000c0c00
00180c00
00380600
00300600
00700600
00600600
00600e00
00600c00
00601c00
00301800
00303000
001ce000
00078000
00000000
00000000
00000000
00000000
00000000
ENDCHAR
STARTCHAR 2650
ENCODING 9808
SWIDTH 225 0
DWIDTH 32 0
BBX 32 32 0 -2
BITMAP
00000000
00000000
00000000
00000000
00000000
00000000
00000000
00000000
00000000
00000000
00000000
00000180
003fff00
007ffe00
00c42000
01842000
00042000
000c2000
00086000
00184000
00184000
0010c000
0030c000
0030c200
0060e600
00e07c00
00c03800
00000000
00000000
00000000
00000000
00000000
ENDCHAR
STARTCHAR 2651
ENCODING 9809
SWIDTH 225 0
DWIDTH 32 0
BBX 32 32 0 -2
BITMAP
00000000
00000000
00000000
00000000
00000000
00000000
00000000
00000000
00000000
00000000
00000000
00000000
0003c000
000e7000
00181800
00301800
00300c00
00200c00
00600c00
00600c00
00600c00
00601800
00701800
00503000
005ce000
00c78000
00c00000
00c00000
00c00000
00c00000
00c00000
00000000
ENDCHAR
STARTCHAR 2652
ENCODING 9810
SWIDTH 225 0
DWIDTH 32 0
BBX 32 32 0 -2
BITMAP
00000000
00000000
00000000
00000000
00000000
00000000
00000000
00000000
00000000
00000000
00000000
00000000
0001ff80
00073f80
000c0c00
00180400
00300600
00300600
00600600
00600600
00600600
00600c00
00600c00
00201800
00303000
001ce000
00078000
00000000
00000000
00000000
00000000
00000000
ENDCHAR
STARTCHAR 2653
ENCODING 9811
SWIDTH 225 0
DWIDTH 32 0
BBX 32 32 0 -2
BITMAP
00000000
00000000
00000000
00000000
00000000
00000000
00000000
00000000
00000000
00000000
00000000
00000000
001fff00
003ffe00
00708000
00c08000
00818000
00010000
00030000
00020000
00020000
00060000
00060000
00060800
00071800
0003f000
0001e000
00000000
00000000
00000000
00000000
00000000
ENDCHAR
STARTCHAR 2654
ENCODING 9812
SWIDTH 225 0
DWIDTH 32 0
BBX 32 32 0 -2
BITMAP
00000000
00000000
00000000
00000000
00000000
00000000
00000000
00000000
00000000
00000000
00000000
00000000
00781800
00cc1c00
008c0c00
018c0600
010c0600
000c0600
00180400
00180400
00180400
00300c00
00300800
00301800
00303000
001fe000
000f8000
00000000
00000000
00000000
00000000
00000000
ENDCHAR
STARTCHAR 2655
ENCODING 9813
SWIDTH 225 0
DWIDTH 32 0
BBX 32 32 0 -2
BITMAP
00000000
00000000
00000000
00000000
00000000
00000000
00006000
00006000
00006000
00006000
00004000
0000c000
0007e000
000cb800
00188c00
00308600
00308600
00608600
00618600
00610600
00610c00
00610c00
00311800
001d7000
0007c000
00030000
00020000
00060000
00060000
00060000
00060000
00000000
ENDCHAR
STARTCHAR 2656
ENCODING 9814
SWIDTH 225 0
DWIDTH 32 0
BBX 32 32 0 -2
BITMAP
00000000
00000000
00000000
00000000
00000000
00000000
00000000
00000000
00000000
00000000
00000000
00000000
000e1c00
001f1800
00311800
0021b000
0000b000
0000e000
0000e000
0000c000
0000c000
00018000
00018000
00038000
00038000
00068000
0006c000
000c4200
000c4600
00187c00
00383800
00000000
ENDCHAR
STARTCHAR 2657
ENCODING 9815
SWIDTH 225 0
DWIDTH 32 0
BBX 32 32 0 -2
BITMAP
00000000
00000000
00000000
00000000
00000000
00000000
00006000
00006000
00006000
00006000
00004000
00004000
000c4600
0018c600
0030c300
00308300
00608300
00608300
00618700
00618600
00610600
00710c00
00310c00
00193800
000fe000
00030000
00020000
00020000
00060000
00060000
00060000
00000000
ENDCHAR
STARTCHAR 2658
ENCODING 9816
SWIDTH 225 0
DWIDTH 32 0
BBX 32 32 0 -2
BITMAP
00000000
00000000
00000000
00000000
00000000
00000000
00000000
00000000
00000000
00000000
00000000
00000000
000c0e00
00380300
00600180
00c00180
0080c0c0
0180c0c0
0180c0c0
0300c0c0
030180c0
030180c0
03018080
03018180
01838300
00cece00
00787800
00000000
00000000
00000000
00000000
00000000
ENDCHAR
STARTCHAR 2659
ENCODING 9817
SWIDTH 225 0
DWIDTH 32 0
BBX 32 32 0 -2
BITMAP
00000000
00000000
00000000
00000000
00000000
00000000
00000000
00000000
00000000
00000000
00000000
00000000
00000000
00000000
00000000
00000000
00000000
00000000
00000000
00000000
00000000
00000000
00000000
00000000
00000000
00000000
00000000
00000000
00000000
00000000
00000000
00000000
ENDCHAR
STARTCHAR 265a
ENCODING 9818
SWIDTH 225 0
DWIDTH 32 0
BBX 32 32 0 -2
BITMAP
00000000
00000000
00000000
00000000
00000000
00000000
00000000
00000000
00000000
00000000
00000000
00000000
00000000
00000000
00000000
00000000
00000000
00000000
00000000
00000000
00000000
00000000
00000000
00000000
00000000
00000000
00000000
00000000
00000000
00000000
00000000
00000000
ENDCHAR
STARTCHAR 265b
ENCODING 9819
SWIDTH 225 0
DWIDTH 32 0
BBX 32 32 0 -2
BITMAP
00000000
00000000
00000000
00000000
00000000
00000000
00000000
00000000
00000000
00000000
00000000
00000000
00000000
00000000
00000000
00000000
00000000
00000000
00000000
00000000
00000000
00000000
00000000
00000000
00000000
00000000
00000000
00000000
00000000
00000000
00000000
00000000
ENDCHAR
STARTCHAR 265c
ENCODING 9820
SWIDTH 225 0
DWIDTH 32 0
BBX 32 32 0 -2
BITMAP
00000000
00000000
00000000
00000000
00000000
00000000
00000000
00000000
00000000
00000000
00000000
00000000
00000000
00000000
00000000
00000000
00000000
00000000
00000000
00000000
00000000
00000000
00000000
00000000
00000000
00000000
00000000
00000000
00000000
00000000
00000000
00000000
ENDCHAR
STARTCHAR 265d
ENCODING 9821
SWIDTH 225 0
DWIDTH 32 0
BBX 32 32 0 -2
BITMAP
00000000
00000000
00000000
00000000
00000000
00000000
00000000
00000000
00000000
00000000
00000000
00000000
00000000
00000000
00000000
00000000
00000000
00000000
00000000
00000000
00000000
00000000
00000000
00000000
00000000
00000000
00000000
00000000
00000000
00000000
00000000
00000000
ENDCHAR
STARTCHAR 265e
ENCODING 9822
SWIDTH 225 0
DWIDTH 32 0
BBX 32 32 0 -2
BITMAP
00000000
00000000
00000000
00000000
00000000
00000000
00000000
00000000
00000000
00000000
00000000
00000000
00000000
00000000
00000000
00000000
00000000
00000000
00000000
00000000
00000000
00000000
00000000
00000000
00000000
00000000
00000000
00000000
00000000
00000000
00000000
00000000
ENDCHAR
STARTCHAR 265f
ENCODING 9823
SWIDTH 225 0
DWIDTH 32 0
BBX 32 32 0 -2
BITMAP
00000000
00000000
00000000
00000000
00000000
00000000
00000000
00000000
00000000
00000000
00000000
00000000
00000000
00000000
00000000
00000000
00000000
00000000
00000000
00000000
00000000
00000000
00000000
00000000
00000000
00000000
00000000
00000000
00000000
00000000
00000000
00000000
ENDCHAR
STARTCHAR 2660
ENCODING 9824
SWIDTH 225 0
DWIDTH 32 0
BBX 32 32 0 -2
BITMAP
00000000
00000000
00000000
00000000
00000000
00000000
00000000
00000000
00000000
00000000
00000000
00000000
00000000
00000000
00000000
00000000
00000000
00000000
00000000
00000000
00000000
00000000
00000000
00000000
00000000
00000000
00000000
00000000
00000000
00000000
00000000
00000000
ENDCHAR
STARTCHAR 2661
ENCODING 9825
SWIDTH 225 0
DWIDTH 32 0
BBX 32 32 0 -2
BITMAP
00000000
00000000
00000000
00000000
00000000
00000000
00000000
00000000
00000000
00000000
00000000
00000000
00000000
00000000
00000000
00000000
00000000
00000000
00000000
00000000
00000000
00000000
00000000
00000000
00000000
00000000
00000000
00000000
00000000
00000000
00000000
00000000
ENDCHAR
STARTCHAR 2662
ENCODING 9826
SWIDTH 225 0
DWIDTH 32 0
BBX 32 32 0 -2
BITMAP
00000000
00000000
00000000
00000000
00000000
00000000
00000000
00000000
00000000
00000000
00000000
00000000
00000000
00000000
00000000
00000000
00000000
00000000
00000000
00000000
00000000
00000000
00000000
00000000
00000000
00000000
00000000
00000000
00000000
00000000
00000000
00000000
ENDCHAR
ENDFONT
